<svg width="67" height="21" viewBox="0 0 67 21" fill="none" xmlns="http://www.w3.org/2000/svg">
<path d="M12.3483 1.42105H12.3639L12.3796 1.43684C12.4005 1.45789 12.4213 1.47368 12.4422 1.48421C12.5152 1.52632 12.5935 1.57368 12.6769 1.62632C12.9274 1.77368 13.1621 1.89474 13.3812 1.98947C13.7151 2.13684 13.9864 2.21053 14.195 2.21053C14.3933 2.21053 14.5237 2.13158 14.5863 1.97368V2.1C14.5863 2.36316 14.5602 2.66842 14.5081 3.01579C14.2994 4.28947 13.7725 4.92632 12.9274 4.92632C12.6561 4.92632 12.3535 4.86316 12.0196 4.73684C11.7901 4.64211 11.5345 4.51053 11.2527 4.34211L10.8771 4.10526L10.5172 3.86842C9.89115 3.44737 9.3799 3.18421 8.98341 3.07895C8.55563 2.96316 8.11742 2.90526 7.66877 2.90526C6.96971 2.90526 6.24457 3.04737 5.49334 3.33158C4.88819 3.55263 4.35607 3.92632 3.89699 4.45263C3.45877 4.96842 3.15098 5.55789 2.9736 6.22105C2.79623 6.91579 2.70754 7.59474 2.70754 8.25789C2.70754 8.71053 2.74928 9.15263 2.83275 9.58421C3.03099 10.5526 3.47442 11.6 4.16305 12.7263C5.61333 15.0947 7.96613 16.9 11.2214 18.1421L13.5221 16.4053L14.195 17.3526L9.42163 21C9.34859 21 8.95733 20.8632 8.24784 20.5895C7.50705 20.3158 7.03753 20.1316 6.83929 20.0368C3.45877 18.3526 1.32508 16.0579 0.438215 13.1526C0.146072 12.1842 0 11.2632 0 10.3895C0 10.1684 0.0104337 9.95263 0.0313011 9.74211C0.125204 8.68947 0.469516 7.59474 1.06424 6.45789C1.58592 5.44737 2.4467 4.36316 3.64658 3.20526C4.07436 2.80526 4.61169 2.35263 5.25858 1.84737L5.64985 1.56316L6.05676 1.24737C6.36977 1.02632 6.65148 0.842105 6.90189 0.694737C7.56965 0.294737 8.18524 0.0684211 8.74866 0.0157895C8.83213 0.00526316 8.9156 0 8.99907 0C9.52075 0 10.0685 0.136842 10.6424 0.410526C10.9032 0.526316 11.1954 0.684211 11.5188 0.884211L11.9414 1.15263L12.3483 1.42105Z" fill="white"/>
<path d="M21.7543 5.4C22.6829 5.76842 23.3558 6.3 23.7732 6.99474L21.4099 8.76316C21.3891 8.33158 21.0917 7.94737 20.5179 7.61053L18.9998 8.73158V15.2842C18.9998 15.6105 19.0572 15.9211 19.1719 16.2158C19.2658 16.4474 19.3962 16.6579 19.5632 16.8474C19.751 17.0789 19.9388 17.2474 20.1266 17.3526L17.7947 19.0895L17.779 19.0737H17.7634L17.7321 19.0579L17.6538 19.0105L17.5443 18.9474C17.4504 18.8842 17.3617 18.8211 17.2782 18.7579C17.1739 18.6737 17.0695 18.5842 16.9652 18.4895C16.7252 18.2579 16.5374 18 16.4018 17.7158C16.2244 17.3684 16.1357 16.9947 16.1357 16.5947V9.22105C16.1357 8.62105 15.9479 8.10526 15.5723 7.67368C15.3845 7.45263 15.1967 7.28947 15.0089 7.18421L17.3252 5.44737H17.3408L17.3878 5.47895L17.4504 5.51053L17.5443 5.55789C17.6173 5.61053 17.6956 5.66316 17.779 5.71579C17.8729 5.78947 17.9616 5.86316 18.0451 5.93684C18.2642 6.12632 18.4468 6.33684 18.5929 6.56842C18.7807 6.85263 18.9006 7.15789 18.9528 7.48421L21.7543 5.4Z" fill="white"/>
<path d="M31.3324 16.8158L28.3744 19.0895C28.2388 19.0789 28.098 19.0632 27.9519 19.0421C27.7641 19.0105 27.5763 18.9684 27.3885 18.9158C26.8876 18.7684 26.4286 18.5474 26.0112 18.2526C24.8218 17.4105 24.0653 16.0421 23.7419 14.1474C23.6375 13.5789 23.5854 13 23.5854 12.4105C23.5854 11.7053 23.6584 10.9842 23.8045 10.2474C24.0445 9.04737 24.4775 8.04211 25.1035 7.23158C25.8964 6.22105 26.9711 5.53684 28.3275 5.17895C30.6333 5.85263 31.7863 8.52632 31.7863 13.2C31.7863 14.2632 31.7289 15.4211 31.6141 16.6737L31.3324 16.8158ZM29.0787 13.5789C29.0579 9.4 28.2649 7.30526 26.6998 7.29474C26.2303 8.10526 25.9956 9.15263 25.9956 10.4368C25.9956 11.2158 26.079 12.0737 26.246 13.0105C26.3399 13.7474 26.632 14.4526 27.1224 15.1263C27.6337 15.8316 28.2858 16.3053 29.0787 16.5474V13.5789Z" fill="white"/>
<path d="M45.2614 5.41579L45.277 5.43158H45.3083L45.3396 5.44737L45.4179 5.49474L45.5274 5.55789C45.6109 5.62105 45.6996 5.68421 45.7935 5.74737C45.8978 5.83158 45.997 5.92105 46.0909 6.01579C46.3413 6.24737 46.5343 6.50526 46.6699 6.78947C46.8473 7.13684 46.936 7.51053 46.936 7.91053C46.936 8.21579 46.9308 10.6579 46.9203 15.2368L41.787 19.0895C40.7123 18.6053 39.888 17.8895 39.3142 16.9421L36.4501 19.0895C35.5737 18.6895 34.8486 18.1211 34.2747 17.3842C33.7426 16.6895 33.4765 16.0368 33.4765 15.4263V8.90526C33.4765 8.65263 33.4191 8.41053 33.3044 8.17895C33.2105 7.98947 33.08 7.80526 32.9131 7.62632C32.7253 7.42632 32.5375 7.26842 32.3497 7.15263L34.6816 5.41579C35.2763 5.76316 35.7302 6.36842 36.0432 7.23158C36.1997 7.66316 36.2988 8.05789 36.3406 8.41579L36.3249 15.4579C36.3249 15.9 36.6275 16.3 37.2327 16.6579L38.8134 15.4263V8.90526C38.8134 8.45263 38.6256 8.02632 38.2499 7.62632C38.0517 7.42632 37.8587 7.26842 37.6709 7.15263L40.0028 5.41579C40.5975 5.76316 41.0514 6.36842 41.3644 7.23158C41.5313 7.66316 41.6305 8.05789 41.6618 8.41579V15.4579C41.6618 15.9 41.9591 16.3 42.5538 16.6579L44.0719 15.5211V9.18947C44.0719 8.86316 44.0146 8.55789 43.8998 8.27368C43.8059 8.04211 43.6755 7.83158 43.5085 7.64211C43.3207 7.42105 43.1329 7.25789 42.9451 7.15263L45.2614 5.41579Z" fill="white"/>
<path d="M52.1007 15.3158C52.1007 16.2211 52.4763 16.9 53.2275 17.3526L50.9112 19.0895L50.8956 19.0737H50.8799C49.7948 18.2526 49.2523 17.2158 49.2523 15.9632V9.22105C49.2523 8.62105 49.0645 8.10526 48.6889 7.67368C48.501 7.45263 48.3132 7.28947 48.1254 7.18421L50.4417 5.44737H50.4574L50.5043 5.47895L50.5669 5.51053L50.6608 5.55789C50.7339 5.61053 50.8121 5.66316 50.8956 5.71579C50.9895 5.78947 51.0782 5.86316 51.1616 5.93684C51.3807 6.12632 51.5633 6.33684 51.7094 6.56842C51.8972 6.85263 52.0276 7.15789 52.1007 7.48421L54.8708 5.4C55.789 5.75789 56.4567 6.27895 56.8741 6.96316C57.208 7.51053 57.3749 8.13684 57.3749 8.84211V15.3158C57.3749 16.2211 57.7505 16.9 58.5017 17.3526L56.1855 19.0895L56.1698 19.0737H56.1542C55.0691 18.2526 54.5265 17.2158 54.5265 15.9632V8.81053C54.5265 8.36842 54.2291 7.96842 53.6344 7.61053L52.1007 8.73158V15.3158Z" fill="white"/>
<path d="M64.3864 10.9737C65.8262 11.8053 66.6087 12.6263 66.7339 13.4368C66.8174 13.9211 66.8591 14.3579 66.8591 14.7474C66.8591 14.9158 66.8487 15.0789 66.8278 15.2368C66.7444 15.9 66.5096 16.4316 66.1236 16.8316C66.061 16.8842 65.2211 17.5263 63.6038 18.7579C63.3012 18.9789 62.9674 19.0895 62.6022 19.0895C62.1431 19.0895 61.6266 18.9105 61.0528 18.5526C60.0407 17.9316 59.4929 17.1737 59.4095 16.2789L61.5849 14.6526C61.6579 14.9158 61.7831 15.1789 61.9605 15.4421C62.4405 16.1368 63.0039 16.5684 63.6508 16.7368C63.7655 16.7684 63.8699 16.7842 63.9638 16.7842C64.2559 16.7842 64.4698 16.6579 64.6055 16.4053C64.6368 16.3526 64.6628 16.2737 64.6837 16.1684L64.6994 16.0579V15.9474C64.7098 15.8842 64.715 15.8211 64.715 15.7579C64.715 15.6632 64.7046 15.5737 64.6837 15.4895C64.4959 14.5421 63.8282 13.7789 62.6804 13.2C61.5327 12.6105 60.8024 12.2 60.4894 11.9684C59.6964 11.3579 59.2999 10.6474 59.2999 9.83684V9.66316C59.3521 8.91579 59.6338 8.29474 60.1451 7.8L60.3016 7.65789L63.3221 5.38421C63.416 5.37368 63.5151 5.36842 63.6195 5.36842C64.2559 5.36842 64.8924 5.6 65.5288 6.06316C66.2488 6.57895 66.7392 7.18947 67 7.89474L64.762 9.58421C64.762 9.54211 64.6055 9.31579 64.2925 8.90526C63.9481 8.48421 63.6299 8.18947 63.3378 8.02105C63.0874 7.85263 62.7587 7.74737 62.3518 7.70526H62.2892C62.1744 7.70526 62.0857 7.72632 62.0231 7.76842L61.9918 7.8C61.7727 7.96842 61.6632 8.2 61.6632 8.49474V8.52632C61.6736 8.63158 61.6997 8.74737 61.7414 8.87368C61.7727 8.95789 61.8144 9.04737 61.8666 9.14211C62.117 9.52105 62.9569 10.1316 64.3864 10.9737Z" fill="white"/>
</svg>
