<svg width="186" height="59" viewBox="0 0 186 59" fill="none" xmlns="http://www.w3.org/2000/svg">
<path d="M178.081 24.1087C178.365 24.1087 178.564 24.2225 178.678 24.4216C178.735 24.5354 178.82 24.763 178.593 25.076L175.378 29.9981V33.3553C175.378 33.8105 175.093 34.095 174.666 34.095H174.211C173.756 34.095 173.5 33.8105 173.5 33.3553V29.9981L170.257 25.076C170.057 24.7346 170.114 24.507 170.171 24.3932C170.257 24.194 170.484 24.0802 170.769 24.0802H171.366C171.736 24.0802 171.964 24.2225 172.134 24.5354L174.439 28.2625L176.772 24.5354C176.943 24.2509 177.199 24.1087 177.54 24.1087H178.081V24.1087ZM99.8114 24.1087H94.7471C94.2919 24.1087 94.0358 24.3932 94.0358 24.8484V33.3837C94.0358 33.839 94.3203 34.1235 94.7471 34.1235H95.2023C95.6575 34.1235 95.9136 33.839 95.9136 33.3837V30.0265H99.2139C99.6692 30.0265 99.9252 29.7135 99.9252 29.2868V29.0876C99.9252 28.6324 99.6407 28.3479 99.2139 28.3479H95.9136V25.7304H99.8114C100.267 25.7304 100.523 25.4459 100.523 24.9906V24.7915C100.551 24.3647 100.267 24.1087 99.8114 24.1087ZM80.2085 24.1087H77.6195C77.1643 24.1087 76.9082 24.3932 76.9082 24.8484V33.3837C76.9082 33.839 77.1927 34.1235 77.6195 34.1235H80.237C83.2528 34.1235 85.3297 32.075 85.3297 29.1445C85.3013 26.1571 83.2244 24.1087 80.2085 24.1087ZM83.3666 29.0876C83.3666 31.0507 82.0579 32.4164 80.1801 32.4164H78.786V25.7304H80.1801C82.0579 25.7588 83.3666 27.1245 83.3666 29.0876ZM111.989 24.1087H112.444C112.899 24.1087 113.155 24.3932 113.155 24.8484V33.3837C113.155 33.839 112.871 34.1235 112.444 34.1235H111.989C111.533 34.1235 111.277 33.839 111.277 33.3837V24.8484C111.249 24.3647 111.533 24.1087 111.989 24.1087ZM131.051 24.1087H130.596C130.14 24.1087 129.884 24.3932 129.884 24.8484V30.5386L125.474 24.5354C125.275 24.2509 125.019 24.1371 124.706 24.1371H124.507C124.052 24.1371 123.796 24.4216 123.796 24.8768V33.4122C123.796 33.8674 124.08 34.1519 124.507 34.1519H124.962C125.417 34.1519 125.674 33.8674 125.674 33.4122V27.6935L130.083 33.7252C130.283 34.0097 130.539 34.1235 130.852 34.1235H131.051C131.506 34.1235 131.762 33.839 131.762 33.3837V24.8484C131.762 24.3647 131.478 24.1087 131.051 24.1087ZM143.086 24.1087H143.541C143.968 24.1087 144.252 24.3932 144.252 24.8484V33.3837C144.252 33.839 143.968 34.1235 143.541 34.1235H143.086C142.63 34.1235 142.374 33.839 142.374 33.3837V24.8484C142.374 24.3647 142.63 24.1087 143.086 24.1087ZM161.522 24.1087H154.836C154.409 24.1087 154.125 24.3932 154.125 24.8484V25.0475C154.125 25.4743 154.409 25.7873 154.836 25.7873H157.226V33.3837C157.226 33.839 157.51 34.1235 157.937 34.1235H158.392C158.848 34.1235 159.104 33.839 159.104 33.3837V25.7873H161.494C161.949 25.7873 162.205 25.5028 162.205 25.0475V24.8484C162.262 24.3647 161.977 24.1087 161.522 24.1087Z" fill="white"/>
<path d="M50.1636 16C47.0624 16 43.6767 17.6502 40.0919 20.9221C38.3848 22.4584 36.9054 24.1086 35.8242 25.4458C35.8242 25.4458 37.5597 27.4089 39.466 29.5143C40.4902 28.234 41.9981 26.4985 43.7052 24.9337C46.8917 22.0317 48.9687 21.4342 50.1636 21.4342C54.6305 21.4342 58.2722 25.1044 58.2722 29.6566C58.2722 34.1519 54.6589 37.8221 50.1636 37.879C49.9645 37.879 49.6799 37.8505 49.3954 37.7936C50.7042 38.3911 52.0983 38.8179 53.4355 38.8179C61.6294 38.8179 63.2227 33.2699 63.3365 32.8716C63.5641 31.8473 63.7064 30.7946 63.7064 29.685C63.6495 22.117 57.6178 16 50.1636 16Z" fill="url(#paint0_linear_1683_3363)"/>
<path d="M21.5428 43.2846C24.6439 43.2846 28.0296 41.6345 31.6145 38.3626C33.3216 36.8262 34.801 35.1761 35.8822 33.8389C35.8822 33.8389 34.1466 31.8757 32.2404 29.7703C31.2162 31.0506 29.7083 32.7862 28.0012 34.351C24.8147 37.253 22.7377 37.8505 21.5428 37.8505C17.0759 37.8505 13.4342 34.1803 13.4342 29.6281C13.4342 25.1328 17.0475 21.4626 21.5428 21.4057C21.7419 21.4057 22.0264 21.4341 22.3109 21.491C21.0022 20.8936 19.6081 20.4668 18.2709 20.4668C10.0769 20.4668 8.48367 26.0148 8.36987 26.4131C8.14226 27.4373 8 28.49 8 29.5996C8.02845 37.1392 14.0886 43.2846 21.5428 43.2846Z" fill="url(#paint1_linear_1683_3363)"/>
<path d="M27.7726 25.0475C26.8906 24.1939 22.5091 20.7229 18.2983 20.6091C10.8157 20.4384 8.62494 25.7303 8.45423 26.4416C9.87679 20.4668 15.2256 16.0285 21.5702 16C26.7483 16 31.9549 20.9505 35.8243 25.4458C35.8243 25.4458 35.8243 25.4173 35.8527 25.4173C35.8527 25.4173 37.5882 27.3805 39.4945 29.4859C39.4945 29.4859 41.6568 31.9896 43.9613 34.2088C44.8433 35.0623 49.2248 38.5049 53.4071 38.6187C61.0889 38.8179 63.1943 33.213 63.3366 32.7862C61.914 38.7894 56.5652 43.2562 50.2206 43.2847C45.0425 43.2847 39.8359 38.3057 35.9381 33.8389L35.9096 33.8674C35.9096 33.8674 34.1741 31.9042 32.2679 29.7988C32.2394 29.7704 30.0771 27.2667 27.7726 25.0475ZM8.42578 26.47C8.42578 26.47 8.42578 26.4416 8.42578 26.4131C8.45423 26.4416 8.45423 26.47 8.42578 26.47Z" fill="#29ABE2"/>
<defs>
<linearGradient id="paint0_linear_1683_3363" x1="43.0431" y1="18.0102" x2="61.7521" y2="37.2851" gradientUnits="userSpaceOnUse">
<stop offset="0.21" stop-color="#F15A24"/>
<stop offset="0.6841" stop-color="#FBB03B"/>
</linearGradient>
<linearGradient id="paint1_linear_1683_3363" x1="28.6607" y1="41.2674" x2="9.95161" y2="21.9925" gradientUnits="userSpaceOnUse">
<stop offset="0.21" stop-color="#ED1E79"/>
<stop offset="0.8929" stop-color="#522785"/>
</linearGradient>
</defs>
</svg>
