<svg width="186" height="59" viewBox="0 0 186 59" fill="none" xmlns="http://www.w3.org/2000/svg">
<g opacity="0.6">
<path d="M22.7962 22.8986L9.5957 28.9021L22.7962 36.7009L35.9914 28.9021L22.7962 22.8986Z" fill="#010101"/>
<path d="M22.7962 22.8986L9.5957 28.9021L22.7962 36.7009L35.9914 28.9021L22.7962 22.8986Z" fill="white" fill-opacity="0.6"/>
</g>
<g opacity="0.45">
<path d="M9.5957 28.9022L22.7962 36.701V7L9.5957 28.9022Z" fill="#010101"/>
<path d="M9.5957 28.9022L22.7962 36.701V7L9.5957 28.9022Z" fill="white" fill-opacity="0.6"/>
</g>
<g opacity="0.8">
<path d="M22.7969 7V36.701L35.9922 28.9022L22.7969 7Z" fill="#010101"/>
<path d="M22.7969 7V36.701L35.9922 28.9022L22.7969 7Z" fill="white" fill-opacity="0.6"/>
</g>
<g opacity="0.45">
<path d="M9.5957 31.4032L22.7962 50.0001V39.2021L9.5957 31.4032Z" fill="#010101"/>
<path d="M9.5957 31.4032L22.7962 50.0001V39.2021L9.5957 31.4032Z" fill="white" fill-opacity="0.6"/>
</g>
<g opacity="0.8">
<path d="M22.7969 39.2021V50.0001L36.0025 31.4032L22.7969 39.2021Z" fill="#010101"/>
<path d="M22.7969 39.2021V50.0001L36.0025 31.4032L22.7969 39.2021Z" fill="white" fill-opacity="0.6"/>
</g>
<path d="M56.8209 32.3008C56.8209 32.5896 56.5791 32.8247 56.2903 32.8247H46.0679C46.3231 35.3501 48.2239 37.6538 50.897 37.6538C52.7239 37.6538 54.0806 36.9553 55.1015 35.4978C55.2493 35.2963 55.4709 35.1687 55.753 35.2896C55.9075 35.3568 56.015 35.4978 56.0418 35.659C56.0687 35.8269 56.0217 35.921 55.9747 36.015C54.9471 37.8083 52.8985 38.6881 50.8903 38.6881C47.4515 38.6881 45 35.612 45 32.321C45 29.0299 47.4515 25.9538 50.8903 25.9538C54.3291 25.9471 56.8142 29.0165 56.8209 32.3008M55.7262 31.8038C55.5045 29.2784 53.5702 26.9747 50.897 26.9747C48.2239 26.9747 46.3231 29.2784 46.0679 31.8038H55.7262ZM69.2262 26.2023C69.5217 26.2023 69.7367 26.4575 69.7367 26.7127C69.7367 27.0082 69.515 27.2232 69.2262 27.2232H66.4859V37.9762C66.4859 38.2314 66.2643 38.4866 65.9754 38.4866C65.6799 38.4866 65.465 38.2314 65.465 37.9762V27.2232H62.8322C62.5366 27.2232 62.3217 27.0015 62.3217 26.7127C62.3217 26.4575 62.5433 26.2023 62.8322 26.2023H65.465V22.2664C65.465 22.0179 65.6329 21.7896 65.8747 21.7493C66.2172 21.6955 66.4859 21.9306 66.4859 22.253V26.2023H69.2262ZM85.9434 31.4008V37.9157C85.9434 38.2113 85.6882 38.4262 85.433 38.4262C85.1375 38.4262 84.9225 38.2046 84.9225 37.9157V31.4008C84.9225 29.2045 83.68 27.0082 81.2285 27.0082C78.0852 27.0082 76.7285 29.7553 76.9098 32.5695C76.9098 32.6433 76.9434 32.9725 76.9434 33.006V37.8956C76.9434 38.1441 76.7755 38.3725 76.5337 38.4128C76.1912 38.4665 75.9225 38.2314 75.9225 37.909V16.5104C75.9225 16.2552 76.1441 16 76.4329 16C76.7285 16 76.9434 16.2552 76.9434 16.5104V28.6202C77.8233 27.0485 79.3949 25.9874 81.2218 25.9874C84.224 25.9874 85.9434 28.6202 85.9434 31.4008M104.273 32.3008C104.273 32.5896 104.031 32.8247 103.742 32.8247H93.5129C93.7681 35.3501 95.6688 37.6538 98.342 37.6538C100.169 37.6538 101.526 36.9553 102.546 35.4978C102.694 35.2963 102.916 35.1687 103.198 35.2896C103.352 35.3568 103.46 35.4978 103.487 35.659C103.514 35.8269 103.467 35.921 103.42 36.015C102.392 37.8083 100.343 38.6881 98.3353 38.6881C94.8964 38.6881 92.4449 35.612 92.4449 32.321C92.4449 29.0299 94.8964 25.9538 98.3353 25.9538C101.781 25.9471 104.266 29.0165 104.273 32.3008M103.171 31.8038C102.949 29.2784 101.015 26.9747 98.342 26.9747C95.6688 26.9747 93.7681 29.2784 93.5129 31.8038H103.171ZM116.819 26.6791C116.819 27.0082 116.638 27.1896 116.342 27.2299C113.34 27.6665 111.99 30.118 111.99 32.9725V37.862C111.99 38.1105 111.822 38.3389 111.58 38.3792C111.238 38.4329 110.969 38.1978 110.969 37.8755V26.7329C110.969 26.4844 111.137 26.256 111.379 26.2157C111.721 26.162 111.99 26.3971 111.99 26.7194V28.9896C112.829 27.5657 114.515 26.209 116.268 26.209C116.523 26.2023 116.819 26.3903 116.819 26.6791M133.61 32.3008C133.61 32.5896 133.368 32.8247 133.079 32.8247H122.857C123.112 35.3501 125.013 37.6538 127.686 37.6538C129.513 37.6538 130.87 36.9553 131.891 35.4978C132.038 35.2963 132.26 35.1687 132.542 35.2896C132.697 35.3568 132.804 35.4978 132.831 35.659C132.858 35.8269 132.811 35.921 132.764 36.015C131.736 37.8083 129.688 38.6881 127.679 38.6881C124.241 38.6881 121.789 35.612 121.789 32.321C121.789 29.0299 124.241 25.9538 127.679 25.9538C131.118 25.9471 133.603 29.0165 133.61 32.3008M132.515 31.8038C132.294 29.2784 130.359 26.9747 127.686 26.9747C125.013 26.9747 123.112 29.2784 122.857 31.8038H132.515V31.8038ZM150.112 26.8068V37.9762C150.112 38.2717 149.857 38.4866 149.602 38.4866C149.306 38.4866 149.091 38.265 149.091 37.9762V35.8538C148.252 37.5396 146.747 38.7419 144.847 38.7419C141.811 38.7419 140.125 36.109 140.125 33.3284V26.7799C140.125 26.5247 140.347 26.2694 140.635 26.2694C140.931 26.2694 141.146 26.5247 141.146 26.7799V33.3284C141.146 35.5247 142.388 37.721 144.84 37.721C148.279 37.721 149.085 34.5038 149.085 30.9508V26.7799C149.085 26.4844 149.38 26.1821 149.743 26.2896C149.965 26.3635 150.112 26.5784 150.112 26.8068M175.971 31.3605V37.909C175.971 38.2046 175.715 38.4195 175.46 38.4195C175.165 38.4195 174.95 38.1978 174.95 37.909V31.3605C174.95 29.1642 173.707 27.0082 171.256 27.0082C168.18 27.0082 167.011 30.2993 167.011 32.8583V37.909C167.011 38.2046 166.756 38.4195 166.5 38.4195C166.205 38.4195 165.99 38.1978 165.99 37.909V31.3605C165.99 29.1642 164.747 27.0082 162.296 27.0082C159.186 27.0082 157.903 29.4597 158.018 32.7172C158.018 32.7911 158.051 32.9389 158.018 32.9725V37.8956C158.018 38.1441 157.85 38.3725 157.601 38.4128C157.259 38.4665 156.99 38.2314 156.99 37.909V26.7329C156.99 26.4844 157.158 26.256 157.4 26.2157C157.742 26.162 158.011 26.3971 158.011 26.7194V28.5866C158.891 27.015 160.462 25.9874 162.289 25.9874C164.371 25.9874 165.983 27.3038 166.641 29.2448C167.481 27.3441 169.127 25.9874 171.249 25.9874C174.251 25.9874 175.971 28.5799 175.971 31.3605" fill="white"/>
</svg>
