<svg width="61" height="17" viewBox="0 0 61 17" fill="none" xmlns="http://www.w3.org/2000/svg">
<path d="M29.4627 3.27252C28.9165 3.27252 28.4737 3.71532 28.4737 4.26154V16.5964H25.2012V4.26154C25.2012 1.90796 27.1091 0 29.4627 0C31.4182 0 33.1227 1.33087 33.597 3.22796L35.8255 12.1421C35.9648 12.6992 36.4654 13.0901 37.0397 13.0901C37.7309 13.0901 38.2913 12.5298 38.2913 11.8385V0.233752H41.5638V11.8385C41.5638 14.3371 39.5383 16.3626 37.0397 16.3626C34.9638 16.3626 33.1542 14.9498 32.6507 12.9358L30.4222 4.02167C30.3121 3.58139 29.9165 3.27252 29.4627 3.27252Z" fill="#5243C7"/>
<path d="M12.5283 3.50653C11.3665 3.50653 10.4246 4.44842 10.4246 5.6103V10.7528C10.4246 11.9147 11.3665 12.8566 12.5283 12.8566H20.9434V16.1291H12.5283C9.5591 16.1291 7.15205 13.7221 7.15205 10.7528V5.6103C7.15205 2.64106 9.5591 0.234009 12.5283 0.234009H20.9434V3.50653H12.5283Z" fill="#5243C7"/>
<path d="M0 16.3626V0H3.27252V16.3626H0Z" fill="#5243C7"/>
<path fill-rule="evenodd" clip-rule="evenodd" d="M51.0524 3.97424C50.6645 3.97424 50.2965 4.14656 50.0482 4.4446C49.6675 4.90137 49.6431 5.55746 49.9887 6.04128L50.0704 6.15563C50.3499 6.54699 50.8012 6.77926 51.2822 6.77926L56.091 6.77835C57.524 6.77835 58.8855 7.40453 59.8181 8.49254C61.3938 10.3308 61.3938 13.0434 59.8181 14.8817C58.8855 15.9697 57.524 16.5959 56.091 16.5959H46.5991V13.3234H56.091C56.5687 13.3234 57.0225 13.1147 57.3334 12.752C57.8586 12.1392 57.8586 11.235 57.3334 10.6223C57.0225 10.2596 56.5687 10.0509 56.091 10.0509L51.2822 10.0518C49.7444 10.0518 48.3012 9.30912 47.4074 8.05774L47.3257 7.9434C46.115 6.24837 46.2006 3.94981 47.5342 2.34958C48.4043 1.30543 49.6932 0.701719 51.0524 0.701719L60.4012 0.700806V3.97333L51.0524 3.97424Z" fill="#5243C7"/>
</svg>
