<svg width="186" height="59" viewBox="0 0 186 59" fill="none" xmlns="http://www.w3.org/2000/svg">
<path d="M37.4511 23.0348C36.7025 22.5804 35.7401 22.5804 34.9113 23.0348L29.1098 26.5639L25.153 28.8631L19.3515 32.3921C18.603 32.8466 17.6405 32.8466 16.8117 32.3921L12.1866 29.6384C11.438 29.1839 10.93 28.3284 10.93 27.4194V21.9922C10.93 21.0832 11.3845 20.2277 12.1866 19.7732L16.7315 17.0997C17.4801 16.6452 18.4426 16.6452 19.2713 17.0997L23.8163 19.7732C24.5649 20.2277 25.0728 21.0832 25.0728 21.9922V25.5212L29.0296 23.1418V19.6128C29.0296 18.7038 28.5751 17.8483 27.7731 17.3938L19.3515 12.3409C18.603 11.8864 17.6405 11.8864 16.8117 12.3409L8.25654 17.3938C7.42776 17.8483 7 18.7038 7 19.6128V29.7721C7 30.681 7.4545 31.5366 8.25654 31.9911L16.8117 37.044C17.5603 37.4985 18.5228 37.4985 19.3515 37.044L25.153 33.5952L29.1098 31.2157L34.9113 27.7669C35.6599 27.3124 36.6223 27.3124 37.4511 27.7669L41.9961 30.4404C42.7446 30.8949 43.2526 31.7504 43.2526 32.6594V38.0866C43.2526 38.9956 42.7981 39.8511 41.9961 40.3056L37.4511 43.0593C36.7025 43.5138 35.7401 43.5138 34.9113 43.0593L30.3663 40.3858C29.6178 39.9313 29.1098 39.0758 29.1098 38.1668V34.6378L25.153 37.0172V40.5462C25.153 41.4552 25.6075 42.3108 26.4096 42.7652L34.9648 47.8181C35.7133 48.2726 36.6758 48.2726 37.5046 47.8181L46.0598 42.7652C46.8083 42.3108 47.3163 41.4552 47.3163 40.5462V30.387C47.3163 29.478 46.8618 28.6225 46.0598 28.168L37.4511 23.0348Z" fill="#7950DD"/>
<path d="M63.0907 44.904V36.4558C63.9997 37.6054 65.6573 38.247 67.5555 38.247C72.4212 38.247 75.7364 34.7447 75.7364 29.4245C75.7364 24.1042 72.7153 20.6019 67.9565 20.6019C65.7642 20.6019 64.0799 21.404 63.0907 22.7407V20.8693H58.4121V44.8773H63.0907V44.904ZM66.994 34.1833C64.4809 34.1833 62.8234 32.2851 62.8234 29.4245C62.8234 26.5371 64.4809 24.6389 66.994 24.6389C69.4536 24.6389 71.1379 26.5371 71.1379 29.4245C71.1112 32.2851 69.4269 34.1833 66.994 34.1833Z" fill="white"/>
<path d="M86.3507 38.247C91.5641 38.247 95.307 34.5041 95.307 29.4245C95.307 24.3448 91.5641 20.6019 86.3507 20.6019C81.1374 20.6019 77.3945 24.3448 77.3945 29.4245C77.3945 34.5041 81.1374 38.247 86.3507 38.247ZM86.3507 34.1833C83.8377 34.1833 82.0999 32.2584 82.0999 29.4245C82.0999 26.5638 83.8109 24.6389 86.3507 24.6389C88.8638 24.6389 90.6016 26.5638 90.6016 29.4245C90.6016 32.2584 88.8638 34.1833 86.3507 34.1833Z" fill="white"/>
<path d="M102.79 37.9797V13.4637H98.1113V37.9797H102.79Z" fill="white"/>
<path d="M116.853 20.896L113.324 31.9108L109.768 20.896H104.982L111.131 37.846L108.645 44.904H113.11L115.489 37.9262L121.638 20.896H116.853V20.896Z" fill="white"/>
<path d="M134.82 22.5803C133.884 21.404 132.2 20.6019 130.141 20.6019C125.195 20.6019 122.201 24.1042 122.201 29.4245C122.201 34.7447 125.195 38.247 130.222 38.247C132.2 38.247 133.991 37.4984 134.874 36.2419V38.4876C134.874 40.0917 133.831 41.1878 132.414 41.1878H124.581V44.8773H133.136C136.959 44.8773 139.525 42.5246 139.525 38.9688V20.8693H134.82V22.5803ZM130.943 34.1833C128.457 34.1833 126.8 32.3118 126.8 29.4245C126.8 26.5371 128.457 24.6389 130.943 24.6389C133.457 24.6389 135.114 26.5371 135.114 29.4245C135.114 32.3118 133.457 34.1833 130.943 34.1833Z" fill="white"/>
<path d="M151.316 38.247C156.529 38.247 160.272 34.5041 160.272 29.4245C160.272 24.3448 156.529 20.6019 151.316 20.6019C146.102 20.6019 142.359 24.3448 142.359 29.4245C142.359 34.5041 146.102 38.247 151.316 38.247ZM151.316 34.1833C148.802 34.1833 147.065 32.2584 147.065 29.4245C147.065 26.5638 148.776 24.6389 151.316 24.6389C153.829 24.6389 155.566 26.5638 155.566 29.4245C155.54 32.2584 153.829 34.1833 151.316 34.1833Z" fill="white"/>
<path d="M167.518 37.9797V28.6224C167.518 26.4302 168.962 24.8261 171.02 24.8261C172.972 24.8261 174.282 26.3232 174.282 28.3818V37.9797H178.987V27.3391C178.987 23.4091 176.501 20.6287 172.651 20.6287C170.325 20.6287 168.454 21.6179 167.491 23.2754V20.896H162.812V37.9797H167.518V37.9797Z" fill="white"/>
</svg>
