<svg width="186" height="59" viewBox="0 0 186 59" fill="none" xmlns="http://www.w3.org/2000/svg">
<path d="M36.3417 37.0901L31.6384 42.1332C31.5367 42.2427 31.4135 42.3301 31.2765 42.3899C31.1395 42.4498 30.9916 42.4807 30.8421 42.4809H8.54647C8.44013 42.4808 8.33611 42.4498 8.24716 42.3915C8.15821 42.3332 8.08818 42.2503 8.04564 42.1528C8.00311 42.0553 7.98992 41.9476 8.00769 41.8428C8.02545 41.7379 8.07341 41.6405 8.14568 41.5625L12.8437 36.5194C12.9454 36.4099 13.0686 36.3225 13.2056 36.2627C13.3426 36.2029 13.4905 36.1719 13.64 36.1717H35.9356C36.0429 36.1695 36.1485 36.1991 36.239 36.2567C36.3295 36.3144 36.4012 36.3975 36.4444 36.4957C36.488 36.5938 36.5012 36.7027 36.4829 36.8084C36.4646 36.9142 36.4155 37.0122 36.3417 37.0901ZM31.6384 26.9323C31.5363 26.8233 31.413 26.7362 31.2761 26.6764C31.1392 26.6166 30.9915 26.5854 30.8421 26.5846H8.54647C8.44013 26.5847 8.33611 26.6157 8.24716 26.674C8.15821 26.7323 8.08818 26.8152 8.04564 26.9127C8.00311 27.0101 7.98992 27.1179 8.00769 27.2227C8.02545 27.3276 8.07341 27.425 8.14568 27.503L12.8437 32.5487C12.9458 32.6577 13.0691 32.7448 13.206 32.8046C13.3429 32.8644 13.4906 32.8956 13.64 32.8964H35.9356C36.0418 32.8958 36.1453 32.8644 36.234 32.8059C36.3226 32.7474 36.3922 32.6645 36.4344 32.5671C36.4766 32.4698 36.4896 32.3622 36.4715 32.2576C36.4537 32.153 36.406 32.0559 36.3338 31.978L31.6384 26.9323ZM8.54647 23.3092H30.8421C30.9916 23.3091 31.1395 23.2781 31.2765 23.2183C31.4135 23.1585 31.5367 23.0711 31.6384 22.9615L36.3417 17.9185C36.4155 17.8406 36.4646 17.7426 36.4829 17.6368C36.5012 17.5311 36.488 17.4222 36.4444 17.3241C36.4012 17.2259 36.3295 17.1428 36.239 17.0851C36.1485 17.0275 36.0429 16.9979 35.9356 17.0001H13.64C13.4905 17.0003 13.3426 17.0312 13.2056 17.0911C13.0686 17.1509 12.9454 17.2383 12.8437 17.3478L8.14568 22.3909C8.07341 22.4689 8.02545 22.5663 8.00769 22.6711C7.98992 22.776 8.00311 22.8837 8.04564 22.9812C8.08818 23.0786 8.15821 23.1616 8.24716 23.2198C8.33611 23.2781 8.44013 23.3092 8.54647 23.3092Z" fill="url(#paint0_linear_1683_3369)"/>
<path d="M63.5248 27.7764H51.5966V23.8481H66.6249V19.9199H51.5568C51.0419 19.9171 50.5317 20.0157 50.055 20.2101C49.5783 20.4046 49.1443 20.691 48.7786 21.0531C48.4126 21.4151 48.1214 21.8458 47.9218 22.3203C47.7222 22.7949 47.6179 23.3041 47.6152 23.8189V27.8003C47.6174 28.3156 47.7209 28.8254 47.9202 29.3006C48.1195 29.7758 48.4104 30.207 48.7765 30.5696C49.1428 30.9323 49.5767 31.2192 50.0537 31.4139C50.5307 31.6087 51.0416 31.7075 51.5568 31.7047H63.5009V35.633H47.8992V39.5613H63.5248C64.0397 39.5641 64.5499 39.4654 65.0266 39.271C65.5033 39.0766 65.9372 38.7901 66.303 38.4281C66.669 38.066 66.9602 37.6354 67.1598 37.1608C67.3594 36.6862 67.4637 36.177 67.4663 35.6622V31.6808C67.4642 31.1655 67.3607 30.6557 67.1614 30.1806C66.962 29.7054 66.6711 29.2741 66.3051 28.9115C65.9388 28.5489 65.5048 28.262 65.0279 28.0672C64.5509 27.8725 64.04 27.7736 63.5248 27.7764Z" fill="white"/>
<path d="M86.6306 19.9198H74.6572C74.1415 19.9156 73.6301 20.0132 73.152 20.207C72.6743 20.4008 72.2392 20.687 71.8722 21.0492C71.5048 21.4114 71.2128 21.8425 71.0127 22.3178C70.8123 22.7931 70.7077 23.3032 70.7051 23.8189V35.6621C70.7077 36.1779 70.8123 36.688 71.0127 37.1632C71.2128 37.6385 71.5048 38.0696 71.8722 38.4318C72.2392 38.794 72.6743 39.0802 73.152 39.274C73.6301 39.4678 74.1415 39.5654 74.6572 39.5612H86.6306C87.1455 39.564 87.6556 39.4654 88.1323 39.271C88.609 39.0765 89.043 38.7901 89.4088 38.428C89.7748 38.066 90.0659 37.6353 90.2655 37.1608C90.4651 36.6862 90.5695 36.177 90.5721 35.6621V23.8189C90.5695 23.3041 90.4651 22.7948 90.2655 22.3203C90.0659 21.8457 89.7748 21.4151 89.4088 21.053C89.043 20.6909 88.609 20.4045 88.1323 20.2101C87.6556 20.0157 87.1455 19.917 86.6306 19.9198ZM86.6014 35.6329H74.6864V23.8481H86.596L86.6014 35.6329Z" fill="white"/>
<path d="M128.568 19.9198H116.889C116.374 19.9171 115.864 20.0157 115.387 20.2101C114.91 20.4046 114.476 20.691 114.111 21.053C113.745 21.4151 113.453 21.8457 113.254 22.3203C113.054 22.7949 112.95 23.3041 112.947 23.8189V39.5613H116.929V33.1088H128.554V39.5613H132.536V23.8189C132.533 23.3019 132.428 22.7904 132.227 22.3141C132.025 21.8378 131.732 21.406 131.363 21.0436C130.994 20.6812 130.557 20.3953 130.077 20.2024C129.598 20.0096 129.085 19.9136 128.568 19.9198ZM128.538 29.1805H116.913V23.8481H128.538V29.1805Z" fill="white"/>
<path d="M175.058 19.9199H163.379C162.864 19.9171 162.354 20.0157 161.877 20.2101C161.401 20.4046 160.967 20.691 160.601 21.0531C160.235 21.4151 159.944 21.8458 159.744 22.3203C159.544 22.7949 159.44 23.3041 159.438 23.8189V39.5613H163.419V33.1088H175.018V39.5613H178.999V23.8189C178.997 23.3041 178.892 22.7949 178.693 22.3203C178.493 21.8458 178.202 21.4151 177.836 21.0531C177.47 20.691 177.036 20.4046 176.56 20.2101C176.083 20.0157 175.573 19.9171 175.058 19.9199ZM175.018 29.1805H163.392V23.8481H175.018V29.1805Z" fill="white"/>
<path d="M151.927 35.633H150.334L144.641 21.5655C144.446 21.0801 144.11 20.6642 143.677 20.371C143.243 20.0778 142.732 19.9207 142.209 19.9198H138.677C138.333 19.9181 137.993 19.984 137.675 20.1138C137.357 20.2435 137.068 20.4347 136.824 20.6762C136.58 20.9178 136.386 21.205 136.253 21.5215C136.12 21.838 136.051 22.1777 136.049 22.521V39.5612H140.03V23.8481H141.623L147.313 37.9156C147.512 38.4 147.85 38.8143 148.285 39.1055C148.72 39.3967 149.232 39.5517 149.755 39.5506H153.288C153.632 39.5524 153.972 39.4865 154.29 39.3567C154.608 39.2269 154.897 39.0358 155.141 38.7943C155.385 38.5527 155.579 38.2655 155.712 37.949C155.845 37.6324 155.914 37.2928 155.916 36.9495V19.9198H151.927V35.633Z" fill="white"/>
<path d="M98.0712 19.9198H94.0898V35.6621C94.0925 36.1781 94.1973 36.6884 94.3977 37.1638C94.5981 37.6393 94.8904 38.0705 95.2577 38.4327C95.6251 38.795 96.0606 39.0811 96.5386 39.2748C97.0169 39.4684 97.5287 39.5658 98.0447 39.5612H109.989V35.6329H98.0712V19.9198Z" fill="white"/>
<defs>
<linearGradient id="paint0_linear_1683_3369" x1="10.4044" y1="43.0887" x2="33.783" y2="16.732" gradientUnits="userSpaceOnUse">
<stop offset="0.08" stop-color="#9945FF"/>
<stop offset="0.3" stop-color="#8752F3"/>
<stop offset="0.5" stop-color="#5497D5"/>
<stop offset="0.6" stop-color="#43B4CA"/>
<stop offset="0.72" stop-color="#28E0B9"/>
<stop offset="0.97" stop-color="#19FB9B"/>
</linearGradient>
</defs>
</svg>
