<svg width="21" height="18" viewBox="0 0 21 18" fill="none" xmlns="http://www.w3.org/2000/svg">
<path d="M14.5312 1.96875C13.9688 1.35938 12.9844 1.35938 12.4219 1.96875L6.42188 7.96875C5.8125 8.53125 5.8125 9.51562 6.42188 10.0781L12.4219 16.0781C12.9844 16.6875 13.9688 16.6875 14.5312 16.0781C14.8125 15.7969 15 15.4219 15 15C15 14.625 14.8125 14.25 14.5312 13.9688L11.1094 10.5H19.5C20.2969 10.5 21 9.84375 21 9C21 8.20312 20.2969 7.5 19.5 7.5H11.1094L14.5312 4.07812C15.1406 3.51562 15.1406 2.53125 14.5312 1.96875ZM1.5 0C0.65625 0 0 0.703125 0 1.5V16.5C0 17.3438 0.65625 18 1.5 18C2.29688 18 3 17.3438 3 16.5V1.5C3 0.703125 2.29688 0 1.5 0Z" fill="#E5E8EB"/>
</svg>
