<svg width="18" height="17" viewBox="0 0 18 17" fill="none" xmlns="http://www.w3.org/2000/svg">
<path d="M5.90625 14.4375H3.375C2.42578 14.4375 1.6875 13.6992 1.6875 12.75V3.75C1.6875 2.83594 2.42578 2.0625 3.375 2.0625H5.90625C6.36328 2.0625 6.75 1.71094 6.75 1.21875C6.75 0.761719 6.36328 0.375 5.90625 0.375H3.375C1.47656 0.375 0 1.88672 0 3.75V12.75C0 14.6484 1.47656 16.125 3.375 16.125H5.90625C6.36328 16.125 6.75 15.7734 6.75 15.2812C6.75 14.8242 6.36328 14.4375 5.90625 14.4375ZM17.6836 7.65234L12.3398 2.94141C11.9883 2.625 11.4961 2.55469 11.0742 2.73047C10.6523 2.94141 10.4062 3.32812 10.4062 3.78516V5.75391H6.1875C5.37891 5.75391 4.78125 6.35156 4.78125 7.16016V9.41016C4.78125 10.1836 5.37891 10.8164 6.1875 10.8164H10.4062V12.75C10.4062 13.207 10.6523 13.5938 11.0742 13.8047C11.2148 13.875 11.3906 13.9102 11.5664 13.9102C11.8477 13.9102 12.1289 13.8047 12.3398 13.5938L17.6836 8.91797C17.8945 8.74219 18 8.53125 18 8.28516C18 8.03906 17.8945 7.82812 17.6836 7.65234ZM12.0938 11.5547V9.09375H6.46875V7.40625H12.0938V4.94531L15.8555 8.25L12.0938 11.5547Z" fill="#23262F"/>
</svg>
