<svg width="20" height="19" viewBox="0 0 20 19" fill="none" xmlns="http://www.w3.org/2000/svg">
<path d="M10 5.875C8.10156 5.875 6.625 7.38672 6.625 9.21484C6.625 11.043 8.10156 12.625 10 12.625C11.8633 12.625 13.3398 11.1133 13.3398 9.25C13.3398 7.42188 11.8633 5.875 10 5.875ZM18.8945 12.4492L16.6797 9.25L18.8945 6.05078C19.1055 5.69922 18.9297 5.27734 18.543 5.20703L14.7109 4.50391L14.0078 0.671875C13.9375 0.285156 13.5156 0.109375 13.1992 0.320312L10 2.57031L6.76562 0.355469C6.41406 0.144531 5.99219 0.320312 5.92188 0.707031L5.25391 4.53906L1.42188 5.24219C1.03516 5.3125 0.859375 5.73438 1.07031 6.05078L3.28516 9.25L1.07031 12.4844C0.859375 12.8008 1.03516 13.2227 1.42188 13.293L5.25391 13.9961L5.95703 17.8281C6.02734 18.2148 6.44922 18.3906 6.76562 18.1797L10 15.9648L13.1992 18.1797C13.5156 18.3906 13.9375 18.2148 14.0078 17.8281L14.7109 13.9961L18.543 13.293C18.9297 13.2227 19.1055 12.8008 18.8945 12.4492ZM10 13.75C7.50391 13.75 5.5 11.7109 5.5 9.25C5.5 6.78906 7.53906 4.78516 10 4.78516C12.4258 4.78516 14.4648 6.82422 14.4648 9.25C14.4648 11.7461 12.4609 13.75 10 13.75Z" fill="#FCFCFD"/>
</svg>
