<svg width="16" height="16" viewBox="0 0 16 16" fill="none" xmlns="http://www.w3.org/2000/svg">
    <path d="M2.9375 4.3125C2.9375 3.71484 3.42969 3.1875 4.0625 3.1875C4.66016 3.1875 5.1875 3.71484 5.1875 4.3125C5.1875 4.94531 4.66016 5.4375 4.0625 5.4375C3.42969 5.4375 2.9375 4.94531 2.9375 4.3125ZM7.05078 0.375C7.64844 0.375 8.21094 0.621094 8.63281 1.04297L14.8203 7.23047C15.6992 8.10938 15.6992 9.55078 14.8203 10.4297L10.1445 15.1055C9.26562 15.9844 7.82422 15.9844 6.94531 15.1055L0.757812 8.91797C0.335938 8.49609 0.125 7.93359 0.125 7.33594V2.0625C0.125 1.14844 0.863281 0.375 1.8125 0.375H7.05078ZM1.95312 7.72266L8.14062 13.9102C8.35156 14.1562 8.73828 14.1562 8.94922 13.9102L13.625 9.23438C13.8711 9.02344 13.8711 8.63672 13.625 8.42578L7.4375 2.23828C7.33203 2.13281 7.19141 2.0625 7.05078 2.0625H1.8125V7.33594C1.8125 7.47656 1.84766 7.61719 1.95312 7.72266Z" fill="#FCFCFD"/>
    </svg>