<svg width="22" height="18" viewBox="0 0 22 18" fill="none" xmlns="http://www.w3.org/2000/svg">
<path d="M12.4219 4.07812L15.8438 7.5H7.5C6.65625 7.5 6 8.20312 6 9C6 9.84375 6.65625 10.5 7.5 10.5H15.8438L12.4219 13.9688C12.1406 14.25 12 14.625 12 15C12 15.4219 12.1406 15.7969 12.4219 16.0781C12.9844 16.6875 13.9688 16.6875 14.5312 16.0781L20.5312 10.0781C21.1406 9.51562 21.1406 8.53125 20.5312 7.96875L14.5312 1.96875C13.9688 1.35938 12.9844 1.35938 12.4219 1.96875C11.8125 2.53125 11.8125 3.51562 12.4219 4.07812ZM3 16.5V1.5C3 0.703125 2.29688 0 1.5 0C0.65625 0 0 0.703125 0 1.5V16.5C0 17.3438 0.65625 18 1.5 18C2.29688 18 3 17.3438 3 16.5Z" fill="#FCFCFD"/>
</svg>
