<svg width="19" height="18" viewBox="0 0 19 18" fill="none" xmlns="http://www.w3.org/2000/svg">
<path d="M9.42188 4.07812L12.8438 7.5H4.5C3.65625 7.5 3 8.20312 3 9C3 9.84375 3.65625 10.5 4.5 10.5H12.8438L9.42188 13.9688C9.14062 14.25 9 14.625 9 15C9 15.4219 9.14062 15.7969 9.42188 16.0781C9.98438 16.6875 10.9688 16.6875 11.5312 16.0781L17.5312 10.0781C18.1406 9.51562 18.1406 8.53125 17.5312 7.96875L11.5312 1.96875C10.9688 1.35938 9.98438 1.35938 9.42188 1.96875C8.8125 2.53125 8.8125 3.51562 9.42188 4.07812ZM0 16.5V1.5C0 0.703125 -0.703125 0 -1.5 0C-2.34375 0 -3 0.703125 -3 1.5V16.5C-3 17.3438 -2.34375 18 -1.5 18C-0.703125 18 0 17.3438 0 16.5Z" fill="#23262F"/>
</svg>
