<svg width="16" height="14" viewBox="0 0 16 14" fill="none" xmlns="http://www.w3.org/2000/svg">
<path d="M14.3438 3.75C14.3438 3.90625 14.3438 4.03125 14.3438 4.1875C14.3438 8.53125 11.0625 13.5 5.03125 13.5C3.15625 13.5 1.4375 12.9688 0 12.0312C0.25 12.0625 0.5 12.0938 0.78125 12.0938C2.3125 12.0938 3.71875 11.5625 4.84375 10.6875C3.40625 10.6562 2.1875 9.71875 1.78125 8.40625C2 8.4375 2.1875 8.46875 2.40625 8.46875C2.6875 8.46875 3 8.40625 3.25 8.34375C1.75 8.03125 0.625 6.71875 0.625 5.125V5.09375C1.0625 5.34375 1.59375 5.46875 2.125 5.5C1.21875 4.90625 0.65625 3.90625 0.65625 2.78125C0.65625 2.15625 0.8125 1.59375 1.09375 1.125C2.71875 3.09375 5.15625 4.40625 7.875 4.5625C7.8125 4.3125 7.78125 4.0625 7.78125 3.8125C7.78125 2 9.25 0.53125 11.0625 0.53125C12 0.53125 12.8438 0.90625 13.4688 1.5625C14.1875 1.40625 14.9062 1.125 15.5312 0.75C15.2812 1.53125 14.7812 2.15625 14.0938 2.5625C14.75 2.5 15.4062 2.3125 15.9688 2.0625C15.5312 2.71875 14.9688 3.28125 14.3438 3.75Z" fill="#FCFCFD"/>
</svg>
