<svg width="17" height="16" viewBox="0 0 17 16" fill="none" xmlns="http://www.w3.org/2000/svg">
<path d="M15.1016 6.54297L9.54688 0.988281C9.08984 0.566406 8.31641 0.214844 7.68359 0.214844H1.8125C0.863281 0.214844 0.0898438 0.988281 0.0898438 1.97266V7.80859C0.0898438 8.44141 0.441406 9.21484 0.863281 9.67188L6.41797 15.2266C6.94531 15.7188 7.61328 15.9648 8.28125 15.9648C8.94922 15.9648 9.61719 15.7188 10.1094 15.2266L15.1016 10.2344C16.1211 9.21484 16.1211 7.5625 15.1016 6.54297ZM13.9062 9.03906L8.91406 14.0312C8.5625 14.3828 7.96484 14.3828 7.61328 14.0312L2.05859 8.47656C1.95312 8.33594 1.77734 7.98438 1.77734 7.80859V1.97266L1.8125 1.9375H7.68359C7.85938 1.9375 8.21094 2.07812 8.35156 2.18359L13.9062 7.73828C14.2578 8.08984 14.2578 8.6875 13.9062 9.03906ZM4.87109 4.15234C4.87109 4.64453 4.48438 4.99609 4.02734 4.99609C3.53516 4.99609 3.18359 4.64453 3.18359 4.15234C3.18359 3.69531 3.57031 3.30859 4.02734 3.30859C4.51953 3.30859 4.87109 3.69531 4.87109 4.15234Z" fill="#23262F"/>
</svg>
