<svg width="17" height="17" viewBox="0 0 17 17" fill="none" xmlns="http://www.w3.org/2000/svg">
<path d="M15.1016 6.70312L9.54688 1.14844C9.08984 0.726562 8.31641 0.375 7.68359 0.375H1.8125C0.863281 0.375 0.0898438 1.14844 0.0898438 2.13281V7.96875C0.0898438 8.60156 0.441406 9.375 0.863281 9.83203L6.41797 15.3867C6.94531 15.8789 7.61328 16.125 8.28125 16.125C8.94922 16.125 9.61719 15.8789 10.1094 15.3867L15.1016 10.3945C16.1211 9.375 16.1211 7.72266 15.1016 6.70312ZM13.9062 9.19922L8.91406 14.1914C8.5625 14.543 7.96484 14.543 7.61328 14.1914L2.05859 8.63672C1.95312 8.49609 1.77734 8.14453 1.77734 7.96875V2.13281L1.8125 2.09766H7.68359C7.85938 2.09766 8.21094 2.23828 8.35156 2.34375L13.9062 7.89844C14.2578 8.25 14.2578 8.84766 13.9062 9.19922ZM4.87109 4.3125C4.87109 4.80469 4.48438 5.15625 4.02734 5.15625C3.53516 5.15625 3.18359 4.80469 3.18359 4.3125C3.18359 3.85547 3.57031 3.46875 4.02734 3.46875C4.51953 3.46875 4.87109 3.85547 4.87109 4.3125Z" fill="#FCFCFD"/>
</svg>
