<svg width="23" height="19" viewBox="0 0 23 19" fill="none" xmlns="http://www.w3.org/2000/svg">
<path d="M22.75 9.25C22.75 9.74219 22.3633 10.0938 21.9062 10.0938H17.6523L15.6133 14.418C15.4727 14.7344 15.1562 14.9102 14.7695 14.875C14.418 14.8398 14.1367 14.5938 14.0312 14.2422L11.5703 4.82031L8.93359 17.582C8.86328 17.9688 8.51172 18.25 8.125 18.25C7.73828 18.25 7.38672 18.0039 7.28125 17.6523L5.20703 10.0938H1.05859C0.601562 10.0938 0.25 9.74219 0.25 9.25C0.25 8.79297 0.601562 8.40625 1.05859 8.40625H5.875C6.22656 8.40625 6.57812 8.6875 6.68359 9.03906L7.98438 13.8203L10.6562 0.953125C10.7266 0.566406 11.0781 0.285156 11.4648 0.25H11.5C11.8516 0.25 12.2031 0.53125 12.3086 0.882812L15.0859 11.5703L16.3516 8.89844C16.4922 8.61719 16.7734 8.40625 17.125 8.40625H21.9062C22.3633 8.40625 22.75 8.79297 22.75 9.25Z" fill="#23262F"/>
</svg>
