<svg width="16" height="16" viewBox="0 0 16 16" fill="none" xmlns="http://www.w3.org/2000/svg">
<path d="M11.5 7.25H6.15625L8.25 5.3125C8.5625 5.03125 8.5625 4.5625 8.28125 4.25C8 3.9375 7.53125 3.9375 7.21875 4.21875L3.71875 7.46875C3.5625 7.59375 3.5 7.8125 3.5 8C3.5 8.21875 3.5625 8.4375 3.71875 8.5625L7.21875 11.8125C7.53125 12.0938 8 12.0938 8.28125 11.7812C8.5625 11.4688 8.5625 11 8.25 10.7188L6.15625 8.75H11.5C11.9062 8.75 12.25 8.4375 12.25 8C12.25 7.59375 11.9062 7.25 11.5 7.25ZM8 0C3.5625 0 0 3.59375 0 8C0 12.4375 3.5625 16 8 16C12.4062 16 16 12.4375 16 8C16 3.59375 12.4062 0 8 0ZM8 14.5C4.40625 14.5 1.5 11.5938 1.5 8C1.5 4.4375 4.40625 1.5 8 1.5C11.5625 1.5 14.5 4.4375 14.5 8C14.5 11.5938 11.5625 14.5 8 14.5Z" fill="#777E90"/>
</svg>
