<svg width="18" height="19" viewBox="0 0 18 19" fill="none" xmlns="http://www.w3.org/2000/svg">
<path d="M11.8125 6.40234C11.4609 6.08594 10.9336 6.08594 10.6172 6.40234L9 8.08984L7.3125 6.40234C6.96094 6.08594 6.43359 6.08594 6.11719 6.40234C5.76562 6.75391 5.76562 7.28125 6.11719 7.59766L7.76953 9.25L6.15234 10.9023C5.80078 11.2539 5.80078 11.7812 6.15234 12.0977C6.46875 12.4492 6.99609 12.4492 7.3125 12.0977L9 10.4453L10.6523 12.0977C10.9688 12.4492 11.4961 12.4492 11.8125 12.0977C12.1641 11.7812 12.1641 11.2539 11.8125 10.9023L10.1602 9.25L11.8125 7.59766C12.1641 7.28125 12.1641 6.75391 11.8125 6.40234ZM9 0.25C4.00781 0.25 0 4.29297 0 9.25C0 14.2422 4.00781 18.25 9 18.25C13.957 18.25 18 14.2422 18 9.25C18 4.29297 13.957 0.25 9 0.25ZM9 16.5625C4.95703 16.5625 1.6875 13.293 1.6875 9.25C1.6875 5.24219 4.95703 1.9375 9 1.9375C13.0078 1.9375 16.3125 5.24219 16.3125 9.25C16.3125 13.293 13.0078 16.5625 9 16.5625Z" fill="#23262F"/>
</svg>
