<svg width="114" height="114" viewBox="0 0 114 114" fill="none" xmlns="http://www.w3.org/2000/svg">
<path d="M57 114C88.4802 114 114 88.4802 114 57C114 25.5198 88.4802 0 57 0C25.5198 0 0 25.5198 0 57C0 88.4802 25.5198 114 57 114Z" fill="#32BA7C"/>
<path d="M58.4449 69.7663C60.9622 72.2837 60.9622 76.5991 58.4449 79.1165L53.2304 84.331C50.713 86.8484 46.3976 86.8484 43.8802 84.331L21.0443 61.3152C18.5269 58.7979 18.5269 54.4824 21.0443 51.9651L26.2588 46.7506C28.7761 44.2332 33.0916 44.2332 35.6089 46.7506L58.4449 69.7663Z" fill="white"/>
<path d="M78.4015 30.0286C80.9189 27.5113 85.2343 27.5113 87.7517 30.0286L92.9662 35.2431C95.4835 37.7605 95.4835 42.076 92.9662 44.5933L53.4078 83.9719C50.8905 86.4892 46.575 86.4892 44.0577 83.9719L38.8432 78.7573C36.3258 76.24 36.3258 71.9245 38.8432 69.4072L78.4015 30.0286Z" fill="white"/>
</svg>
