<svg width="16" height="16" viewBox="0 0 16 16" fill="none" xmlns="http://www.w3.org/2000/svg">
<path d="M14 0H7C5.875 0 5 0.90625 5 2V9C5 10.125 5.875 11 7 11H14C15.0938 11 16 10.125 16 9V2C16 0.90625 15.0938 0 14 0ZM14.5 9C14.5 9.28125 14.25 9.5 14 9.5H7C6.71875 9.5 6.5 9.28125 6.5 9V2C6.5 1.75 6.71875 1.5 7 1.5H14C14.25 1.5 14.5 1.75 14.5 2V9ZM9.5 14C9.5 14.2812 9.25 14.5 9 14.5H2C1.71875 14.5 1.5 14.2812 1.5 14V7C1.5 6.75 1.71875 6.5 2 6.5H4V5H2C0.875 5 0 5.90625 0 7V14C0 15.125 0.875 16 2 16H9C10.0938 16 11 15.125 11 14V12H9.5V14Z" fill="#23262F"/>
</svg>
