<svg width="18" height="18" viewBox="0 0 18 18" fill="none" xmlns="http://www.w3.org/2000/svg">
<path d="M17.5938 9.25C17.5938 4.46875 13.6562 0.53125 8.875 0.53125C4.05859 0.53125 0.15625 4.46875 0.15625 9.25C0.15625 14.0664 4.05859 17.9688 8.875 17.9688C13.6562 17.9688 17.5938 14.0664 17.5938 9.25ZM8.875 11.0078C9.75391 11.0078 10.4922 11.7461 10.4922 12.625C10.4922 13.5391 9.75391 14.2422 8.875 14.2422C7.96094 14.2422 7.25781 13.5391 7.25781 12.625C7.25781 11.7461 7.96094 11.0078 8.875 11.0078ZM7.32812 5.20703C7.29297 4.96094 7.50391 4.75 7.75 4.75H9.96484C10.2109 4.75 10.4219 4.96094 10.3867 5.20703L10.1406 9.98828C10.1055 10.2344 9.92969 10.375 9.71875 10.375H7.99609C7.78516 10.375 7.60938 10.2344 7.57422 9.98828L7.32812 5.20703Z" fill="#FD5F51"/>
</svg>
