<svg width="22" height="10" viewBox="0 0 22 10" fill="none" xmlns="http://www.w3.org/2000/svg">
<path d="M16.2269 0.332886C15.0913 0.332886 13.8535 0.914777 12.5451 2.06093C11.9244 2.60403 11.3884 3.18592 10.9863 3.65143C10.9863 3.65143 10.9863 3.65143 10.9899 3.65496V3.65143C10.9899 3.65143 11.6246 4.34265 12.3264 5.08324C12.7038 4.63536 13.2469 4.02525 13.8711 3.4751C15.0349 2.45591 15.7931 2.24078 16.2269 2.24078C17.8597 2.24078 19.1857 3.53505 19.1857 5.12556C19.1857 6.70548 17.8562 7.99975 16.2269 8.01033C16.1528 8.01033 16.0576 7.99975 15.9377 7.97506C16.4138 8.17961 16.9251 8.32772 17.4118 8.32772C20.4024 8.32772 20.9878 6.3775 21.0266 6.23644C21.1148 5.88025 21.1606 5.50643 21.1606 5.12203C21.1606 2.48412 18.9459 0.332886 16.2269 0.332886Z" fill="url(#paint0_linear_995_8055)"/>
<path d="M5.78041 9.92452C6.91598 9.92452 8.15383 9.34263 9.4622 8.19648C10.0829 7.65338 10.6189 7.07149 11.021 6.60598C11.021 6.60598 11.021 6.60598 11.0174 6.60245V6.60598C11.0174 6.60598 10.3826 5.91476 9.68085 5.17417C9.3035 5.62205 8.76041 6.23216 8.13619 6.78231C6.97241 7.8015 6.21419 8.01663 5.78041 8.01663C4.14759 8.01663 2.82158 6.72236 2.82158 5.13185C2.82158 3.55193 4.15112 2.25766 5.78041 2.24708C5.85447 2.24708 5.94969 2.25766 6.0696 2.28235C5.5935 2.07781 5.08214 1.92969 4.59547 1.92969C1.6049 1.92969 1.01948 3.87991 0.980691 4.02097C0.892525 4.37716 0.84668 4.75098 0.84668 5.13538C0.84668 7.77329 3.06139 9.92452 5.78041 9.92452Z" fill="url(#paint1_linear_995_8055)"/>
<path d="M17.4049 8.2859C15.8743 8.24711 14.2838 7.04101 13.9594 6.74125C13.1201 5.96539 11.1839 3.86706 11.0323 3.7013C9.6146 2.11433 7.6926 0.336914 5.78117 0.336914H5.77764H5.77412C3.4536 0.347494 1.49986 1.92036 0.981445 4.0187C1.02024 3.88116 1.78551 1.89215 4.5927 1.96268C6.12325 2.00148 7.72081 3.22521 8.04878 3.52497C8.88812 4.30083 10.8242 6.39917 10.9759 6.56492C12.3936 8.15189 14.3156 9.92931 16.227 9.92931H16.2305H16.2341C18.5546 9.91873 20.5083 8.34586 21.0267 6.24752C20.9844 6.38153 20.2156 8.35291 17.4049 8.2859Z" fill="#29ABE2"/>
<defs>
<linearGradient id="paint0_linear_995_8055" x1="13.6586" y1="0.96537" x2="20.3666" y2="7.9117" gradientUnits="userSpaceOnUse">
<stop offset="0.21" stop-color="#F15A24"/>
<stop offset="0.6841" stop-color="#FBB03B"/>
</linearGradient>
<linearGradient id="paint1_linear_995_8055" x1="8.3487" y1="9.29204" x2="1.6407" y2="2.34571" gradientUnits="userSpaceOnUse">
<stop offset="0.21" stop-color="#ED1E79"/>
<stop offset="0.8929" stop-color="#522785"/>
</linearGradient>
</defs>
</svg>
