<svg width="18" height="17" viewBox="0 0 18 17" fill="none" xmlns="http://www.w3.org/2000/svg">
<path d="M15.75 0.375H2.25C0.984375 0.375 0 1.39453 0 2.625V13.875C0 15.1406 0.984375 16.125 2.25 16.125H15.75C16.9805 16.125 18 15.1406 18 13.875V2.625C18 1.39453 16.9805 0.375 15.75 0.375ZM16.3125 2.625V5.15625H12.6562V2.0625H15.75C16.0312 2.0625 16.3125 2.34375 16.3125 2.625ZM7.03125 9.65625V6.84375H10.9688V9.65625H7.03125ZM10.9688 11.3438V14.4375H7.03125V11.3438H10.9688ZM5.34375 9.65625H1.6875V6.84375H5.34375V9.65625ZM7.03125 5.15625V2.0625H10.9688V5.15625H7.03125ZM12.6562 6.84375H16.3125V9.65625H12.6562V6.84375ZM2.25 2.0625H5.34375V5.15625H1.6875V2.625C1.6875 2.34375 1.93359 2.0625 2.25 2.0625ZM1.6875 13.875V11.3438H5.34375V14.4375H2.25C1.93359 14.4375 1.6875 14.1914 1.6875 13.875ZM15.75 14.4375H12.6562V11.3438H16.3125V13.875C16.3125 14.1914 16.0312 14.4375 15.75 14.4375Z" fill="#777E90"/>
</svg>
