<svg width="297" height="359" viewBox="0 0 297 359" fill="none" xmlns="http://www.w3.org/2000/svg">
<g clip-path="url(#clip0_104_158)">
<path d="M44 59.1143H254V304.114C254 333.938 229.823 358.114 200 358.114H98C68.1766 358.114 44 333.938 44 304.114V59.1143Z" fill="#C5E2F3"/>
<path d="M162.311 367.245L162.311 367.245C147.111 373.228 131.35 369.639 120.238 357.665L120.238 357.665C115.826 352.911 116.266 345.178 121.255 340.855L121.255 340.855C125.799 336.917 131.65 337.213 135.465 340.52L136.103 339.784L135.465 340.52C141.253 345.537 148.618 347.214 156.009 345.198C160.858 343.874 166.271 346.11 168.673 351.651C171.298 357.708 168.347 364.87 162.311 367.245ZM120.6 340.099L120.6 340.099L120.6 340.099Z" fill="#553BF4" stroke="black" stroke-width="2"/>
<path d="M128.64 308.248L128.64 308.248C112.479 310.633 97.9407 303.569 89.8281 289.391L89.8281 289.391C86.6064 283.761 88.7868 276.328 94.6245 273.247L94.6245 273.247C99.9424 270.44 105.574 272.053 108.541 276.138L109.329 275.566L108.541 276.138C113.043 282.335 119.837 285.637 127.493 285.346C132.515 285.155 137.282 288.557 138.367 294.499C139.553 300.993 135.057 307.301 128.64 308.248ZM94.1578 272.363L94.1577 272.363L94.1578 272.363Z" fill="#F43F3F" stroke="black" stroke-width="2"/>
<path d="M92.9481 288.167C92.8245 288.063 92.7161 287.936 92.6307 287.787C91.5208 285.847 91.266 283.551 91.913 281.324C92.5753 279.044 94.0737 277.19 96.132 276.103C96.8225 275.739 97.6771 276.004 98.0417 276.694C98.4058 277.384 98.1412 278.239 97.4512 278.603C96.0765 279.329 95.0736 280.574 94.6273 282.112C94.1958 283.598 94.3578 285.115 95.084 286.384C95.4713 287.061 95.2368 287.924 94.559 288.312C94.031 288.614 93.3889 288.538 92.9481 288.167Z" fill="#FFF5F5"/>
<path d="M237.868 335.406L237.868 335.406C228.996 350.221 212.812 358.336 194.667 356.993L194.667 356.993C187.378 356.454 182.39 350.37 183.605 343.874L183.605 343.874C184.726 337.883 190.001 334.024 195.774 333.881L195.749 332.886L195.774 333.881C204.226 333.672 211.694 329.949 216.609 323.451C219.891 319.111 226.253 317.053 232.319 319.568C238.884 322.289 241.367 329.565 237.868 335.406ZM182.63 343.691L182.629 343.691L182.63 343.691Z" fill="#4BEC78" stroke="black" stroke-width="2"/>
<path d="M272.499 205.745L272.499 205.745C263.542 222.846 246.678 231.831 227.489 229.725L227.489 229.725C219.797 228.881 214.162 221.564 215.287 213.775L215.287 213.775C216.311 206.682 221.822 202.373 227.854 202.378L227.855 201.378L227.854 202.378C236.813 202.384 244.607 198.233 249.599 190.793C252.945 185.806 259.582 183.6 266.069 186.72C273.161 190.133 276.09 198.891 272.499 205.745Z" fill="#4BEC78" stroke="black" stroke-width="2"/>
<path d="M228.504 225.731C228.319 225.777 228.123 225.792 227.923 225.77C225.306 225.483 222.945 224.135 221.272 221.976C219.561 219.767 218.834 217.056 219.225 214.344C219.357 213.435 220.201 212.804 221.11 212.935C222.02 213.067 222.65 213.911 222.519 214.82C222.257 216.631 222.748 218.449 223.903 219.939C225.018 221.378 226.575 222.275 228.286 222.463C229.199 222.563 229.858 223.384 229.758 224.298C229.68 225.01 229.162 225.568 228.504 225.731Z" fill="#FFF5F5"/>
<path d="M258.577 148.719L258.577 148.719C249.62 165.82 232.755 174.804 213.566 172.698L213.566 172.698C205.874 171.855 200.239 164.538 201.364 156.749L201.364 156.749C202.388 149.656 207.899 145.346 213.931 145.351L213.932 144.351L213.931 145.351C222.89 145.358 230.684 141.207 235.676 133.767C239.022 128.78 245.659 126.573 252.146 129.694C259.238 133.106 262.167 141.864 258.577 148.719Z" fill="#4BEC78" stroke="black" stroke-width="2"/>
<path d="M148.522 111.939L148.522 111.939C157.685 107.137 166.312 105.569 173.738 106.974C181.143 108.375 187.464 112.751 192.025 120.061L192.025 120.061C193.817 122.933 194.171 127.007 193.155 131.273C192.143 135.521 189.799 139.827 186.394 143.072L186.394 143.072C183.281 146.039 180.128 147.516 177.402 147.784C174.7 148.049 172.376 147.138 170.765 145.224L170 145.868L170.765 145.224C165.571 139.054 157.792 137.667 149.255 141.085C146.365 142.243 143.671 142.161 141.582 141.022C139.502 139.888 137.843 137.608 137.213 134.003C136.527 130.071 137.454 125.539 139.54 121.464C141.625 117.392 144.815 113.88 148.522 111.939ZM187.069 143.78L187.084 143.796L187.069 143.78Z" fill="#4BEC78" stroke="black" stroke-width="2"/>
<path d="M188.396 123.311C188.535 123.393 188.658 123.511 188.754 123.664C190.007 125.674 190.3 128.476 189.58 131.555C188.842 134.705 187.164 137.654 184.854 139.856C184.079 140.594 183.118 140.603 182.706 139.876C182.294 139.149 182.589 137.961 183.364 137.222C184.906 135.752 186.03 133.773 186.527 131.647C187.008 129.595 186.821 127.74 186.001 126.426C185.564 125.724 185.825 124.538 186.585 123.775C187.178 123.181 187.9 123.02 188.396 123.311Z" fill="#FFF5F5"/>
<path d="M220.869 280.944L220.869 280.944C213.29 295.415 199.024 303.015 182.787 301.233L182.787 301.233C176.339 300.525 171.611 294.389 172.555 287.856L172.555 287.856C173.414 281.904 178.032 278.3 183.08 278.304L183.081 277.33L183.08 278.304C190.74 278.31 197.407 274.758 201.676 268.397C204.476 264.223 210.032 262.371 215.475 264.989C221.424 267.852 223.879 275.198 220.869 280.944ZM171.565 287.713L171.565 287.713L171.565 287.713Z" fill="#4BEC78" stroke="black" stroke-width="2"/>
<path d="M183.633 297.99C183.476 298.029 183.309 298.042 183.139 298.023C180.917 297.779 178.911 296.635 177.49 294.801C176.037 292.924 175.419 290.622 175.751 288.318C175.863 287.545 176.58 287.01 177.352 287.121C178.125 287.233 178.66 287.95 178.549 288.722C178.327 290.26 178.744 291.804 179.725 293.07C180.672 294.293 181.994 295.054 183.448 295.214C184.223 295.299 184.783 295.997 184.698 296.773C184.632 297.378 184.192 297.852 183.633 297.99Z" fill="#FFF5F5"/>
<path d="M166.428 98.5637L166.428 98.5638C160.983 113.965 147.943 123.516 131.617 124.061L131.616 124.061C125.134 124.278 119.582 118.876 119.587 112.275L119.587 112.275C119.591 106.262 123.649 102.037 128.647 101.323L128.509 100.359L128.647 101.323C136.23 100.24 142.324 95.7769 145.645 88.8732C147.824 84.3439 153.06 81.7204 158.82 83.5383C165.115 85.5255 168.59 92.4482 166.428 98.5637ZM118.587 112.275L118.587 112.275L118.587 112.275Z" fill="#F5CA32" stroke="black" stroke-width="2"/>
<path d="M131.993 120.73C131.843 120.791 131.68 120.827 131.509 120.834C129.275 120.908 127.126 120.06 125.459 118.447C123.754 116.796 122.815 114.605 122.816 112.277C122.817 111.497 123.451 110.865 124.231 110.865C125.012 110.866 125.643 111.499 125.643 112.28C125.642 113.834 126.274 115.303 127.425 116.416C128.537 117.492 129.954 118.058 131.415 118.009C132.195 117.983 132.848 118.594 132.874 119.374C132.895 119.982 132.527 120.514 131.993 120.73Z" fill="#FFF5F5"/>
<path d="M45.513 274.675L45.513 274.675C53.7754 260.583 68.3879 253.673 84.522 256.23L84.5221 256.23C90.9285 257.244 95.3573 263.599 94.1028 270.08L94.1028 270.08C92.9602 275.983 88.1752 279.363 83.1328 279.118L83.0855 280.091L83.1328 279.118C75.4818 278.746 68.6527 281.975 64.0849 288.125C61.0881 292.16 55.45 293.744 50.1386 290.869C44.3333 287.726 42.2319 280.27 45.513 274.675ZM95.0843 270.27L95.0845 270.27L95.0843 270.27Z" fill="#4BEC78" stroke="black" stroke-width="2"/>
<path d="M83.522 259.428C83.6804 259.397 83.8477 259.392 84.0167 259.419C86.2248 259.769 88.1737 261.008 89.5052 262.908C90.8674 264.852 91.3742 267.181 90.9321 269.466C90.7835 270.232 90.042 270.733 89.2758 270.585C88.5094 270.436 88.009 269.695 88.1569 268.929C88.4526 267.403 88.1097 265.841 87.1901 264.529C86.3027 263.263 85.0184 262.439 83.5742 262.21C82.8036 262.088 82.2776 261.364 82.3997 260.593C82.4952 259.992 82.9571 259.54 83.522 259.428Z" fill="#FFF5F5"/>
<path d="M162.428 256.924L162.428 256.924C153.055 270.303 137.933 276.011 122.057 272.161L122.057 272.161C115.754 270.633 111.852 263.941 113.625 257.583L113.625 257.583C115.241 251.791 120.283 248.808 125.289 249.459L125.415 248.493L125.289 249.459C132.885 250.447 139.952 247.78 145.002 242.019C148.314 238.239 154.062 237.114 159.124 240.409C164.656 244.01 166.149 251.611 162.428 256.924ZM112.662 257.314L112.662 257.314L112.662 257.314Z" fill="#F43F3F" stroke="black" stroke-width="2"/>
<path d="M123.312 269.053C123.152 269.072 122.985 269.063 122.818 269.023C120.646 268.496 118.803 267.104 117.629 265.103C116.429 263.055 116.111 260.692 116.736 258.45C116.946 257.698 117.726 257.259 118.478 257.469C119.229 257.679 119.668 258.458 119.459 259.21C119.041 260.707 119.257 262.292 120.068 263.673C120.85 265.007 122.064 265.932 123.485 266.276C124.243 266.461 124.709 267.224 124.525 267.983C124.381 268.574 123.884 268.988 123.312 269.053Z" fill="#FFF5F5"/>
<path d="M169.258 248.928L169.258 248.928C156.057 258.55 139.901 259.051 126.129 250.267L126.129 250.267C120.66 246.779 119.136 239.184 122.874 233.743L122.874 233.743C126.278 228.786 132.014 227.598 136.54 229.835L136.971 228.963L136.54 229.835C143.406 233.231 150.956 232.997 157.599 229.182C161.958 226.679 167.76 227.476 171.482 232.233C175.55 237.433 174.5 245.107 169.258 248.928ZM122.05 233.177L122.049 233.177L122.05 233.177Z" fill="#F5CA32" stroke="black" stroke-width="2"/>
<path d="M128.323 247.733C128.165 247.699 128.01 247.636 127.865 247.544C125.98 246.342 124.688 244.428 124.226 242.154C123.753 239.828 124.218 237.49 125.536 235.572C125.978 234.928 126.857 234.765 127.501 235.207C128.144 235.649 128.307 236.529 127.866 237.172C126.985 238.453 126.676 240.022 126.996 241.592C127.304 243.107 128.152 244.375 129.385 245.162C130.043 245.581 130.236 246.455 129.816 247.113C129.489 247.626 128.885 247.856 128.323 247.733Z" fill="#FFF5F5"/>
<path d="M180.242 247.515L180.242 247.515C181.15 263.825 172.795 277.663 157.938 284.454L157.938 284.454C152.04 287.152 144.835 284.305 142.297 278.212L142.297 278.212C139.985 272.661 142.102 267.199 146.439 264.615L145.941 263.779L146.439 264.615C153.02 260.694 156.925 254.228 157.33 246.578C157.596 241.559 161.417 237.121 167.433 236.58C174.008 235.989 179.881 241.039 180.242 247.515ZM141.374 278.596L141.374 278.597L141.374 278.596Z" fill="#4BEC78" stroke="black" stroke-width="2"/>
<path d="M157.003 281.236C156.888 281.35 156.751 281.446 156.596 281.518C154.562 282.447 152.253 282.492 150.094 281.646C147.884 280.779 146.173 279.119 145.278 276.97C144.978 276.25 145.319 275.423 146.039 275.122C146.76 274.822 147.587 275.163 147.888 275.884C148.485 277.318 149.634 278.43 151.126 279.014C152.565 279.579 154.091 279.555 155.421 278.947C156.131 278.623 156.969 278.935 157.294 279.645C157.546 280.199 157.412 280.831 157.003 281.236Z" fill="#FFF5F5"/>
<path d="M147.647 152.478L147.646 152.478C129.679 150.028 114.215 137.649 106.47 119.397L106.47 119.397C103.325 111.986 106.513 104.674 112.963 103.17L112.963 103.17C118.991 101.764 125.197 105.281 128.22 110.918L129.102 110.445L128.22 110.918C132.553 118.994 139.599 124.668 147.938 126.727C153.584 128.122 158.662 133.511 159.358 140.514C159.735 144.307 158.542 147.533 156.425 149.682C154.311 151.828 151.217 152.965 147.647 152.478ZM112.736 102.197L112.736 102.196L112.736 102.197Z" fill="#3AE2F8" stroke="black" stroke-width="2"/>
<path d="M110.063 119.148C109.937 118.996 109.829 118.822 109.748 118.633C108.698 116.157 108.615 113.56 109.514 111.32C110.433 109.027 112.232 107.463 114.579 106.915C115.366 106.732 116.28 107.29 116.62 108.16C116.96 109.032 116.597 109.886 115.811 110.07C114.243 110.435 113.039 111.487 112.419 113.034C111.82 114.528 111.867 116.242 112.554 117.861C112.921 118.725 112.59 119.599 111.815 119.812C111.211 119.978 110.515 119.693 110.063 119.148Z" fill="#FFF5F5"/>
<path d="M102.48 118.891L102.48 118.891C117.841 124.451 127.293 137.562 127.716 153.892L127.716 153.892C127.884 160.376 122.44 165.888 115.84 165.833L115.84 165.833C109.827 165.784 105.633 161.694 104.956 156.691L103.991 156.821L104.956 156.691C103.93 149.1 99.5126 142.972 92.6341 139.6C88.1212 137.387 85.5371 132.132 87.3983 126.386C89.4327 120.105 96.3814 116.682 102.48 118.891ZM115.832 166.833L115.832 166.833L115.832 166.833Z" fill="#4BEC78" stroke="black" stroke-width="2"/>
<path d="M124.388 153.491C124.448 153.641 124.483 153.805 124.488 153.976C124.545 156.211 123.681 158.353 122.055 160.008C120.392 161.701 118.194 162.623 115.866 162.604C115.085 162.597 114.458 161.959 114.465 161.179C114.471 160.398 115.109 159.771 115.89 159.777C117.444 159.79 118.917 159.169 120.039 158.026C121.123 156.923 121.7 155.51 121.662 154.049C121.642 153.269 122.258 152.62 123.038 152.6C123.647 152.584 124.176 152.956 124.388 153.491Z" fill="#FFF5F5"/>
<path d="M132.168 152.044L132.169 152.044C147.703 146.992 163.218 151.528 173.585 164.151L173.585 164.152C177.702 169.164 176.794 176.857 171.553 180.869L171.553 180.869C166.779 184.525 160.957 183.876 157.349 180.344L156.668 181.04L157.349 180.344C151.875 174.986 144.625 172.866 137.126 174.432C132.206 175.46 126.937 172.901 124.875 167.224C122.621 161.019 126 154.049 132.168 152.044ZM172.161 181.663L172.161 181.663L172.161 181.663Z" fill="#4BEC78" stroke="black" stroke-width="2"/>
<path d="M170.713 165.879C170.853 165.961 170.981 166.069 171.09 166.201C172.508 167.929 173.143 170.149 172.877 172.454C172.605 174.812 171.437 176.89 169.59 178.305C168.97 178.78 168.083 178.662 167.608 178.042C167.134 177.422 167.252 176.535 167.871 176.061C169.106 175.116 169.886 173.72 170.069 172.129C170.247 170.593 169.833 169.124 168.905 167.994C168.41 167.391 168.497 166.501 169.101 166.005C169.571 165.619 170.217 165.588 170.713 165.879Z" fill="#FFF5F5"/>
<path d="M50.1747 217.612L50.1748 217.612C62.8711 207.333 78.9808 206.013 93.1807 214.088L93.1808 214.088C98.8194 217.294 100.726 224.802 97.2692 230.426L97.2692 230.426C94.1205 235.549 88.4516 237.027 83.8187 235.021L83.4318 235.915L83.8187 235.021C76.7891 231.978 69.2604 232.594 62.8192 236.741C58.5933 239.462 52.7583 238.96 48.8001 234.397C44.4739 229.411 45.1331 221.693 50.1747 217.612ZM98.1209 230.949L98.1211 230.949L98.1209 230.949Z" fill="#4BEC78" stroke="black" stroke-width="2"/>
<path d="M91.1182 216.73C91.2775 216.756 91.4357 216.811 91.5847 216.895C93.5279 218.001 94.9155 219.846 95.4926 222.094C96.0827 224.393 95.7366 226.751 94.518 228.734C94.109 229.399 93.2387 229.606 92.5737 229.198C91.9088 228.789 91.7016 227.919 92.1099 227.254C92.9241 225.93 93.1534 224.347 92.7546 222.796C92.3701 221.298 91.4583 220.074 90.1873 219.352C89.5091 218.966 89.2716 218.104 89.6576 217.425C89.9585 216.896 90.5502 216.635 91.1182 216.73Z" fill="#FFF5F5"/>
<path d="M109.573 331.684L109.573 331.684C93.2385 331.461 80.0127 322.169 74.2652 306.878L74.2651 306.878C71.9825 300.807 75.3204 293.817 81.5747 291.706L81.5748 291.706C87.2723 289.783 92.5748 292.274 94.8524 296.779L95.7215 296.34L94.8524 296.779C98.3084 303.616 104.489 307.958 112.093 308.892C117.081 309.504 121.244 313.624 121.368 319.662C121.503 326.262 116.058 331.772 109.573 331.684ZM81.2551 290.759L81.255 290.759L81.2551 290.759Z" fill="#4BEC78" stroke="black" stroke-width="2"/>
<path d="M77.5403 306.168C77.4348 306.045 77.3481 305.902 77.2875 305.742C76.5013 303.649 76.6158 301.343 77.6098 299.246C78.6272 297.102 80.4021 295.511 82.6074 294.766C83.3471 294.517 84.1485 294.914 84.3984 295.653C84.6478 296.393 84.2502 297.195 83.511 297.445C82.0382 297.941 80.8494 299.011 80.1636 300.458C79.5008 301.856 79.4187 303.379 79.9332 304.748C80.2075 305.478 79.8384 306.293 79.1074 306.568C78.538 306.782 77.9164 306.604 77.5403 306.168Z" fill="#FFF5F5"/>
<path d="M184.211 253.477L184.211 253.477C199.217 247.02 215.082 250.111 226.565 261.729L226.565 261.729C231.125 266.342 230.927 274.086 226.077 278.563L226.077 278.563C221.659 282.642 215.802 282.53 211.885 279.345L211.27 280.101L211.885 279.345C205.942 274.512 198.527 273.067 191.204 275.315C186.399 276.79 180.918 274.726 178.343 269.263C175.529 263.291 178.253 256.04 184.211 253.477ZM226.755 279.298L226.756 279.298L226.755 279.298Z" fill="#F5CA32" stroke="black" stroke-width="2"/>
<path d="M223.864 263.714C224.01 263.782 224.147 263.878 224.268 263.999C225.839 265.59 226.675 267.742 226.622 270.062C226.568 272.435 225.596 274.611 223.886 276.191C223.312 276.72 222.419 276.684 221.889 276.111C221.36 275.537 221.396 274.643 221.969 274.113C223.111 273.059 223.76 271.598 223.796 269.997C223.832 268.45 223.286 267.026 222.258 265.986C221.709 265.431 221.714 264.536 222.27 263.987C222.702 263.56 223.343 263.469 223.864 263.714Z" fill="#FFF5F5"/>
<path d="M98.3114 367.245L98.3114 367.245C83.1106 373.228 67.3504 369.639 56.2383 357.665L56.2382 357.665C51.8256 352.911 52.2664 345.178 57.255 340.855L57.2551 340.855C61.7994 336.917 67.6502 337.213 71.4649 340.52L72.1028 339.784L71.4649 340.52C77.2532 345.537 84.6184 347.214 92.009 345.198C96.8578 343.874 102.271 346.11 104.673 351.651C107.298 357.708 104.347 364.87 98.3114 367.245ZM56.6003 340.099L56.6001 340.099L56.6003 340.099Z" fill="#EE38C6" stroke="black" stroke-width="2"/>
<path d="M59.0004 355.767C58.8565 355.694 58.7221 355.594 58.6053 355.469C57.0848 353.83 56.317 351.652 56.4428 349.335C56.5718 346.965 57.6115 344.82 59.3703 343.295C59.9605 342.784 60.8528 342.849 61.3641 343.438C61.8751 344.028 61.8108 344.921 61.2213 345.432C60.0465 346.45 59.3516 347.89 59.2652 349.489C59.1812 351.033 59.6825 352.475 60.6771 353.546C61.2078 354.118 61.1748 355.012 60.6024 355.544C60.1564 355.957 59.5137 356.028 59.0004 355.767Z" fill="#FFF5F5"/>
<path d="M77.2487 226.294L77.2488 226.294C92.6296 220.791 108.27 224.871 119.001 237.187L119.001 237.187C123.263 242.077 122.58 249.793 117.458 253.957L117.458 253.958C112.793 257.751 106.954 257.272 103.245 253.847L102.584 254.563L103.245 253.847C97.6165 248.651 90.3074 246.744 82.8573 248.528C77.9694 249.699 72.6288 247.295 70.4015 241.681C67.9674 235.544 71.1412 228.478 77.2487 226.294ZM118.089 254.733L118.089 254.733L118.089 254.733Z" fill="#EE38C6" stroke="black" stroke-width="2"/>
<path d="M116.181 238.999C116.323 239.076 116.454 239.18 116.567 239.309C118.035 240.994 118.734 243.195 118.536 245.507C118.333 247.872 117.226 249.983 115.421 251.452C114.815 251.944 113.925 251.852 113.432 251.247C112.94 250.641 113.032 249.751 113.637 249.259C114.844 248.278 115.583 246.86 115.72 245.265C115.852 243.724 115.396 242.268 114.436 241.165C113.923 240.577 113.984 239.684 114.573 239.171C115.032 238.772 115.676 238.721 116.181 238.999Z" fill="#FFF5F5"/>
<path d="M222.197 268.746L222.197 268.746C238.155 265.251 253.146 271.295 262.218 284.88L262.218 284.88C265.82 290.274 264.158 297.84 258.546 301.316L258.546 301.316C253.435 304.483 247.705 303.263 244.463 299.393L243.717 300.018L244.463 299.393C239.544 293.521 232.539 290.696 224.922 291.514C219.924 292.052 214.934 288.986 213.442 283.133C211.811 276.736 215.861 270.133 222.197 268.746ZM259.073 302.166L259.073 302.166L259.073 302.166Z" fill="#3AE2F8" stroke="black" stroke-width="2"/>
<path d="M259.189 286.316C259.32 286.411 259.437 286.531 259.532 286.673C260.773 288.533 261.186 290.805 260.694 293.072C260.191 295.392 258.824 297.345 256.845 298.571C256.181 298.982 255.311 298.777 254.899 298.114C254.488 297.45 254.693 296.579 255.357 296.168C256.678 295.349 257.593 294.038 257.932 292.472C258.26 290.961 257.993 289.458 257.181 288.242C256.748 287.593 256.923 286.716 257.572 286.282C258.078 285.945 258.724 285.977 259.189 286.316Z" fill="#FFF5F5"/>
<path d="M160.977 137.919L160.977 137.919C167.555 122.966 181.271 114.414 197.592 115.088L197.592 115.088C204.073 115.355 209.207 121.156 208.71 127.738L208.71 127.738C208.257 133.734 203.895 137.645 198.858 137.984L198.923 138.956L198.858 137.984C191.215 138.499 184.805 142.495 180.979 149.132C178.468 153.486 173.051 155.712 167.443 153.47C161.313 151.018 158.364 143.856 160.977 137.919ZM209.707 127.813L209.707 127.813L209.707 127.813Z" fill="#553BF4" stroke="black" stroke-width="2"/>
<path d="M196.968 118.381C197.122 118.332 197.288 118.308 197.459 118.315C199.693 118.407 201.772 119.413 203.314 121.146C204.891 122.919 205.664 125.174 205.489 127.495C205.43 128.274 204.751 128.857 203.973 128.798C203.195 128.739 202.612 128.06 202.67 127.282C202.788 125.732 202.267 124.22 201.202 123.024C200.174 121.869 198.803 121.199 197.342 121.138C196.562 121.106 195.956 120.448 195.988 119.668C196.014 119.06 196.42 118.557 196.968 118.381Z" fill="#FFF5F5"/>
<path d="M124.012 270.012L124.012 270.012C109.385 277.285 93.3735 275.071 81.2683 264.103L81.2683 264.103C76.4613 259.748 76.2323 252.005 80.8287 247.267L80.8288 247.267C85.0158 242.951 90.8704 242.741 94.9565 245.706L95.5284 244.917L94.9565 245.706C101.157 250.204 108.639 251.239 115.828 248.591C120.544 246.854 126.13 248.613 129.002 253.926C132.141 259.734 129.82 267.124 124.012 270.012ZM80.1112 246.571L80.111 246.571L80.1112 246.571Z" fill="#553BF4" stroke="black" stroke-width="2"/>
<path d="M82.2136 160.273L81.5912 161.055L82.2136 160.273C76.0599 155.379 68.3528 154.813 60.7836 158.574C58.2615 159.827 55.6371 160.012 53.3487 159.179C51.0666 158.348 49.0149 156.468 47.7046 153.391C46.2774 150.039 46.2741 146.042 47.4554 142.345C48.6364 138.65 50.9745 135.341 54.1152 133.341L54.1152 133.341C61.9502 128.349 69.9311 126.21 77.3789 126.791C84.8191 127.37 91.8023 130.668 97.6543 136.683L97.6544 136.683C99.956 139.049 101.082 142.561 100.953 146.325C100.824 150.083 99.4421 154.002 96.8478 157.098L96.8478 157.098C92.1028 162.761 86.081 163.349 82.2136 160.273ZM97.6143 157.74L97.6141 157.74L97.6143 157.74Z" fill="#553BF4" stroke="black" stroke-width="2"/>
<path d="M173.317 237.409L173.317 237.408C185.001 225.991 200.917 223.175 215.808 229.892L215.808 229.892C221.721 232.558 224.319 239.856 221.401 245.777L221.401 245.777C218.744 251.171 213.237 253.171 208.438 251.606L208.136 252.532L208.438 251.606C201.155 249.231 193.716 250.547 187.69 255.276C183.736 258.379 177.88 258.422 173.513 254.249C168.741 249.688 168.678 241.942 173.317 237.409ZM222.298 246.219L222.298 246.219L222.298 246.219Z" fill="#553BF4" stroke="black" stroke-width="2"/>
<path d="M214 232.715C214.161 232.726 214.324 232.766 214.48 232.836C216.518 233.755 218.072 235.464 218.856 237.647C219.657 239.881 219.533 242.262 218.504 244.35C218.159 245.05 217.312 245.338 216.612 244.993C215.911 244.648 215.624 243.801 215.969 243.1C216.656 241.706 216.737 240.109 216.195 238.602C215.673 237.146 214.651 236.013 213.318 235.412C212.607 235.091 212.29 234.254 212.611 233.543C212.861 232.988 213.426 232.673 214 232.715Z" fill="#FFF5F5"/>
<path d="M111.197 262.746L111.197 262.746C127.155 259.251 142.146 265.295 151.218 278.88L151.218 278.88C154.82 284.274 153.158 291.84 147.546 295.316L147.546 295.316C142.435 298.483 136.705 297.263 133.463 293.393L132.717 294.018L133.463 293.393C128.544 287.521 121.539 284.696 113.922 285.514C108.924 286.052 103.934 282.986 102.442 277.133C100.811 270.736 104.861 264.133 111.197 262.746ZM148.073 296.166L148.073 296.166L148.073 296.166Z" fill="#EE38C6" stroke="black" stroke-width="2"/>
<path d="M148.189 280.316C148.32 280.411 148.437 280.531 148.532 280.673C149.773 282.533 150.186 284.805 149.694 287.072C149.191 289.392 147.824 291.345 145.845 292.571C145.181 292.982 144.311 292.777 143.899 292.114C143.488 291.45 143.693 290.579 144.357 290.168C145.678 289.349 146.593 288.038 146.932 286.472C147.26 284.961 146.993 283.458 146.181 282.242C145.748 281.593 145.923 280.716 146.572 280.282C147.078 279.945 147.724 279.977 148.189 280.316Z" fill="#FFF5F5"/>
<path d="M107.133 142.856L107.133 142.856C121.558 135.191 137.624 136.972 150.02 147.611L150.02 147.611C154.943 151.834 155.38 159.568 150.913 164.428L150.913 164.428C146.844 168.855 140.997 169.223 136.833 166.37L136.282 167.173L136.833 166.37C130.513 162.04 123.006 161.208 115.891 164.048C111.223 165.912 105.592 164.304 102.578 159.07C99.2833 153.349 101.404 145.899 107.133 142.856ZM151.649 165.104L151.649 165.105L151.649 165.104Z" fill="#EE38C6" stroke="black" stroke-width="2"/>
<path d="M197.997 287.014L197.997 287.014C181.67 286.472 168.629 276.923 163.182 261.523L163.182 261.523C161.018 255.408 164.492 248.485 170.787 246.497L170.787 246.497C176.521 244.686 181.773 247.28 183.962 251.829L184.84 251.407L183.962 251.829C187.284 258.731 193.379 263.194 200.963 264.276C205.938 264.986 210.02 269.186 210.025 275.226C210.031 281.827 204.48 287.23 197.997 287.014ZM170.485 245.543L170.485 245.543L170.485 245.543Z" fill="#3AE2F8" stroke="black" stroke-width="2"/>
<path d="M52.351 223.238L52.351 223.238C67.8719 228.333 77.7156 241.153 78.63 257.463L78.63 257.463C78.9936 263.939 73.719 269.612 67.1197 269.756L67.1197 269.756C61.1078 269.888 56.7923 265.927 55.9654 260.946L55.0047 261.106L55.9654 260.946C54.7107 253.39 50.1106 247.398 43.1335 244.235C38.556 242.159 35.8146 236.984 37.5017 231.184C39.3459 224.845 46.1881 221.215 52.351 223.238ZM67.1416 270.756L67.1416 270.756L67.1416 270.756Z" fill="#3AE2F8" stroke="black" stroke-width="2"/>
<path d="M75.2918 257.161C75.3559 257.31 75.3958 257.472 75.4058 257.643C75.5306 259.875 74.7319 262.042 73.1567 263.745C71.5448 265.488 69.3754 266.476 67.0484 266.527C66.268 266.544 65.622 265.925 65.6045 265.145C65.5877 264.364 66.2066 263.718 66.9867 263.701C68.5406 263.667 69.9948 263.002 71.0819 261.826C72.1321 260.69 72.6658 259.261 72.584 257.801C72.5405 257.022 73.1362 256.355 73.916 256.311C74.5233 256.277 75.0632 256.633 75.2918 257.161Z" fill="#FFF5F5"/>
<path d="M88.5602 290.972L88.5601 290.972C80.4729 305.166 65.9471 312.255 49.7826 309.899L49.7825 309.899C43.364 308.964 38.8568 302.664 40.031 296.169L40.031 296.169C41.1004 290.251 45.8432 286.812 50.8883 286.995L50.9235 286.022L50.8883 286.995C58.5433 287.272 65.3319 283.959 69.8231 277.753C72.7697 273.682 78.3878 272.027 83.7344 274.837C89.5781 277.908 91.7717 285.337 88.5602 290.972ZM39.0472 295.991L39.047 295.991L39.0472 295.991Z" fill="#553BF4" stroke="black" stroke-width="2"/>
<g filter="url(#filter0_d_104_158)">
<path d="M76.5602 165.972L76.5601 165.972C68.4729 180.166 53.9471 187.255 37.7826 184.899L37.7825 184.899C31.364 183.964 26.8568 177.664 28.031 171.169L28.031 171.169C29.1004 165.251 33.8432 161.812 38.8883 161.995L38.9235 161.022L38.8883 161.995C46.5433 162.272 53.3319 158.959 57.8231 152.753C60.7697 148.682 66.3878 147.027 71.7344 149.837C77.5781 152.908 79.7717 160.337 76.5602 165.972ZM27.0472 170.991L27.047 170.991L27.0472 170.991Z" fill="#4BEC78" stroke="black" stroke-width="2"/>
</g>
<path d="M204.211 292.478L204.211 292.478C219.217 286.021 235.082 289.112 246.565 300.73L246.565 300.73C251.125 305.343 250.927 313.087 246.077 317.564L246.077 317.564C241.659 321.643 235.802 321.531 231.885 318.346L231.27 319.102L231.885 318.346C225.942 313.513 218.527 312.068 211.204 314.316C206.399 315.791 200.918 313.727 198.343 308.264C195.529 302.292 198.253 295.041 204.211 292.478ZM246.755 318.299L246.756 318.299L246.755 318.299Z" fill="#F5CA32" stroke="black" stroke-width="2"/>
<path d="M67.8643 274.031L67.8643 274.031C51.5697 275.187 37.607 267.045 30.5895 252.293L30.5895 252.293C27.8027 246.436 30.5388 239.189 36.5927 236.559L36.5928 236.559C42.1077 234.162 47.6014 236.196 50.2511 240.493L51.0801 239.982L50.2511 240.493C54.2717 247.013 60.7968 250.819 68.4522 251.108C73.4747 251.297 77.9704 255.05 78.6031 261.057C79.2944 267.622 74.3346 273.572 67.8643 274.031ZM36.1943 235.642L36.1942 235.642L36.1943 235.642Z" fill="#F5CA32" stroke="black" stroke-width="2"/>
<path d="M175.612 277.187L175.612 277.187C175.349 293.521 166.025 306.723 150.719 312.433L150.719 312.433C144.642 314.701 137.661 311.345 135.566 305.086L135.566 305.086C133.657 299.383 136.161 294.087 140.672 291.821L140.235 290.951L140.672 291.821C147.516 288.382 151.875 282.212 152.827 274.61C153.452 269.623 157.581 265.471 163.62 265.362C170.221 265.244 175.717 270.702 175.612 277.187ZM134.618 305.403L134.617 305.403L134.618 305.403Z" fill="#F5CA32" stroke="black" stroke-width="2"/>
<path d="M150.017 309.156C149.895 309.261 149.751 309.348 149.591 309.408C147.496 310.189 145.19 310.069 143.096 309.069C140.954 308.047 139.367 306.268 138.628 304.061C138.381 303.32 138.78 302.52 139.52 302.272C140.26 302.024 141.061 302.424 141.309 303.164C141.802 304.638 142.869 305.829 144.314 306.519C145.71 307.185 147.233 307.271 148.603 306.76C149.335 306.487 150.148 306.858 150.421 307.59C150.634 308.16 150.454 308.781 150.017 309.156Z" fill="#FFF5F5"/>
<path d="M238.856 210.528L238.856 210.528C250.782 221.691 254.303 237.467 248.257 252.642L248.257 252.642C245.856 258.668 238.682 261.588 232.637 258.937L232.636 258.937C227.129 256.522 224.886 251.11 226.236 246.246L225.298 245.985L226.236 246.246C228.284 238.865 226.639 231.492 221.646 225.682C218.37 221.87 218.066 216.021 222.04 211.474C226.385 206.503 234.12 206.095 238.856 210.528ZM232.235 259.853L232.235 259.853L232.235 259.853Z" fill="#F5CA32" stroke="black" stroke-width="2"/>
<path d="M245.357 250.962C245.352 251.123 245.32 251.287 245.257 251.446C244.429 253.523 242.791 255.151 240.645 256.032C238.449 256.932 236.065 256.914 233.933 255.979C233.218 255.666 232.894 254.832 233.207 254.117C233.52 253.402 234.354 253.078 235.069 253.391C236.492 254.015 238.091 254.025 239.573 253.416C241.004 252.83 242.09 251.758 242.632 250.4C242.921 249.675 243.742 249.322 244.467 249.611C245.032 249.836 245.372 250.386 245.357 250.962Z" fill="#FFF5F5"/>
<path d="M147.317 302.409L147.317 302.408C159.001 290.991 174.917 288.175 189.808 294.892L189.808 294.892C195.721 297.558 198.319 304.856 195.401 310.777L195.401 310.777C192.744 316.171 187.237 318.171 182.438 316.606L182.136 317.532L182.438 316.606C175.155 314.231 167.716 315.547 161.69 320.276C157.736 323.379 151.88 323.422 147.513 319.249C142.741 314.688 142.678 306.942 147.317 302.409ZM196.298 311.219L196.298 311.219L196.298 311.219Z" fill="#553BF4" stroke="black" stroke-width="2"/>
<path d="M188 297.715C188.161 297.726 188.324 297.766 188.48 297.836C190.518 298.755 192.072 300.464 192.856 302.647C193.657 304.881 193.533 307.262 192.504 309.35C192.159 310.05 191.312 310.338 190.612 309.993C189.911 309.648 189.624 308.801 189.969 308.1C190.656 306.706 190.737 305.109 190.195 303.602C189.673 302.146 188.651 301.013 187.318 300.412C186.607 300.091 186.29 299.254 186.611 298.543C186.861 297.988 187.426 297.673 188 297.715Z" fill="#FFF5F5"/>
<path d="M262.194 325.482L262.194 325.482C250.619 337.009 234.729 339.974 219.776 333.399L219.776 333.399C213.838 330.788 211.172 323.515 214.033 317.567L214.033 317.567C216.64 312.148 222.127 310.096 226.941 311.616L227.234 310.687L226.941 311.616C234.246 313.922 241.672 312.536 247.654 307.75C251.578 304.61 257.434 304.512 261.839 308.644C266.654 313.16 266.79 320.905 262.194 325.482ZM213.132 317.134L213.132 317.134L213.132 317.134Z" fill="#EE38C6" stroke="black" stroke-width="2"/>
<path d="M258.194 170.707L258.194 170.707C246.619 182.234 230.729 185.199 215.776 178.623L215.776 178.623C209.838 176.013 207.172 168.74 210.033 162.792L210.033 162.792C212.64 157.373 218.127 155.321 222.941 156.841L223.234 155.912L222.941 156.841C230.246 159.146 237.672 157.761 243.654 152.975C247.578 149.835 253.434 149.736 257.839 153.868C262.654 158.385 262.79 166.13 258.194 170.707ZM209.132 162.358L209.132 162.358L209.132 162.358Z" fill="#EE38C6" stroke="black" stroke-width="2"/>
<path d="M244.657 261.203L244.657 261.203C227.991 265.42 212.887 259.501 204.279 245.457L204.279 245.457C200.866 239.888 202.947 231.739 209.025 227.812L209.025 227.812C214.533 224.253 220.352 225.415 223.444 229.349L224.23 228.731L223.444 229.349C228.226 235.432 235.33 238.194 243.224 237.083C248.399 236.354 253.344 239.414 254.567 245.542C255.915 252.299 251.34 259.512 244.657 261.203Z" fill="#EE38C6" stroke="black" stroke-width="2"/>
<path d="M207.515 243.747C207.386 243.651 207.272 243.528 207.181 243.381C206 241.453 205.696 239.062 206.324 236.647C206.968 234.176 208.482 232.066 210.589 230.704C211.295 230.248 212.183 230.437 212.572 231.125C212.96 231.814 212.702 232.743 211.996 233.199C210.589 234.108 209.575 235.525 209.142 237.193C208.723 238.802 208.917 240.384 209.689 241.644C210.101 242.317 209.875 243.251 209.182 243.731C208.642 244.104 207.977 244.091 207.515 243.747Z" fill="#FFF5F5"/>
<path d="M150.7 345.048L150.7 345.048C134.487 343.049 122.351 332.373 118.301 316.548L118.301 316.548C116.693 310.264 120.771 303.679 127.218 302.261L127.218 302.261C133.091 300.97 138.091 304.023 139.865 308.749L140.777 308.407L139.865 308.749C142.557 315.921 148.228 320.91 155.685 322.665C160.578 323.817 164.268 328.365 163.733 334.381C163.149 340.957 157.138 345.842 150.7 345.048ZM127.003 301.285L127.003 301.285L127.003 301.285Z" fill="#EE38C6" stroke="black" stroke-width="2"/>
<path d="M121.634 316.198C121.543 316.065 121.472 315.913 121.429 315.747C120.875 313.581 121.24 311.301 122.456 309.325C123.701 307.304 125.639 305.915 127.912 305.415C128.674 305.248 129.428 305.73 129.596 306.492C129.763 307.255 129.281 308.008 128.519 308.176C127.001 308.51 125.702 309.444 124.863 310.808C124.052 312.125 123.805 313.63 124.167 315.047C124.361 315.803 123.905 316.573 123.148 316.766C122.559 316.917 121.961 316.672 121.634 316.198Z" fill="#FFF5F5"/>
<path d="M137.446 222.336L137.446 222.336C138.92 206.067 149.198 193.592 164.884 189.033L164.884 189.033C171.113 187.223 177.827 191.087 179.452 197.484L179.452 197.484C180.932 203.312 178.042 208.408 173.376 210.334L173.747 211.234L173.376 210.334C166.295 213.256 161.491 219.086 159.978 226.596C158.985 231.523 154.559 235.358 148.528 235.018C141.937 234.647 136.861 228.796 137.446 222.336ZM180.421 197.238L180.421 197.238L180.421 197.238Z" fill="#EE38C6" stroke="black" stroke-width="2"/>
<path d="M165.342 192.353C165.472 192.258 165.621 192.182 165.785 192.134C167.932 191.51 170.223 191.801 172.237 192.953C174.297 194.132 175.748 196.023 176.321 198.279C176.513 199.036 176.055 199.804 175.299 199.997C174.543 200.189 173.774 199.731 173.581 198.975C173.199 197.468 172.224 196.201 170.833 195.406C169.491 194.638 167.978 194.44 166.574 194.848C165.824 195.065 165.04 194.635 164.822 193.885C164.653 193.301 164.878 192.695 165.342 192.353Z" fill="#FFF5F5"/>
<path d="M98.0584 339.046L98.0585 339.045C106.803 325.247 121.645 318.847 137.681 321.959L137.682 321.959C144.049 323.194 148.256 329.699 146.778 336.132L146.778 336.132C145.432 341.993 140.533 345.205 135.502 344.786L135.421 345.757L135.502 344.786C127.869 344.15 120.932 347.141 116.155 353.129C113.02 357.058 107.331 358.447 102.122 355.39C96.4286 352.048 94.586 344.524 98.0584 339.046ZM147.752 336.356L147.753 336.356L147.752 336.356Z" fill="#F43F3F" stroke="black" stroke-width="2"/>
<path d="M218.428 320.924L218.428 320.924C209.055 334.303 193.933 340.011 178.057 336.161L178.057 336.161C171.754 334.633 167.852 327.941 169.625 321.583L169.625 321.583C171.241 315.791 176.283 312.808 181.289 313.459L181.415 312.493L181.289 313.459C188.885 314.447 195.952 311.78 201.002 306.019C204.314 302.239 210.062 301.114 215.124 304.409C220.656 308.01 222.149 315.611 218.428 320.924ZM168.662 321.314L168.662 321.314L168.662 321.314Z" fill="#F43F3F" stroke="black" stroke-width="2"/>
<path d="M179.312 333.053C179.152 333.072 178.985 333.063 178.818 333.023C176.646 332.496 174.803 331.104 173.629 329.103C172.429 327.055 172.111 324.692 172.736 322.45C172.946 321.698 173.726 321.259 174.478 321.469C175.229 321.679 175.668 322.458 175.459 323.21C175.041 324.707 175.257 326.292 176.068 327.673C176.85 329.007 178.064 329.932 179.485 330.276C180.243 330.461 180.709 331.224 180.525 331.983C180.381 332.574 179.884 332.988 179.312 333.053Z" fill="#FFF5F5"/>
<path d="M38.0722 200.207L38.0723 200.207C49.0341 188.096 64.7483 184.311 80.0225 190.103L80.0225 190.103C86.0876 192.402 89.1277 199.527 86.5783 205.615L86.5782 205.615C84.256 211.162 78.8824 213.496 73.9959 212.227L73.7513 213.17L73.9959 212.227C66.5815 210.303 59.2376 212.072 53.5119 217.161C49.7554 220.501 43.9127 220.903 39.299 217.004C34.2566 212.744 33.7193 205.016 38.0722 200.207ZM87.5004 206.001L87.5007 206.002L87.5004 206.001Z" fill="#F43F3F" stroke="black" stroke-width="2"/>
<path d="M78.3911 193.031C78.5525 193.032 78.7173 193.062 78.8774 193.122C80.9677 193.915 82.623 195.526 83.5393 197.657C84.4765 199.838 84.4978 202.221 83.5991 204.369C83.2973 205.089 82.4694 205.427 81.7494 205.126C81.0295 204.824 80.6907 203.997 80.9917 203.277C81.5923 201.843 81.5751 200.244 80.9422 198.773C80.3316 197.352 79.2422 196.283 77.875 195.765C77.1455 195.488 76.7781 194.673 77.0549 193.942C77.2708 193.374 77.8153 193.025 78.3911 193.031Z" fill="#FFF5F5"/>
<path d="M257.221 264.707L257.221 264.707C248.681 278.633 233.935 285.252 217.855 282.377L217.854 282.377C211.469 281.235 207.167 274.794 208.55 268.339L208.55 268.339C209.809 262.459 214.66 259.175 219.697 259.52L219.763 258.548L219.697 259.52C227.339 260.043 234.23 256.951 238.919 250.892C241.995 246.917 247.663 245.445 252.917 248.425C258.659 251.682 260.612 259.178 257.221 264.707ZM207.572 268.13L207.572 268.13L207.572 268.13Z" fill="#F43F3F" stroke="black" stroke-width="2"/>
<path d="M203.132 157.435L203.132 157.435C191.39 168.792 175.459 171.526 160.603 164.733L160.603 164.733C154.704 162.036 152.144 154.725 155.092 148.82L155.092 148.819C157.777 143.439 163.294 141.468 168.085 143.057L168.392 142.133L168.085 143.057C175.356 145.469 182.801 144.192 188.852 139.494C192.821 136.411 198.678 136.398 203.023 140.594C207.771 145.18 207.794 152.926 203.132 157.435ZM154.197 148.373L154.197 148.373L154.197 148.373Z" fill="#F43F3F" stroke="black" stroke-width="2"/>
<path d="M180.091 361.408L180.091 361.408C164.809 355.635 155.539 342.394 155.343 326.06L155.343 326.06C155.265 319.574 160.784 314.138 167.383 314.284L167.383 314.284C173.395 314.417 177.532 318.565 178.139 323.577L179.106 323.46L178.139 323.577C179.06 331.181 183.392 337.369 190.223 340.837C194.705 343.112 197.216 348.403 195.275 354.122C193.154 360.374 186.159 363.7 180.091 361.408ZM167.405 313.285L167.405 313.285L167.405 313.285Z" fill="#3AE2F8" stroke="black" stroke-width="2"/>
<path d="M158.664 326.507C158.607 326.356 158.574 326.192 158.572 326.021C158.545 323.785 159.438 321.656 161.087 320.023C162.774 318.353 164.985 317.462 167.312 317.513C168.092 317.53 168.71 318.177 168.694 318.957C168.676 319.738 168.029 320.356 167.249 320.339C165.695 320.304 164.213 320.905 163.075 322.032C161.976 323.12 161.38 324.525 161.398 325.987C161.407 326.767 160.782 327.407 160.001 327.417C159.393 327.424 158.87 327.045 158.664 326.507Z" fill="#FFF5F5"/>
<path d="M65.3431 319.854L65.3431 319.854C81.222 316.018 96.3392 321.739 105.7 335.126L105.7 335.126C109.417 340.442 107.917 348.041 102.382 351.637L102.382 351.637C97.3395 354.913 91.5849 353.815 88.2609 350.016L87.528 350.657L88.2609 350.016C83.2173 344.251 76.1526 341.577 68.5549 342.558C63.5703 343.202 58.5157 340.244 56.8982 334.425C55.1305 328.065 59.0379 321.376 65.3431 319.854ZM102.927 352.475L102.927 352.476L102.927 352.475Z" fill="#3AE2F8" stroke="black" stroke-width="2"/>
<path d="M244.02 197.959L244.02 197.959C229.403 205.252 213.388 203.06 201.268 192.108L201.268 192.108C196.455 187.759 196.216 180.017 200.806 175.273L200.806 175.273C204.987 170.951 210.841 170.733 214.932 173.692L215.502 172.903L214.932 173.692C221.138 178.182 228.622 179.207 235.807 176.549C240.521 174.805 246.109 176.557 248.988 181.866C252.135 187.67 249.824 195.063 244.02 197.959ZM200.087 174.578L200.087 174.578L200.087 174.578Z" fill="#3AE2F8" stroke="black" stroke-width="2"/>
<path d="M203.853 189.974C203.703 189.914 203.561 189.827 203.433 189.712C201.775 188.213 200.819 186.111 200.741 183.792C200.661 181.42 201.509 179.192 203.127 177.519C203.67 176.958 204.565 176.944 205.126 177.486C205.687 178.029 205.701 178.923 205.158 179.484C204.077 180.601 203.512 182.097 203.566 183.698C203.618 185.243 204.244 186.635 205.328 187.615C205.907 188.139 205.953 189.032 205.429 189.611C205.021 190.062 204.387 190.189 203.853 189.974Z" fill="#FFF5F5"/>
<path d="M119.888 167.854L119.888 167.854C135.766 164.018 150.884 169.739 160.244 183.126L160.244 183.126C163.962 188.442 162.462 196.041 156.926 199.637L156.926 199.637C151.884 202.913 146.129 201.815 142.805 198.016L142.072 198.657L142.805 198.016C137.762 192.251 130.697 189.577 123.099 190.558C118.115 191.202 113.06 188.244 111.443 182.425C109.675 176.065 113.582 169.376 119.888 167.854ZM157.471 200.475L157.471 200.476L157.471 200.475Z" fill="#3AE2F8" stroke="black" stroke-width="2"/>
<path d="M157.247 184.627C157.38 184.719 157.499 184.837 157.598 184.977C158.879 186.809 159.34 189.072 158.897 191.349C158.443 193.679 157.118 195.661 155.167 196.929C154.512 197.354 153.637 197.168 153.212 196.514C152.787 195.859 152.973 194.984 153.627 194.559C154.931 193.712 155.817 192.381 156.122 190.809C156.418 189.291 156.119 187.794 155.282 186.596C154.835 185.956 154.99 185.076 155.63 184.628C156.129 184.28 156.775 184.298 157.247 184.627Z" fill="#FFF5F5"/>
<path d="M83.6604 314.967L83.6604 314.967C75.7251 329.245 61.2758 336.49 45.087 334.306L45.0869 334.306C38.6588 333.44 34.0847 327.188 35.1895 320.681L35.1895 320.681C36.1957 314.752 40.9015 311.263 45.9482 311.392L45.9731 310.418L45.9482 311.392C53.6057 311.587 60.3586 308.202 64.7834 301.948C67.6863 297.845 73.2864 296.131 78.6627 298.883C84.5389 301.892 86.8116 309.297 83.6604 314.967ZM34.2039 320.513L34.2036 320.513L34.2039 320.513Z" fill="#F5CA32" stroke="black" stroke-width="2"/>
<path d="M46.013 331.085C45.8553 331.12 45.6882 331.129 45.5186 331.106C43.303 330.807 41.3261 329.613 39.9511 327.745C38.5445 325.833 37.9841 323.516 38.3734 321.221C38.5043 320.451 39.2341 319.934 40.0035 320.064C40.7731 320.195 41.2905 320.925 41.1602 321.694C40.8998 323.226 41.2786 324.78 42.2282 326.07C43.1446 327.316 44.4476 328.11 45.8966 328.305C46.6699 328.41 47.2124 329.121 47.108 329.895C47.0265 330.497 46.5752 330.96 46.013 331.085Z" fill="#FFF5F5"/>
<path d="M237.94 130.654L237.94 130.654C232.495 146.055 219.455 155.606 203.129 156.151L203.129 156.151C196.646 156.368 191.094 150.966 191.099 144.365L191.099 144.365C191.103 138.352 195.162 134.127 200.159 133.413L200.021 132.449L200.159 133.413C207.742 132.33 213.837 127.867 217.157 120.963C219.336 116.434 224.572 113.81 230.332 115.628C236.627 117.615 240.102 124.538 237.94 130.654ZM190.099 144.365L190.099 144.365L190.099 144.365Z" fill="#F5CA32" stroke="black" stroke-width="2"/>
<rect x="233" y="141.114" width="20" height="216" rx="10" fill="url(#paint0_linear_104_158)" fill-opacity="0.4"/>
<rect width="20" height="216" rx="10" transform="matrix(-1 0 0 1 68 141.114)" fill="url(#paint1_linear_104_158)" fill-opacity="0.4"/>
<rect width="23" height="216" rx="11.5" transform="matrix(0 1 1 0 42 331.114)" fill="url(#paint2_linear_104_158)" fill-opacity="0.4"/>
<path d="M89.6604 171.967L89.6604 171.967C81.7251 186.245 67.2758 193.49 51.087 191.306L51.0869 191.306C44.6588 190.44 40.0847 184.188 41.1895 177.681L41.1895 177.681C42.1957 171.752 46.9015 168.263 51.9482 168.392L51.9731 167.418L51.9482 168.392C59.6057 168.587 66.3586 165.202 70.7834 158.948C73.6863 154.845 79.2864 153.131 84.6627 155.883C90.5389 158.892 92.8116 166.297 89.6604 171.967ZM40.2039 177.513L40.2036 177.513L40.2039 177.513Z" fill="#F5CA32" stroke="black" stroke-width="2"/>
<path d="M52.013 188.085C51.8553 188.12 51.6882 188.129 51.5186 188.106C49.303 187.807 47.3261 186.613 45.9511 184.745C44.5445 182.833 43.9841 180.516 44.3734 178.221C44.5043 177.451 45.2341 176.934 46.0035 177.064C46.7731 177.195 47.2905 177.925 47.1602 178.694C46.8998 180.226 47.2786 181.78 48.2282 183.07C49.1446 184.316 50.4476 185.11 51.8966 185.305C52.6699 185.41 53.2124 186.121 53.108 186.895C53.0265 187.497 52.5752 187.96 52.013 188.085Z" fill="#FFF5F5"/>
<g opacity="0.3" filter="url(#filter1_f_104_158)">
<mask id="path-95-outside-1_104_158" maskUnits="userSpaceOnUse" x="84.8087" y="262.841" width="128.752" height="77.8601" fill="black">
<rect fill="white" x="84.8087" y="262.841" width="128.752" height="77.8601"/>
<path fill-rule="evenodd" clip-rule="evenodd" d="M90.7653 272.528C90.7351 272.707 90.7063 272.887 90.6787 273.067C86.852 298.094 109.86 324.334 142.068 331.675C174.276 339.017 203.487 324.68 207.314 299.653C208.176 294.015 207.676 288.315 206.016 282.784L90.7653 272.528Z"/>
</mask>
<path d="M90.6787 273.067L94.6327 273.671L94.6327 273.671L90.6787 273.067ZM90.7653 272.528L91.1199 268.543L87.4356 268.216L86.8209 271.863L90.7653 272.528ZM142.068 331.675L141.179 335.575L141.179 335.575L142.068 331.675ZM207.314 299.653L211.268 300.257L211.268 300.257L207.314 299.653ZM206.016 282.784L209.847 281.634L209.069 279.04L206.371 278.799L206.016 282.784ZM94.6327 273.671C94.6572 273.511 94.6829 273.352 94.7097 273.192L86.8209 271.863C86.7874 272.062 86.7553 272.262 86.7246 272.462L94.6327 273.671ZM142.957 327.775C127.633 324.282 114.585 316.307 105.868 306.366C97.138 296.41 92.9407 284.737 94.6327 273.671L86.7246 272.462C84.59 286.423 89.9831 300.384 99.8525 311.64C109.735 322.911 124.294 331.726 141.179 335.575L142.957 327.775ZM203.36 299.048C201.679 310.044 194.423 318.886 183.571 324.211C172.687 329.553 158.284 331.269 142.957 327.775L141.179 335.575C158.06 339.423 174.366 337.641 187.096 331.393C199.859 325.129 209.123 314.289 211.268 300.257L203.36 299.048ZM202.185 283.934C203.69 288.948 204.125 294.047 203.36 299.048L211.268 300.257C212.228 293.982 211.663 287.683 209.847 281.634L202.185 283.934ZM206.371 278.799L91.1199 268.543L90.4108 276.512L205.662 286.768L206.371 278.799Z" fill="white" mask="url(#path-95-outside-1_104_158)"/>
<path fill-rule="evenodd" clip-rule="evenodd" d="M90.7653 272.528C90.7351 272.707 90.7063 272.887 90.6787 273.067C86.852 298.094 109.86 324.334 142.068 331.675C174.276 339.017 203.487 324.68 207.314 299.653C208.176 294.015 207.676 288.315 206.016 282.784L90.7653 272.528Z" fill="white"/>
</g>
<g opacity="0.3" filter="url(#filter2_f_104_158)">
<ellipse cx="108.397" cy="204.865" rx="33.5249" ry="50.2873" transform="rotate(-1 108.397 204.865)" fill="white"/>
<path d="M109.31 257.144C119.443 256.967 128.264 250.65 134.403 241.084C140.552 231.504 144.165 218.469 143.917 204.245C143.669 190.02 139.602 177.12 133.123 167.759C126.654 158.413 117.618 152.408 107.485 152.585C97.352 152.762 88.5307 159.079 82.3916 168.645C76.2433 178.225 72.6297 191.26 72.8779 205.485C73.1262 219.709 77.1926 232.609 83.6715 241.97C90.1407 251.316 99.1771 257.321 109.31 257.144Z" stroke="white" stroke-width="4"/>
</g>
<g opacity="0.3" filter="url(#filter3_f_104_158)">
<ellipse cx="189.398" cy="204.865" rx="33.5249" ry="50.2873" transform="rotate(1 189.398 204.865)" fill="white"/>
<path d="M188.485 257.144C198.618 257.321 207.654 251.316 214.123 241.97C220.602 232.61 224.669 219.709 224.917 205.485C225.165 191.261 221.552 178.226 215.403 168.645C209.264 159.079 200.443 152.762 190.31 152.585C180.177 152.409 171.141 158.413 164.672 167.76C158.193 177.12 154.126 190.021 153.878 204.245C153.63 218.469 157.243 231.504 163.392 241.084C169.531 250.651 178.352 256.967 188.485 257.144Z" stroke="white" stroke-width="4"/>
</g>
<mask id="path-102-outside-2_104_158" maskUnits="userSpaceOnUse" x="84.2121" y="262.842" width="128.752" height="77.8601" fill="black">
<rect fill="white" x="84.2121" y="262.842" width="128.752" height="77.8601"/>
<path fill-rule="evenodd" clip-rule="evenodd" d="M90.1686 272.529C90.1385 272.708 90.1096 272.888 90.082 273.068C86.2553 298.095 109.263 324.335 141.471 331.676C173.679 339.018 202.891 324.681 206.717 299.654C207.58 294.016 207.08 288.316 205.42 282.785L90.1686 272.529Z"/>
</mask>
<path d="M90.082 273.068L94.0361 273.672L94.0361 273.672L90.082 273.068ZM90.1686 272.529L90.5232 268.544L86.8389 268.217L86.2243 271.864L90.1686 272.529ZM141.471 331.676L140.582 335.576L140.582 335.576L141.471 331.676ZM206.717 299.654L210.671 300.258L210.671 300.258L206.717 299.654ZM205.42 282.785L209.251 281.635L208.472 279.041L205.774 278.8L205.42 282.785ZM94.0361 273.672C94.0606 273.512 94.0862 273.353 94.113 273.193L86.2243 271.864C86.1907 272.063 86.1586 272.263 86.128 272.463L94.0361 273.672ZM142.36 327.776C127.036 324.283 113.988 316.308 105.271 306.367C96.5414 296.411 92.3441 284.738 94.0361 273.672L86.128 272.463C83.9933 286.424 89.3864 300.385 99.2559 311.641C109.138 322.912 123.697 331.727 140.582 335.576L142.36 327.776ZM202.763 299.049C201.082 310.045 193.826 318.887 182.975 324.212C172.091 329.554 157.687 331.27 142.36 327.776L140.582 335.576C157.463 339.424 173.769 337.642 186.499 331.394C199.263 325.13 208.526 314.29 210.671 300.258L202.763 299.049ZM201.588 283.935C203.093 288.949 203.528 294.048 202.763 299.049L210.671 300.258C211.631 293.983 211.066 287.683 209.251 281.635L201.588 283.935ZM205.774 278.8L90.5232 268.544L89.8141 276.513L205.065 286.769L205.774 278.8Z" fill="#272B42" mask="url(#path-102-outside-2_104_158)"/>
<path fill-rule="evenodd" clip-rule="evenodd" d="M90.1686 272.529C90.1385 272.708 90.1096 272.888 90.082 273.068C86.2553 298.095 109.263 324.335 141.471 331.676C173.679 339.018 202.891 324.681 206.717 299.654C207.58 294.016 207.08 288.316 205.42 282.785L90.1686 272.529Z" fill="#272B42"/>
<path fill-rule="evenodd" clip-rule="evenodd" d="M206.918 298.265L90.8479 287.936C89.635 283.037 89.3391 278.028 90.0976 273.067C90.1252 272.887 90.1541 272.707 90.1843 272.528L205.435 282.784C206.959 287.862 207.505 293.081 206.918 298.265Z" fill="white"/>
<path fill-rule="evenodd" clip-rule="evenodd" d="M189.298 325.53C182.773 317.737 168.236 312.671 151.567 313.322C138.702 313.824 127.369 317.622 120.156 323.135C126.691 326.916 134.042 329.856 141.946 331.657C159.979 335.768 177.073 333.083 189.298 325.53Z" fill="#272B42"/>
<g opacity="0.3" filter="url(#filter4_f_104_158)">
<ellipse cx="107.937" cy="204.757" rx="39.9296" ry="58.0688" transform="rotate(-1 107.937 204.757)" fill="white"/>
</g>
<path d="M108.744 256.967C118.876 256.79 127.698 250.474 133.837 240.907C139.985 231.327 143.599 218.292 143.35 204.068C143.102 189.844 139.036 176.943 132.557 167.583C126.088 158.236 117.051 152.232 106.918 152.408C96.7856 152.585 87.9643 158.902 81.8252 168.468C75.6769 178.049 72.0633 191.084 72.3115 205.308C72.5598 219.532 76.6262 232.433 83.105 241.793C89.5743 251.139 98.6107 257.144 108.744 256.967Z" fill="white" stroke="#272B42" stroke-width="4"/>
<path fill-rule="evenodd" clip-rule="evenodd" d="M78.9307 228.989C77.347 223.333 76.424 217.162 76.311 210.691C75.8263 182.922 90.4407 160.149 108.953 159.826C121.57 159.605 132.742 169.87 138.731 185.221C133.519 166.607 121.151 153.578 106.953 153.826C88.4407 154.149 73.8263 176.922 74.311 204.691C74.4654 213.533 76.1323 221.817 78.9307 228.989Z" fill="#D3D2D3"/>
<ellipse cx="116.556" cy="209.609" rx="13.7622" ry="20.6433" transform="rotate(-2 116.556 209.609)" fill="#272B42"/>
<ellipse cx="110.1" cy="192.315" rx="4.70114" ry="7.05171" transform="rotate(-2 110.1 192.315)" fill="white"/>
<ellipse cx="110.1" cy="192.315" rx="4.70114" ry="7.05171" transform="rotate(-2 110.1 192.315)" fill="white"/>
<path d="M188.485 257.144C198.618 257.321 207.654 251.316 214.123 241.97C220.602 232.61 224.669 219.709 224.917 205.485C225.165 191.261 221.552 178.226 215.403 168.645C209.264 159.079 200.443 152.762 190.31 152.585C180.177 152.409 171.141 158.413 164.672 167.76C158.193 177.12 154.126 190.021 153.878 204.245C153.63 218.469 157.243 231.504 163.392 241.084C169.531 250.651 178.352 256.967 188.485 257.144Z" fill="white" stroke="#272B42" stroke-width="4"/>
<path fill-rule="evenodd" clip-rule="evenodd" d="M218.088 230.167C220.887 222.899 222.554 214.506 222.708 205.545C223.193 177.407 208.578 154.331 190.066 154.004C175.868 153.752 163.5 166.955 158.288 185.817C164.277 170.262 175.449 159.86 188.066 160.083C206.578 160.411 221.193 183.487 220.708 211.625C220.595 218.182 219.672 224.436 218.088 230.167Z" fill="#D3D2D3"/>
<ellipse cx="180.617" cy="209.787" rx="13.7622" ry="20.6433" transform="rotate(2 180.617 209.787)" fill="#272B42"/>
<ellipse cx="186.495" cy="192.493" rx="4.70114" ry="7.05171" transform="rotate(2 186.495 192.493)" fill="white"/>
<ellipse cx="186.495" cy="192.493" rx="4.70114" ry="7.05171" transform="rotate(2 186.495 192.493)" fill="white"/>
</g>
<path d="M46 92.1143H252V304.114C252 332.833 228.719 356.114 200 356.114H98C69.2812 356.114 46 332.833 46 304.114V92.1143Z" stroke="#272B42" stroke-width="4"/>
<g filter="url(#filter5_d_104_158)">
<path fill-rule="evenodd" clip-rule="evenodd" d="M286.888 142.033C283.42 147.699 278.048 151.94 271.738 153.99C276.754 156.788 280.785 161.07 283.28 166.252C285.782 171.45 286.615 177.297 285.664 182.989C284.713 188.681 282.025 193.938 277.97 198.036C273.915 202.133 268.693 204.87 263.022 205.87C265.012 209.673 266.019 213.916 265.951 218.211C265.883 222.505 264.742 226.714 262.633 230.452C260.523 234.191 257.513 237.34 253.876 239.611C253.265 239.993 252.639 240.348 252 240.676V205.114C252 199.892 248.664 195.449 244.006 193.799C237.168 186.16 231.632 173.8 233.037 155.855C217.783 153.275 214.017 144.232 214.017 133.982C214.024 133.189 214.081 132.396 214.19 131.61C210.868 134.201 206.857 135.749 202.659 136.059C198.462 136.369 194.267 135.427 190.603 133.352C186.939 131.276 183.97 128.161 182.069 124.397C180.169 120.634 179.422 116.391 179.923 112.202C177.354 113.581 174.532 114.419 171.628 114.664C168.725 114.91 165.802 114.557 163.039 113.629C160.277 112.701 157.733 111.216 155.563 109.266C153.394 107.316 151.646 104.942 150.426 102.29C150.253 101.918 149.977 101.603 149.632 101.382C149.286 101.161 148.885 101.043 148.475 101.043C148.065 101.043 147.664 101.161 147.318 101.382C146.973 101.603 146.697 101.918 146.524 102.29C145.304 104.942 143.556 107.316 141.386 109.266C139.217 111.216 136.673 112.701 133.911 113.629C131.148 114.557 128.225 114.91 125.322 114.664C122.418 114.419 119.595 113.581 117.027 112.202C117.546 116.396 116.81 120.65 114.914 124.424C113.018 128.198 110.046 131.323 106.375 133.402C102.704 135.481 98.5003 136.421 94.2961 136.102C90.0918 135.783 86.0769 134.219 82.7603 131.61C82.8686 132.396 82.9261 133.189 82.9324 133.982C82.9324 144.232 79.1673 153.275 63.913 155.855C65.3227 173.482 59.9606 185.757 53.2739 193.425C47.9598 194.66 44 199.425 44 205.114V240.191C43.6927 240.016 43.3886 239.835 43.0881 239.647C39.4515 237.375 36.4409 234.227 34.3316 230.488C32.2223 226.75 31.0815 222.541 31.0135 218.247C30.9455 213.952 31.9524 209.709 33.9423 205.906C28.2712 204.906 23.0487 202.169 18.9937 198.072C14.9388 193.974 12.2509 188.717 11.3001 183.025C10.3492 177.333 11.1822 171.486 13.6843 166.288C16.1865 161.09 20.2347 156.797 25.2717 154.001C18.9581 151.951 13.5821 147.71 10.1118 142.04C6.64152 136.37 5.30495 129.645 6.34279 123.075C7.38064 116.505 10.7247 110.523 15.7728 106.205C20.8209 101.887 27.2413 99.5174 33.8778 99.5228C34.7312 99.5228 35.5775 99.5731 36.4166 99.6522C33.0679 95.0749 31.1915 89.5829 31.0379 83.9091C30.8842 78.2353 32.4606 72.6494 35.5566 67.8968C38.6526 63.1442 43.121 59.4509 48.3657 57.3097C53.6103 55.1685 59.3818 54.6813 64.9099 55.913C63.7124 50.1389 64.3709 44.133 66.791 38.7574C69.2111 33.3818 73.2683 28.913 78.3802 25.9923C83.4921 23.0717 89.3958 21.8494 95.2439 22.501C101.092 23.1526 106.584 25.6446 110.931 29.6192C114.34 22.5696 119.663 16.6256 126.288 12.4684C132.913 8.31121 140.573 6.10902 148.389 6.11428H148.59C156.406 6.10902 164.066 8.31121 170.691 12.4684C177.316 16.6256 182.638 22.5696 186.048 29.6192C190.396 25.6496 195.887 23.1619 201.733 22.5129C207.579 21.8639 213.48 23.0868 218.59 26.0063C223.7 28.9259 227.757 33.3921 230.178 38.7646C232.599 44.1372 233.261 50.1402 232.069 55.913C237.597 54.677 243.37 55.1607 248.618 57.2994C253.865 59.4381 258.336 63.1302 261.435 67.8826C264.534 72.6351 266.112 78.2219 265.96 83.8971C265.808 89.5724 263.932 95.0662 260.583 99.645C261.423 99.5659 262.269 99.5156 263.122 99.5156C269.759 99.5102 276.179 101.88 281.227 106.198C286.275 110.516 289.619 116.498 290.657 123.068C291.695 129.638 290.358 136.363 286.888 142.033Z" fill="#272B42"/>
</g>
<path fill-rule="evenodd" clip-rule="evenodd" d="M74.1031 54.9218C75.2071 43.2477 85.0369 34.1143 97 34.1143C99.5752 34.1143 102.052 34.5375 104.363 35.3182C101.034 32.0967 96.4986 30.1143 91.5 30.1143C81.2827 30.1143 73 38.397 73 48.6143C73 50.8293 73.3893 52.9534 74.1031 54.9218Z" fill="#4BEC78"/>
<path fill-rule="evenodd" clip-rule="evenodd" d="M223.485 55.022C223.301 52.5888 222.724 50.1435 221.719 47.7725C217.049 36.7586 204.803 31.2739 193.625 34.8145C195.158 33.3889 196.962 32.2014 199.001 31.3368C208.408 27.3484 219.266 31.7408 223.255 41.1474C225.206 45.7496 225.151 50.6993 223.485 55.022Z" fill="#F54B4B"/>
<path fill-rule="evenodd" clip-rule="evenodd" d="M274.42 143.389C278.486 141.169 281.728 137.429 283.216 132.657C286.257 122.903 280.814 112.53 271.06 109.49C268.945 108.83 266.802 108.57 264.71 108.666C275.527 113.194 281.321 125.296 277.761 136.717C276.994 139.176 275.853 141.414 274.42 143.389Z" fill="#3AE2F8"/>
<path fill-rule="evenodd" clip-rule="evenodd" d="M266.431 196.169C270.909 194.98 274.948 192.119 277.528 187.838C282.801 179.087 279.982 167.717 271.231 162.444C269.334 161.3 267.314 160.537 265.26 160.133C274.689 167.104 277.438 180.237 271.263 190.484C269.934 192.689 268.293 194.592 266.431 196.169Z" fill="#7D6AF7"/>
<path fill-rule="evenodd" clip-rule="evenodd" d="M231.167 65.8365C242.893 65.699 253.015 74.5073 254.281 86.4032C254.553 88.9639 254.395 91.471 253.863 93.8523C256.714 90.201 258.205 85.4813 257.676 80.5109C256.595 70.351 247.483 62.9911 237.323 64.0722C235.12 64.3065 233.049 64.9184 231.167 65.8365Z" fill="#4BEC78"/>
<path fill-rule="evenodd" clip-rule="evenodd" d="M173.685 31.8136C171.232 29.3982 168.377 27.1995 165.167 25.3273C150.255 16.6303 132.988 18.0804 125.204 28.2655C125.394 25.8938 126.075 23.6117 127.291 21.527C132.899 11.9105 147.771 10.1362 160.507 17.5641C166.738 21.198 171.303 26.3612 173.685 31.8136Z" fill="#EF4ACB"/>
<path fill-rule="evenodd" clip-rule="evenodd" d="M66.6427 66.1846C64.2076 66.0281 61.706 66.2595 59.2183 66.9252C47.662 70.018 40.5276 81.3821 42.4791 92.9447C41.2807 91.2277 40.3555 89.2765 39.7829 87.1369C37.1415 77.267 43.0013 67.1245 52.8713 64.4831C57.6999 63.1909 62.5938 63.9333 66.6427 66.1846Z" fill="#7D6AF7"/>
<path fill-rule="evenodd" clip-rule="evenodd" d="M23.304 144.095C15.8393 135.051 16.3458 121.643 24.8139 113.193C26.6367 111.374 28.6885 109.924 30.8764 108.844C26.2443 108.915 21.6335 110.716 18.0953 114.246C10.8631 121.463 10.8508 133.177 18.0679 140.409C19.6325 141.977 21.4083 143.206 23.304 144.095Z" fill="#F54B4B"/>
<path fill-rule="evenodd" clip-rule="evenodd" d="M31.7213 197.208C22.3483 190.162 19.7043 177.007 25.9607 166.81C27.3074 164.616 28.9632 162.726 30.8376 161.164C26.3508 162.317 22.2892 165.146 19.6751 169.406C14.3317 178.115 17.0598 189.507 25.7684 194.85C27.6563 196.008 29.6702 196.787 31.7213 197.208Z" fill="#EF4ACB"/>
<path fill-rule="evenodd" clip-rule="evenodd" d="M85.1039 94.9605C84.8816 83.2364 93.6163 73.0507 105.503 71.6987C108.061 71.4077 110.57 71.5484 112.955 72.0628C109.283 69.2383 104.552 67.7812 99.586 68.3461C89.4342 69.5008 82.1405 78.6665 83.2952 88.8183C83.5455 91.019 84.1723 93.0854 85.1039 94.9605Z" fill="#EF4ACB"/>
<path fill-rule="evenodd" clip-rule="evenodd" d="M70.4933 118.449C68.0582 118.293 65.5566 118.524 63.0689 119.19C51.5126 122.283 44.3781 133.647 46.3297 145.209C45.1312 143.492 44.2061 141.541 43.6335 139.402C40.9921 129.532 46.8519 119.389 56.7219 116.748C61.5505 115.456 66.4444 116.198 70.4933 118.449Z" fill="#3AE2F8"/>
<path fill-rule="evenodd" clip-rule="evenodd" d="M133.01 70.0101C141.735 62.1748 155.153 62.1221 163.949 70.2306C165.842 71.976 167.376 73.9655 168.546 76.1064C168.282 71.4813 166.291 66.9497 162.616 63.5618C155.103 56.6366 143.4 57.1125 136.474 64.6248C134.973 66.2533 133.82 68.0789 133.01 70.0101Z" fill="#3AE2F8"/>
<path fill-rule="evenodd" clip-rule="evenodd" d="M230.761 118.021C242.309 120.056 250.626 130.586 249.668 142.51C249.462 145.077 248.842 147.512 247.879 149.754C251.357 146.693 253.696 142.331 254.096 137.348C254.914 127.164 247.32 118.245 237.136 117.427C234.928 117.249 232.78 117.467 230.761 118.021Z" fill="#F54B4B"/>
<path d="M176.281 91.7457L206.446 48.9542L211.795 52.725L181.63 95.5165L186.979 99.2871L217.144 56.4954L222.493 60.2661L192.328 103.058L197.677 106.828L227.842 64.0367L233.191 67.8073L203.026 110.599L208.375 114.37L238.539 71.5779L243.889 75.3487L213.724 118.14L219.072 121.911L253.008 73.7704C255.526 70.1984 256.502 65.8598 255.757 61.5537C255.012 57.2476 252.634 53.4892 249.062 50.9715L248.059 50.2644L253.423 42.6549C255.57 39.6089 258.735 37.3954 262.332 36.4218C266.263 35.3582 269.537 32.6496 271.316 28.9904C273.078 25.3639 273.187 21.1612 271.615 17.4601C270.04 13.7522 267.234 10.4013 263.502 7.77045C259.65 5.05501 255.425 3.53243 251.285 3.36754C250.317 3.32906 249.354 3.39419 248.413 3.55709C245.544 4.05373 242.868 5.45874 240.806 7.60342C238.013 10.5073 236.593 14.4777 236.91 18.4972C237.203 22.2141 236.182 25.9392 234.034 28.9865L228.67 36.5957L227.667 35.8886C220.293 30.6911 210.065 32.461 204.868 39.8345L170.932 87.975L176.281 91.7457ZM253.286 16.5831L258.635 20.3537L254.864 25.7026L249.515 21.932L253.286 16.5831Z" fill="#F5CA32"/>
<rect x="215.576" y="119.354" width="49.4133" height="54.3633" transform="rotate(-144.989 215.576 119.354)" fill="#272B42"/>
<path d="M179.864 91.793L175.76 88.8785L206.233 45.7093L210.057 48.9994L179.864 91.793Z" fill="#F5CA32"/>
<path d="M198.767 105.494L192.529 101.074L223.788 56.8008L229.734 61.6031L198.767 105.494Z" fill="#F5CA32"/>
<path d="M218.066 119.806L211.828 115.385L243.087 71.1123L249.033 75.9147L218.066 119.806Z" fill="#F5CA32"/>
<circle cx="183.378" cy="84.3072" r="13.2047" fill="#272B42"/>
<circle cx="198.106" cy="104.114" r="11.6811" fill="#272B42"/>
<circle cx="216.39" cy="111.224" r="11.6811" fill="#272B42"/>
<defs>
<filter id="filter0_d_104_158" x="22.8447" y="147.438" width="60.1968" height="46.9062" filterUnits="userSpaceOnUse" color-interpolation-filters="sRGB">
<feFlood flood-opacity="0" result="BackgroundImageFix"/>
<feColorMatrix in="SourceAlpha" type="matrix" values="0 0 0 0 0 0 0 0 0 0 0 0 0 0 0 0 0 0 127 0" result="hardAlpha"/>
<feOffset dy="4"/>
<feGaussianBlur stdDeviation="2"/>
<feComposite in2="hardAlpha" operator="out"/>
<feColorMatrix type="matrix" values="0 0 0 0 0 0 0 0 0 0 0 0 0 0 0 0 0 0 0.25 0"/>
<feBlend mode="normal" in2="BackgroundImageFix" result="effect1_dropShadow_104_158"/>
<feBlend mode="normal" in="SourceGraphic" in2="effect1_dropShadow_104_158" result="shape"/>
</filter>
<filter id="filter1_f_104_158" x="74.2617" y="256.216" width="149.468" height="93.3809" filterUnits="userSpaceOnUse" color-interpolation-filters="sRGB">
<feFlood flood-opacity="0" result="BackgroundImageFix"/>
<feBlend mode="normal" in="SourceGraphic" in2="BackgroundImageFix" result="shape"/>
<feGaussianBlur stdDeviation="6" result="effect1_foregroundBlur_104_158"/>
</filter>
<filter id="filter2_f_104_158" x="58.8657" y="138.581" width="99.063" height="132.566" filterUnits="userSpaceOnUse" color-interpolation-filters="sRGB">
<feFlood flood-opacity="0" result="BackgroundImageFix"/>
<feBlend mode="normal" in="SourceGraphic" in2="BackgroundImageFix" result="shape"/>
<feGaussianBlur stdDeviation="6" result="effect1_foregroundBlur_104_158"/>
</filter>
<filter id="filter3_f_104_158" x="139.866" y="138.582" width="99.063" height="132.566" filterUnits="userSpaceOnUse" color-interpolation-filters="sRGB">
<feFlood flood-opacity="0" result="BackgroundImageFix"/>
<feBlend mode="normal" in="SourceGraphic" in2="BackgroundImageFix" result="shape"/>
<feGaussianBlur stdDeviation="6" result="effect1_foregroundBlur_104_158"/>
</filter>
<filter id="filter4_f_104_158" x="56.0005" y="134.692" width="103.873" height="140.129" filterUnits="userSpaceOnUse" color-interpolation-filters="sRGB">
<feFlood flood-opacity="0" result="BackgroundImageFix"/>
<feBlend mode="normal" in="SourceGraphic" in2="BackgroundImageFix" result="shape"/>
<feGaussianBlur stdDeviation="6" result="effect1_foregroundBlur_104_158"/>
</filter>
<filter id="filter5_d_104_158" x="0" y="4.11426" width="297" height="246.562" filterUnits="userSpaceOnUse" color-interpolation-filters="sRGB">
<feFlood flood-opacity="0" result="BackgroundImageFix"/>
<feColorMatrix in="SourceAlpha" type="matrix" values="0 0 0 0 0 0 0 0 0 0 0 0 0 0 0 0 0 0 127 0" result="hardAlpha"/>
<feOffset dy="4"/>
<feGaussianBlur stdDeviation="3"/>
<feComposite in2="hardAlpha" operator="out"/>
<feColorMatrix type="matrix" values="0 0 0 0 0 0 0 0 0 0 0 0 0 0 0 0 0 0 0.4 0"/>
<feBlend mode="normal" in2="BackgroundImageFix" result="effect1_dropShadow_104_158"/>
<feBlend mode="normal" in="SourceGraphic" in2="effect1_dropShadow_104_158" result="shape"/>
</filter>
<linearGradient id="paint0_linear_104_158" x1="244" y1="240.614" x2="233" y2="240.614" gradientUnits="userSpaceOnUse">
<stop stop-color="white"/>
<stop offset="1" stop-color="white" stop-opacity="0"/>
</linearGradient>
<linearGradient id="paint1_linear_104_158" x1="11" y1="99.5" x2="9.94183e-08" y2="99.5" gradientUnits="userSpaceOnUse">
<stop stop-color="white"/>
<stop offset="1" stop-color="white" stop-opacity="0"/>
</linearGradient>
<linearGradient id="paint2_linear_104_158" x1="12.65" y1="99.5" x2="1.14334e-07" y2="99.5" gradientUnits="userSpaceOnUse">
<stop stop-color="white"/>
<stop offset="1" stop-color="white" stop-opacity="0"/>
</linearGradient>
<clipPath id="clip0_104_158">
<path d="M44 90.1143H254V304.114C254 333.938 229.823 358.114 200 358.114H98C68.1766 358.114 44 333.938 44 304.114V90.1143Z" fill="white"/>
</clipPath>
</defs>
</svg>
