<svg width="18" height="16" viewBox="0 0 18 16" fill="none" xmlns="http://www.w3.org/2000/svg">
<path d="M2.8125 6.5625H0.5625C0.246094 6.5625 0 6.84375 0 7.125V9.375C0 9.69141 0.246094 9.9375 0.5625 9.9375H2.8125C3.09375 9.9375 3.375 9.69141 3.375 9.375V7.125C3.375 6.84375 3.09375 6.5625 2.8125 6.5625ZM2.8125 12.1875H0.5625C0.246094 12.1875 0 12.4688 0 12.75V15C0 15.3164 0.246094 15.5625 0.5625 15.5625H2.8125C3.09375 15.5625 3.375 15.3164 3.375 15V12.75C3.375 12.4688 3.09375 12.1875 2.8125 12.1875ZM2.8125 0.9375H0.5625C0.246094 0.9375 0 1.21875 0 1.5V3.75C0 4.06641 0.246094 4.3125 0.5625 4.3125H2.8125C3.09375 4.3125 3.375 4.06641 3.375 3.75V1.5C3.375 1.21875 3.09375 0.9375 2.8125 0.9375ZM17.1562 7.40625H6.43359C5.97656 7.40625 5.625 7.79297 5.625 8.25C5.625 8.74219 5.97656 9.09375 6.43359 9.09375H17.1562C17.6133 9.09375 18 8.74219 18 8.25C18 7.79297 17.6133 7.40625 17.1562 7.40625ZM17.1562 1.78125H6.43359C5.97656 1.78125 5.625 2.16797 5.625 2.625C5.625 3.04688 5.97656 3.46875 6.43359 3.46875H17.1562C17.6133 3.46875 18 3.11719 18 2.66016C18 2.23828 17.6133 1.78125 17.1562 1.78125ZM17.1562 13.0312H6.43359C5.97656 13.0312 5.625 13.418 5.625 13.875C5.625 14.3672 5.97656 14.7188 6.43359 14.7188H17.1562C17.6133 14.7188 18 14.3672 18 13.875C18 13.418 17.6133 13.0312 17.1562 13.0312Z" fill="#23262F"/>
</svg>
