<svg width="112" height="112" viewBox="0 0 112 112" fill="none" xmlns="http://www.w3.org/2000/svg">
<path d="M22.0843 96.6764C28.6806 96.6764 34.0279 91.329 34.0279 84.7327C34.0279 78.1364 28.6806 72.7891 22.0843 72.7891C15.488 72.7891 10.1406 78.1364 10.1406 84.7327C10.1406 91.329 15.488 96.6764 22.0843 96.6764Z" fill="#909BA6"/>
<path d="M98.9287 86.0839C104.654 86.0839 109.295 81.4428 109.295 75.7178C109.295 69.9927 104.654 65.3516 98.9287 65.3516C93.2036 65.3516 88.5625 69.9927 88.5625 75.7178C88.5625 81.4428 93.2036 86.0839 98.9287 86.0839Z" fill="#C8D2DC"/>
<path d="M89.4696 33.8025C94.199 33.8025 98.033 29.9686 98.033 25.2392C98.033 20.5097 94.199 16.6758 89.4696 16.6758C84.7402 16.6758 80.9062 20.5097 80.9062 25.2392C80.9062 29.9686 84.7402 33.8025 89.4696 33.8025Z" fill="#E9EDF1"/>
<path d="M12.6749 67.521C19.6751 67.521 25.3498 61.9846 25.3498 55.155C25.3498 48.3255 19.6751 42.7891 12.6749 42.7891C5.67475 42.7891 0 48.3255 0 55.155C0 61.9846 5.67475 67.521 12.6749 67.521Z" fill="#7E8B96"/>
<path d="M49.0852 111.999C55.449 111.999 60.6079 106.972 60.6079 100.771C60.6079 94.57 55.449 89.543 49.0852 89.543C42.7214 89.543 37.5625 94.57 37.5625 100.771C37.5625 106.972 42.7214 111.999 49.0852 111.999Z" fill="#A2ABB8"/>
<path d="M78.6965 107.083C84.742 107.083 89.6429 102.311 89.6429 96.4241C89.6429 90.5376 84.742 85.7656 78.6965 85.7656C72.6509 85.7656 67.75 90.5376 67.75 96.4241C67.75 102.311 72.6509 107.083 78.6965 107.083Z" fill="#B9C3CD"/>
<path d="M26.3837 38.8026C33.702 38.8026 39.6347 33.0117 39.6347 25.8681C39.6347 18.7246 33.702 12.9336 26.3837 12.9336C19.0655 12.9336 13.1328 18.7246 13.1328 25.8681C13.1328 33.0117 19.0655 38.8026 26.3837 38.8026Z" fill="#5F6C75"/>
<path d="M102.208 58.3971C107.618 58.3971 112.003 54.0934 112.003 48.7845C112.003 43.4756 107.618 39.1719 102.208 39.1719C96.7991 39.1719 92.4141 43.4756 92.4141 48.7845C92.4141 54.0934 96.7991 58.3971 102.208 58.3971Z" fill="#DCE6EB"/>
<path d="M59.2687 27.9436C66.9851 27.9436 73.2405 21.6882 73.2405 13.9718C73.2405 6.2554 66.9851 0 59.2687 0C51.5523 0 45.2969 6.2554 45.2969 13.9718C45.2969 21.6882 51.5523 27.9436 59.2687 27.9436Z" fill="#4E5A61"/>
</svg>
