<svg width="18" height="17" viewBox="0 0 18 17" fill="none" xmlns="http://www.w3.org/2000/svg">
<path d="M15.3281 0.375C12.1289 0.375 9.42188 2.76562 8.47266 6.07031C7.17188 3.99609 5.0625 2.625 2.63672 2.625H0V3.46875C0 7.96875 3.19922 11.625 7.17188 11.625H8.15625V15.2812C8.15625 15.7734 8.50781 16.125 8.96484 16.125C9.38672 16.125 9.84375 15.7734 9.84375 15.2812V9.375H10.793C14.7656 9.375 18 5.71875 18 1.21875V0.375H15.3281ZM7.17188 9.9375C4.39453 9.9375 2.07422 7.51172 1.72266 4.3125H2.63672C5.41406 4.3125 7.73438 6.77344 8.08594 9.9375H7.17188ZM10.793 7.6875H9.87891C10.2305 4.52344 12.5508 2.0625 15.3281 2.0625H16.2422C15.8906 5.26172 13.5703 7.6875 10.793 7.6875Z" fill="#FCFCFD"/>
</svg>
