<svg width="16" height="16" viewBox="0 0 16 16" fill="none" xmlns="http://www.w3.org/2000/svg">
<path d="M8.31641 7.6875L2.12891 1.21875C1.8125 0.867188 1.28516 0.867188 0.933594 1.18359C0.757812 1.35938 0.6875 1.57031 0.6875 1.78125C0.6875 1.99219 0.757812 2.20312 0.898438 2.37891L6.52344 8.25L0.898438 14.1562C0.582031 14.4727 0.582031 15.0352 0.933594 15.3516C1.28516 15.668 1.8125 15.668 2.12891 15.3164L8.31641 8.84766C8.63281 8.53125 8.63281 8.00391 8.31641 7.6875ZM15.0664 7.6875L8.87891 1.21875C8.5625 0.867188 8.03516 0.867188 7.68359 1.18359C7.50781 1.35938 7.4375 1.57031 7.4375 1.78125C7.4375 1.99219 7.50781 2.20312 7.64844 2.37891L13.2734 8.25L7.64844 14.1562C7.33203 14.4727 7.33203 15.0352 7.68359 15.3516C8.03516 15.668 8.5625 15.668 8.87891 15.3164L15.0664 8.84766C15.3828 8.53125 15.3828 8.00391 15.0664 7.6875Z" fill="#F6FCFD"/>
</svg>
