<svg width="18" height="26" viewBox="0 0 18 26" fill="none" xmlns="http://www.w3.org/2000/svg">
<path d="M0.42334 7.67205C0.42334 7.11835 0.872198 6.66949 1.42589 6.66949H16.577C17.1307 6.66949 17.5795 7.11835 17.5795 7.67205V12.666C17.5795 17.4036 13.739 21.2441 9.00143 21.2441C4.26388 21.2441 0.42334 17.4036 0.42334 12.666V7.67205Z" fill="url(#paint0_linear_405_3839)"/>
<path fill-rule="evenodd" clip-rule="evenodd" d="M16.9005 16.018C15.5955 19.0905 12.5501 21.2452 9.00153 21.2452C4.26398 21.2452 0.423438 17.4047 0.423438 12.6671V9.05978C2.05274 8.16013 3.92599 7.64812 5.91884 7.64812C11.1628 7.64812 15.5788 11.1935 16.9005 16.018Z" fill="url(#paint1_linear_405_3839)"/>
<path fill-rule="evenodd" clip-rule="evenodd" d="M14.8494 18.9488C13.3172 20.3771 11.2614 21.2509 9.00153 21.2509C4.26398 21.2509 0.423438 17.4104 0.423438 12.6728V11.7558C1.87529 10.8479 3.59133 10.3231 5.42994 10.3231C10.3724 10.3231 14.4292 14.1153 14.8494 18.9488Z" fill="url(#paint2_linear_405_3839)"/>
<path fill-rule="evenodd" clip-rule="evenodd" d="M11.888 20.7925C11.7095 16.8331 8.45485 13.678 4.46601 13.678C3.07953 13.678 1.78176 14.0592 0.671038 14.7228C1.36167 17.5523 3.44357 19.8335 6.14747 20.7943V21.2738C6.14747 21.968 6.52042 22.5748 7.07618 22.9032V24.2089C7.07618 24.9046 7.63807 25.4685 8.33119 25.4685H9.69916C10.3923 25.4685 10.9542 24.9046 10.9542 24.2089V22.9032C11.5099 22.5748 11.8829 21.968 11.8829 21.2738V20.7943C11.8846 20.7937 11.8863 20.7931 11.888 20.7925Z" fill="url(#paint3_linear_405_3839)"/>
<path d="M3.62598 1.0632C3.62598 0.769546 3.86403 0.531494 4.15768 0.531494H5.59774C5.89139 0.531494 6.12945 0.769546 6.12945 1.0632V6.66944H3.62598V1.0632Z" fill="#031514"/>
<path d="M11.8096 1.0632C11.8096 0.769546 12.0476 0.531494 12.3413 0.531494H13.7813C14.075 0.531494 14.313 0.769546 14.313 1.0632V6.66944H11.8096V1.0632Z" fill="#031514"/>
<g filter="url(#filter0_i_405_3839)">
<path d="M4.72528 15.4034C4.66911 15.3924 4.61736 15.437 4.62148 15.4941C4.76678 17.509 6.67513 19.1038 9.00796 19.1038C11.3354 19.1038 13.2403 17.5164 13.3934 15.5081C13.3978 15.451 13.3462 15.4063 13.2899 15.4171C11.9341 15.6777 10.4768 15.9299 9.00796 15.9299C7.51318 15.9299 6.099 15.6728 4.72528 15.4034Z" fill="url(#paint4_linear_405_3839)"/>
</g>
<path d="M5.15143 15.7446C5.01689 15.7285 4.91393 15.8475 4.99444 15.9565C5.42184 16.5351 7.09255 17.1363 9.03631 17.1363C10.9737 17.1363 12.6159 16.5348 13.044 15.9577C13.1251 15.8484 13.0226 15.728 12.8873 15.743C11.8298 15.8601 11.5564 16.2141 9.03631 16.2141C6.39593 16.2141 6.15341 15.8646 5.15143 15.7446Z" fill="url(#paint5_linear_405_3839)"/>
<path d="M8.67732 11.5554C8.03192 12.7402 7.02311 13.9375 5.85764 13.9061C4.66719 13.9061 3.70215 12.8537 3.70215 11.5554C3.70215 10.2572 4.66719 9.20477 5.85764 9.20477C7.04808 9.20477 7.9254 10.2453 8.67732 11.5554Z" fill="url(#paint6_linear_405_3839)"/>
<circle cx="6.69845" cy="11.9508" r="0.566612" fill="#031514"/>
<circle cx="6.89622" cy="12.2035" r="0.191146" fill="white"/>
<path d="M8.68923 11.5785L3.71469 11.8353C3.70395 11.7414 3.69594 11.6975 3.69592 11.6286C3.68339 10.2444 4.65451 9.19208 5.8762 9.19208C7.0979 9.19208 8.05014 10.401 8.6767 11.5472C8.67144 11.5569 8.69454 11.5689 8.68923 11.5785Z" fill="#031514"/>
<path d="M9.31292 11.5589C9.95831 12.7201 10.9671 13.9369 12.1326 13.9062C13.323 13.9062 14.2881 12.8313 14.2881 11.5589C14.2881 10.2864 13.3293 9.20477 12.1389 9.20477C10.9484 9.20477 10.0648 10.2748 9.31292 11.5589Z" fill="url(#paint7_linear_405_3839)"/>
<circle cx="11.2976" cy="11.9508" r="0.566612" fill="#031514"/>
<circle cx="11.4953" cy="12.2035" r="0.191146" fill="white"/>
<path d="M9.30051 11.5785L14.2802 11.8353C14.2909 11.7414 14.2925 11.6975 14.2925 11.6286C14.3366 10.2694 13.3342 9.19208 12.1128 9.19208C10.8914 9.19208 9.93944 10.401 9.31304 11.5472C9.3183 11.5569 9.2952 11.5689 9.30051 11.5785Z" fill="#031514"/>
<g filter="url(#filter1_i_405_3839)">
<path d="M12.1033 8.61383C10.5867 8.61383 9.48286 10.1282 9.00146 10.9363C8.52006 10.1282 7.4162 8.61383 5.89964 8.61383C4.36894 8.61383 3.12402 9.93221 3.12402 11.5525C3.12402 13.1729 4.36894 14.4913 5.89964 14.4913C7.41602 14.4913 8.52006 12.9769 9.00146 12.1686C9.48286 12.9769 10.5867 14.4913 12.1033 14.4913C13.634 14.4913 14.8789 13.1729 14.8789 11.5525C14.8789 9.93221 13.634 8.61383 12.1033 8.61383ZM5.89964 13.9035C4.6933 13.9035 3.71177 12.8489 3.71177 11.5525C3.71177 10.2562 4.6933 9.20157 5.89964 9.20157C7.33282 9.20157 8.40618 11.0495 8.67195 11.5525C8.40618 12.0556 7.333 13.9035 5.89964 13.9035ZM12.1033 13.9035C10.6701 13.9035 9.59673 12.0556 9.33096 11.5525C9.59673 11.0495 10.6701 9.20157 12.1033 9.20157C13.3096 9.20157 14.2912 10.2562 14.2912 11.5525C14.2912 12.8489 13.3096 13.9035 12.1033 13.9035Z" fill="url(#paint8_linear_405_3839)"/>
</g>
<defs>
<filter id="filter0_i_405_3839" x="4.62109" y="15.4018" width="8.77246" height="3.70203" filterUnits="userSpaceOnUse" color-interpolation-filters="sRGB">
<feFlood flood-opacity="0" result="BackgroundImageFix"/>
<feBlend mode="normal" in="SourceGraphic" in2="BackgroundImageFix" result="shape"/>
<feColorMatrix in="SourceAlpha" type="matrix" values="0 0 0 0 0 0 0 0 0 0 0 0 0 0 0 0 0 0 127 0" result="hardAlpha"/>
<feOffset/>
<feGaussianBlur stdDeviation="0.15508"/>
<feComposite in2="hardAlpha" operator="arithmetic" k2="-1" k3="1"/>
<feColorMatrix type="matrix" values="0 0 0 0 0 0 0 0 0 0 0 0 0 0 0 0 0 0 0.64 0"/>
<feBlend mode="normal" in2="shape" result="effect1_innerShadow_405_3839"/>
</filter>
<filter id="filter1_i_405_3839" x="3.12402" y="8.61383" width="11.7549" height="5.87744" filterUnits="userSpaceOnUse" color-interpolation-filters="sRGB">
<feFlood flood-opacity="0" result="BackgroundImageFix"/>
<feBlend mode="normal" in="SourceGraphic" in2="BackgroundImageFix" result="shape"/>
<feColorMatrix in="SourceAlpha" type="matrix" values="0 0 0 0 0 0 0 0 0 0 0 0 0 0 0 0 0 0 127 0" result="hardAlpha"/>
<feOffset/>
<feGaussianBlur stdDeviation="0.15508"/>
<feComposite in2="hardAlpha" operator="arithmetic" k2="-1" k3="1"/>
<feColorMatrix type="matrix" values="0 0 0 0 0 0 0 0 0 0 0 0 0 0 0 0 0 0 0.64 0"/>
<feBlend mode="normal" in2="shape" result="effect1_innerShadow_405_3839"/>
</filter>
<linearGradient id="paint0_linear_405_3839" x1="11.8712" y1="12.0707" x2="18.0432" y2="5.89252" gradientUnits="userSpaceOnUse">
<stop stop-color="#46FF47"/>
<stop offset="1" stop-color="#9CFF9D"/>
</linearGradient>
<linearGradient id="paint1_linear_405_3839" x1="10.3799" y1="11.9422" x2="12.4754" y2="8.30826" gradientUnits="userSpaceOnUse">
<stop stop-color="#10D9ED"/>
<stop offset="1" stop-color="#10D9ED" stop-opacity="0.3"/>
</linearGradient>
<linearGradient id="paint2_linear_405_3839" x1="9.70322" y1="13.4907" x2="10.9059" y2="10.2908" gradientUnits="userSpaceOnUse">
<stop stop-color="#FA51D3"/>
<stop offset="0.958774" stop-color="#FA51D3" stop-opacity="0"/>
</linearGradient>
<linearGradient id="paint3_linear_405_3839" x1="6.79296" y1="18.4689" x2="8.7248" y2="13.3238" gradientUnits="userSpaceOnUse">
<stop stop-color="#FFE700"/>
<stop offset="1" stop-color="#FFE700" stop-opacity="0"/>
</linearGradient>
<linearGradient id="paint4_linear_405_3839" x1="8.99998" y1="17.036" x2="9.00767" y2="19.1038" gradientUnits="userSpaceOnUse">
<stop/>
<stop offset="1" stop-color="#353535"/>
</linearGradient>
<linearGradient id="paint5_linear_405_3839" x1="10.2109" y1="15.9207" x2="10.2109" y2="16.9233" gradientUnits="userSpaceOnUse">
<stop offset="0.75" stop-color="white"/>
<stop offset="1" stop-color="#DEDEDF"/>
</linearGradient>
<linearGradient id="paint6_linear_405_3839" x1="6.90694" y1="9.87054" x2="6.90693" y2="13.1993" gradientUnits="userSpaceOnUse">
<stop offset="0.75" stop-color="white"/>
<stop offset="1" stop-color="#DEDEDF"/>
</linearGradient>
<linearGradient id="paint7_linear_405_3839" x1="11.0833" y1="9.87054" x2="11.0833" y2="13.1993" gradientUnits="userSpaceOnUse">
<stop offset="0.75" stop-color="white"/>
<stop offset="1" stop-color="#DEDEDF"/>
</linearGradient>
<linearGradient id="paint8_linear_405_3839" x1="9.00146" y1="8.61383" x2="9.00146" y2="14.4913" gradientUnits="userSpaceOnUse">
<stop/>
<stop offset="1" stop-color="#3D3C3C"/>
</linearGradient>
</defs>
</svg>
