<svg width="20" height="26" viewBox="0 0 20 26" fill="none" xmlns="http://www.w3.org/2000/svg">
<path d="M1.42334 7.67199C1.42334 7.11829 1.8722 6.66943 2.42589 6.66943H17.577C18.1307 6.66943 18.5795 7.11829 18.5795 7.67199V12.666C18.5795 17.4035 14.739 21.244 10.0014 21.244C5.26388 21.244 1.42334 17.4035 1.42334 12.666V7.67199Z" fill="url(#paint0_linear_437_3903)"/>
<path fill-rule="evenodd" clip-rule="evenodd" d="M17.9004 16.0178C16.5954 19.0903 13.55 21.2451 10.0014 21.2451C5.26388 21.2451 1.42334 17.4045 1.42334 12.667V9.05961C3.05264 8.15996 4.92589 7.64795 6.91874 7.64795C12.1627 7.64795 16.5787 11.1933 17.9004 16.0178Z" fill="url(#paint1_linear_437_3903)"/>
<path fill-rule="evenodd" clip-rule="evenodd" d="M15.8493 18.9487C14.3171 20.3769 12.2613 21.2508 10.0014 21.2508C5.26388 21.2508 1.42334 17.4103 1.42334 12.6727V11.7557C2.8752 10.8478 4.59123 10.323 6.42984 10.323C11.3723 10.323 15.4291 14.1152 15.8493 18.9487Z" fill="url(#paint2_linear_437_3903)"/>
<path fill-rule="evenodd" clip-rule="evenodd" d="M12.8878 20.7925C12.7094 16.8331 9.45471 13.678 5.46587 13.678C4.07939 13.678 2.78162 14.0592 1.6709 14.7228C2.36153 17.5523 4.44343 19.8335 7.14733 20.7943V21.2738C7.14733 21.968 7.52028 22.5747 8.07604 22.9032V24.2089C8.07604 24.9046 8.63793 25.4685 9.33105 25.4685H10.699C11.3921 25.4685 11.954 24.9046 11.954 24.2089V22.9032C12.5098 22.5747 12.8827 21.968 12.8827 21.2738V20.7943C12.8844 20.7937 12.8861 20.7931 12.8878 20.7925Z" fill="url(#paint3_linear_437_3903)"/>
<path d="M4.62598 1.0632C4.62598 0.769546 4.86403 0.531494 5.15768 0.531494H6.59774C6.89139 0.531494 7.12945 0.769546 7.12945 1.0632V6.66944H4.62598V1.0632Z" fill="#031514"/>
<path d="M12.8096 1.0632C12.8096 0.769546 13.0476 0.531494 13.3413 0.531494H14.7813C15.075 0.531494 15.313 0.769546 15.313 1.0632V6.66944H12.8096V1.0632Z" fill="#031514"/>
<g filter="url(#filter0_i_437_3903)">
<path d="M5.72528 15.4034C5.66911 15.3924 5.61736 15.437 5.62148 15.4941C5.76678 17.509 7.67513 19.1038 10.008 19.1038C12.3354 19.1038 14.2403 17.5164 14.3934 15.5081C14.3978 15.451 14.3462 15.4063 14.2899 15.4171C12.9341 15.6777 11.4768 15.9299 10.008 15.9299C8.51318 15.9299 7.099 15.6728 5.72528 15.4034Z" fill="url(#paint4_linear_437_3903)"/>
</g>
<path d="M6.15143 15.7446C6.01689 15.7285 5.91393 15.8475 5.99444 15.9565C6.42184 16.5351 8.09255 17.1363 10.0363 17.1363C11.9737 17.1363 13.6159 16.5348 14.044 15.9577C14.1251 15.8484 14.0226 15.728 13.8873 15.743C12.8298 15.8601 12.5564 16.2141 10.0363 16.2141C7.39593 16.2141 7.15341 15.8646 6.15143 15.7446Z" fill="url(#paint5_linear_437_3903)"/>
<path d="M9.67732 11.5554C9.03192 12.7401 8.02311 13.9374 6.85764 13.9061C5.66719 13.9061 4.70215 12.8536 4.70215 11.5554C4.70215 10.2571 5.66719 9.20471 6.85764 9.20471C8.04808 9.20471 8.9254 10.2453 9.67732 11.5554Z" fill="url(#paint6_linear_437_3903)"/>
<circle cx="7.69845" cy="11.9508" r="0.566612" fill="#031514"/>
<circle cx="7.89622" cy="12.2034" r="0.191146" fill="white"/>
<path d="M9.68923 11.5785L4.71469 11.8353C4.70395 11.7413 4.69594 11.6975 4.69592 11.6286C4.68339 10.2443 5.65451 9.19202 6.8762 9.19202C8.0979 9.19202 9.05014 10.4009 9.6767 11.5471C9.67144 11.5568 9.69454 11.5688 9.68923 11.5785Z" fill="#031514"/>
<path d="M10.3129 11.5588C10.9583 12.72 11.9671 13.9368 13.1326 13.9061C14.323 13.9061 15.2881 12.8313 15.2881 11.5588C15.2881 10.2864 14.3293 9.20471 13.1389 9.20471C11.9484 9.20471 11.0648 10.2747 10.3129 11.5588Z" fill="url(#paint7_linear_437_3903)"/>
<circle cx="12.2976" cy="11.9508" r="0.566612" fill="#031514"/>
<circle cx="12.4953" cy="12.2034" r="0.191146" fill="white"/>
<path d="M10.3005 11.5785L15.2802 11.8353C15.2909 11.7413 15.2925 11.6975 15.2925 11.6286C15.3366 10.2694 14.3342 9.19202 13.1128 9.19202C11.8914 9.19202 10.9394 10.4009 10.313 11.5471C10.3183 11.5568 10.2952 11.5688 10.3005 11.5785Z" fill="#031514"/>
<g filter="url(#filter1_i_437_3903)">
<path d="M13.1033 8.61377C11.5867 8.61377 10.4829 10.1281 10.0015 10.9363C9.52006 10.1281 8.4162 8.61377 6.89964 8.61377C5.36894 8.61377 4.12402 9.93215 4.12402 11.5525C4.12402 13.1728 5.36894 14.4912 6.89964 14.4912C8.41602 14.4912 9.52006 12.9768 10.0015 12.1685C10.4829 12.9768 11.5867 14.4912 13.1033 14.4912C14.634 14.4912 15.8789 13.1728 15.8789 11.5525C15.8789 9.93215 14.634 8.61377 13.1033 8.61377ZM6.89964 13.9035C5.6933 13.9035 4.71177 12.8488 4.71177 11.5525C4.71177 10.2561 5.6933 9.20151 6.89964 9.20151C8.33282 9.20151 9.40618 11.0494 9.67195 11.5525C9.40618 12.0556 8.333 13.9035 6.89964 13.9035ZM13.1033 13.9035C11.6701 13.9035 10.5967 12.0556 10.331 11.5525C10.5967 11.0494 11.6701 9.20151 13.1033 9.20151C14.3096 9.20151 15.2912 10.2561 15.2912 11.5525C15.2912 12.8488 14.3096 13.9035 13.1033 13.9035Z" fill="url(#paint8_linear_437_3903)"/>
</g>
<defs>
<filter id="filter0_i_437_3903" x="5.62109" y="15.4017" width="8.77246" height="3.70203" filterUnits="userSpaceOnUse" color-interpolation-filters="sRGB">
<feFlood flood-opacity="0" result="BackgroundImageFix"/>
<feBlend mode="normal" in="SourceGraphic" in2="BackgroundImageFix" result="shape"/>
<feColorMatrix in="SourceAlpha" type="matrix" values="0 0 0 0 0 0 0 0 0 0 0 0 0 0 0 0 0 0 127 0" result="hardAlpha"/>
<feOffset/>
<feGaussianBlur stdDeviation="0.15508"/>
<feComposite in2="hardAlpha" operator="arithmetic" k2="-1" k3="1"/>
<feColorMatrix type="matrix" values="0 0 0 0 0 0 0 0 0 0 0 0 0 0 0 0 0 0 0.64 0"/>
<feBlend mode="normal" in2="shape" result="effect1_innerShadow_437_3903"/>
</filter>
<filter id="filter1_i_437_3903" x="4.12402" y="8.61377" width="11.7549" height="5.87744" filterUnits="userSpaceOnUse" color-interpolation-filters="sRGB">
<feFlood flood-opacity="0" result="BackgroundImageFix"/>
<feBlend mode="normal" in="SourceGraphic" in2="BackgroundImageFix" result="shape"/>
<feColorMatrix in="SourceAlpha" type="matrix" values="0 0 0 0 0 0 0 0 0 0 0 0 0 0 0 0 0 0 127 0" result="hardAlpha"/>
<feOffset/>
<feGaussianBlur stdDeviation="0.15508"/>
<feComposite in2="hardAlpha" operator="arithmetic" k2="-1" k3="1"/>
<feColorMatrix type="matrix" values="0 0 0 0 0 0 0 0 0 0 0 0 0 0 0 0 0 0 0.64 0"/>
<feBlend mode="normal" in2="shape" result="effect1_innerShadow_437_3903"/>
</filter>
<linearGradient id="paint0_linear_437_3903" x1="12.8712" y1="12.0707" x2="19.0432" y2="5.89246" gradientUnits="userSpaceOnUse">
<stop stop-color="#46FF47"/>
<stop offset="1" stop-color="#9CFF9D"/>
</linearGradient>
<linearGradient id="paint1_linear_437_3903" x1="11.3799" y1="11.942" x2="13.4754" y2="8.30814" gradientUnits="userSpaceOnUse">
<stop stop-color="#10D9ED"/>
<stop offset="1" stop-color="#10D9ED" stop-opacity="0.3"/>
</linearGradient>
<linearGradient id="paint2_linear_437_3903" x1="10.7032" y1="13.4906" x2="11.9059" y2="10.2907" gradientUnits="userSpaceOnUse">
<stop stop-color="#FA51D3"/>
<stop offset="0.958774" stop-color="#FA51D3" stop-opacity="0"/>
</linearGradient>
<linearGradient id="paint3_linear_437_3903" x1="7.79296" y1="18.4689" x2="9.7248" y2="13.3238" gradientUnits="userSpaceOnUse">
<stop stop-color="#FFE700"/>
<stop offset="1" stop-color="#FFE700" stop-opacity="0"/>
</linearGradient>
<linearGradient id="paint4_linear_437_3903" x1="9.99998" y1="17.036" x2="10.0077" y2="19.1038" gradientUnits="userSpaceOnUse">
<stop/>
<stop offset="1" stop-color="#353535"/>
</linearGradient>
<linearGradient id="paint5_linear_437_3903" x1="11.2109" y1="15.9207" x2="11.2109" y2="16.9233" gradientUnits="userSpaceOnUse">
<stop offset="0.75" stop-color="white"/>
<stop offset="1" stop-color="#DEDEDF"/>
</linearGradient>
<linearGradient id="paint6_linear_437_3903" x1="7.90694" y1="9.87047" x2="7.90693" y2="13.1993" gradientUnits="userSpaceOnUse">
<stop offset="0.75" stop-color="white"/>
<stop offset="1" stop-color="#DEDEDF"/>
</linearGradient>
<linearGradient id="paint7_linear_437_3903" x1="12.0833" y1="9.87047" x2="12.0833" y2="13.1993" gradientUnits="userSpaceOnUse">
<stop offset="0.75" stop-color="white"/>
<stop offset="1" stop-color="#DEDEDF"/>
</linearGradient>
<linearGradient id="paint8_linear_437_3903" x1="10.0015" y1="8.61377" x2="10.0015" y2="14.4912" gradientUnits="userSpaceOnUse">
<stop/>
<stop offset="1" stop-color="#3D3C3C"/>
</linearGradient>
</defs>
</svg>
