<svg width="71" height="20" viewBox="0 0 71 20" fill="none" xmlns="http://www.w3.org/2000/svg">
<path d="M44.771 12.4778C44.771 12.9578 44.8394 13.3074 44.9762 13.5265C45.113 13.7352 45.3287 13.8396 45.6233 13.8396C46.3599 13.8396 46.8598 13.5422 47.1228 12.9474C47.3964 12.3526 47.5332 11.5387 47.5332 10.5056C47.5332 10.0047 47.5017 9.3056 47.4385 8.4082C47.3754 7.55253 47.3438 6.916 47.3438 6.4986C46.2179 6.4986 45.6549 6.27947 45.6549 5.8412C45.6549 5.58032 45.697 5.40815 45.7812 5.32467C45.8759 5.24119 46.0179 5.19945 46.2073 5.19945C46.3231 5.19945 46.4494 5.20988 46.5862 5.23075C46.723 5.24119 46.8229 5.2464 46.8861 5.2464C47.0965 5.27771 47.2965 5.29336 47.4859 5.29336C47.8331 5.29336 48.1541 5.27771 48.4487 5.2464C48.8275 5.22553 49.1116 5.2151 49.3011 5.2151C49.6799 5.2151 49.943 5.25162 50.0903 5.32467C50.2481 5.39771 50.327 5.53858 50.327 5.74728C50.327 5.96642 50.2692 6.12294 50.1534 6.21686C50.0482 6.30034 49.8903 6.36295 49.6799 6.40469L48.9538 6.48295C48.9433 7.17165 48.9854 7.99602 49.0801 8.95603C49.0906 9.10212 49.1116 9.37865 49.1432 9.78561C49.1748 10.1821 49.1906 10.5474 49.1906 10.8813C49.1906 12.2378 48.9012 13.2865 48.3224 14.0274C47.7437 14.7579 46.8808 15.1231 45.7338 15.1231C45.0183 15.1231 44.4185 14.9196 43.9344 14.5126C43.4609 14.0952 43.2241 13.4744 43.2241 12.65C43.2241 12.4204 43.3083 12.2378 43.4767 12.1022C43.645 11.9561 43.8713 11.883 44.1554 11.883C44.3553 11.883 44.5079 11.9509 44.6131 12.0865C44.7184 12.2222 44.771 12.3526 44.771 12.4778Z" fill="#5542CF"/>
<path d="M50.3623 11.7578C50.3623 11.3613 50.436 10.9648 50.5833 10.5682C50.7306 10.1613 50.9253 9.79083 51.1673 9.45691C51.4093 9.12299 51.7934 8.85168 52.3196 8.64298C52.8457 8.42385 53.314 8.31428 53.7243 8.31428C54.1453 8.31428 54.5714 8.37167 55.0029 8.48646C55.4448 8.60124 55.75 8.77864 55.9184 9.01864C56.3077 9.56126 56.5024 10.0934 56.5024 10.6152C56.5024 10.8969 56.4392 11.1369 56.313 11.3352C56.1972 11.5335 56.0289 11.7474 55.8079 11.977C55.629 12.1648 55.3449 12.29 54.9555 12.3526C54.5767 12.4152 54.1979 12.4465 53.8191 12.4465C53.577 12.4465 53.2824 12.4257 52.9351 12.3839C52.5879 12.3317 52.2512 12.2691 51.9249 12.1961C51.946 12.4048 51.9986 12.6083 52.0828 12.8065C52.167 13.0048 52.2669 13.1561 52.3827 13.2605C52.5931 13.4587 52.8089 13.5839 53.0298 13.6361C53.2613 13.6883 53.556 13.7144 53.9138 13.7144C54.2926 13.7144 54.6451 13.6518 54.9713 13.5265C55.2344 13.4326 55.4501 13.3857 55.6185 13.3857C55.8184 13.3857 55.971 13.4483 56.0762 13.5735C56.1814 13.6883 56.234 13.8396 56.234 14.0274C56.234 14.2883 56.0815 14.5022 55.7763 14.6692C55.4711 14.8361 55.1186 14.9614 54.7188 15.0448C54.3294 15.1179 54.0137 15.1544 53.7717 15.1544C53.2771 15.1544 52.7983 15.0657 52.3353 14.8883C51.8723 14.7109 51.4882 14.4605 51.1831 14.137C50.9305 13.8448 50.7306 13.4952 50.5833 13.0883C50.436 12.6709 50.3623 12.2274 50.3623 11.7578ZM53.8033 9.64474C53.5718 9.64474 53.3403 9.6917 53.1088 9.78561C52.8773 9.86909 52.6878 9.98909 52.5405 10.1456C52.3511 10.3439 52.2196 10.5056 52.1459 10.6308C52.0828 10.7456 52.0407 10.9074 52.0196 11.1161C52.2827 11.1995 52.8299 11.2413 53.6612 11.2413C54.1137 11.2413 54.4609 11.1735 54.703 11.0378C54.9555 10.9022 55.0818 10.7248 55.0818 10.5056C55.0818 10.2865 54.945 10.0882 54.6714 9.91083C54.3978 9.73344 54.1084 9.64474 53.8033 9.64474Z" fill="#5542CF"/>
<path d="M58.6737 12.65C58.6737 13.0465 58.7316 13.3544 58.8473 13.5735C58.9736 13.7822 59.1314 13.8866 59.3209 13.8866C59.4261 13.8866 59.526 13.8813 59.6208 13.8709C59.7155 13.85 59.8102 13.8396 59.9049 13.8396C60.0101 13.8396 60.0995 13.8918 60.1732 13.9961C60.2574 14.1005 60.2995 14.2153 60.2995 14.3405C60.2995 14.5909 60.1785 14.7892 59.9364 14.9353C59.7049 15.0709 59.3893 15.1387 58.9894 15.1387C58.7053 15.1387 58.4159 15.0553 58.1213 14.8883C57.8371 14.7109 57.6004 14.4396 57.411 14.0744C57.2215 13.6987 57.1268 13.2344 57.1268 12.6813C57.1268 11.4917 57.1479 10.4848 57.19 9.66039C57.2426 8.67951 57.2689 7.44296 57.2689 5.95076C57.2689 5.48119 57.2952 5.15249 57.3478 4.96466C57.411 4.81857 57.5109 4.709 57.6477 4.63596C57.795 4.55248 57.9476 4.51074 58.1055 4.51074C58.2633 4.51074 58.4001 4.53683 58.5159 4.589C58.6421 4.64118 58.7263 4.72466 58.7684 4.83944C58.8105 4.96466 58.8368 5.08988 58.8473 5.2151C58.8684 5.32988 58.8789 5.49684 58.8789 5.71598C58.8789 6.14381 58.8631 6.55599 58.8315 6.95252C58.8105 7.43253 58.8 7.7821 58.8 8.00123C58.7158 9.83779 58.6737 11.3874 58.6737 12.65Z" fill="#5542CF"/>
<path d="M62.039 12.65C62.039 13.0465 62.0968 13.3544 62.2126 13.5735C62.3389 13.7822 62.4967 13.8866 62.6861 13.8866C62.7913 13.8866 62.8913 13.8813 62.986 13.8709C63.0807 13.85 63.1754 13.8396 63.2701 13.8396C63.3754 13.8396 63.4648 13.8918 63.5385 13.9961C63.6226 14.1005 63.6647 14.2153 63.6647 14.3405C63.6647 14.5909 63.5437 14.7892 63.3017 14.9353C63.0702 15.0709 62.7545 15.1387 62.3546 15.1387C62.0705 15.1387 61.7811 15.0553 61.4865 14.8883C61.2024 14.7109 60.9656 14.4396 60.7762 14.0744C60.5868 13.6987 60.4921 13.2344 60.4921 12.6813C60.4921 11.4917 60.5131 10.4848 60.5552 9.66039C60.6078 8.67951 60.6342 7.44296 60.6342 5.95076C60.6342 5.48119 60.6605 5.15249 60.7131 4.96466C60.7762 4.81857 60.8762 4.709 61.013 4.63596C61.1603 4.55248 61.3129 4.51074 61.4707 4.51074C61.6286 4.51074 61.7654 4.53683 61.8811 4.589C62.0074 4.64118 62.0916 4.72466 62.1337 4.83944C62.1757 4.96466 62.2021 5.08988 62.2126 5.2151C62.2336 5.32988 62.2441 5.49684 62.2441 5.71598C62.2441 6.14381 62.2284 6.55599 62.1968 6.95252C62.1757 7.43253 62.1652 7.7821 62.1652 8.00123C62.081 9.83779 62.039 11.3874 62.039 12.65Z" fill="#5542CF"/>
<path d="M65.42 18.2692C65.0306 18.2692 64.6992 18.2014 64.4256 18.0658C64.152 17.9405 63.9468 17.784 63.81 17.5962C63.6837 17.4188 63.6206 17.2623 63.6206 17.1266C63.6206 16.9388 63.689 16.7718 63.8258 16.6257C63.9626 16.4901 64.1152 16.4222 64.2835 16.4222C64.3782 16.4222 64.4677 16.4535 64.5519 16.5162C64.6466 16.5788 64.7044 16.6153 64.7255 16.6257C64.7781 16.6675 64.8465 16.7301 64.9307 16.8136C65.0149 16.9075 65.099 16.9544 65.1832 16.9544C65.4252 16.9544 65.6199 16.8031 65.7672 16.5005C65.9146 16.1979 66.0566 15.7075 66.1934 15.0292C65.4989 13.8918 64.8412 12.7335 64.2204 11.5543C63.5995 10.3752 63.2891 9.57691 63.2891 9.15951C63.2891 8.89864 63.3838 8.70559 63.5732 8.58037C63.7626 8.45515 63.9784 8.39254 64.2204 8.39254C64.3993 8.39254 64.5413 8.42907 64.6466 8.50211C64.7518 8.56472 64.836 8.68472 64.8991 8.86212C65.1937 9.74909 65.4936 10.5421 65.7988 11.2413C66.104 11.93 66.4565 12.6239 66.8564 13.3231C67.0458 12.9057 67.272 12.2222 67.5351 11.2726C67.6929 10.7195 67.8297 10.2708 67.9455 9.92648C68.0612 9.57169 68.1928 9.24821 68.3401 8.95603C68.4348 8.7682 68.5505 8.6169 68.6873 8.50211C68.8346 8.38733 68.9925 8.32994 69.1609 8.32994C69.3503 8.32994 69.5449 8.39776 69.7449 8.53342C69.9553 8.65864 70.0606 8.80994 70.0606 8.98734C70.0606 9.03951 70.0237 9.16473 69.9501 9.363C69.5397 10.2708 69.1766 11.1474 68.861 11.9926C68.5453 12.8274 68.2506 13.7457 67.977 14.7474C67.8087 15.2796 67.6298 15.7961 67.4404 16.297C67.251 16.8083 67.1194 17.1266 67.0458 17.2518C66.8248 17.544 66.588 17.784 66.3355 17.9718C66.0829 18.1701 65.7778 18.2692 65.42 18.2692Z" fill="#5542CF"/>
<g clip-path="url(#clip0_1811_4789)">
<path d="M26.1169 3.29214H37.8127V16.9372C37.8127 18.5982 36.4662 19.9447 34.8052 19.9447H29.1244C27.4634 19.9447 26.1169 18.5982 26.1169 16.9372V3.29214Z" fill="#C5E2F3"/>
<path d="M32.7059 20.4534L32.7059 20.4534C31.8593 20.7866 30.9816 20.5867 30.3627 19.9198L30.3627 19.9198C30.117 19.6551 30.1415 19.2244 30.4193 18.9836L30.4193 18.9836C30.6724 18.7643 30.9983 18.7808 31.2108 18.9649C31.5331 19.2444 31.9433 19.3378 32.3549 19.2255C32.625 19.1518 32.9265 19.2763 33.0603 19.5849C33.2065 19.9222 33.0421 20.3211 32.7059 20.4534Z" fill="#553BF4" stroke="black" stroke-width="0.111388"/>
<path d="M30.8315 17.1676L30.8315 17.1676C29.9315 17.3004 29.1218 16.907 28.67 16.1174L28.67 16.1174C28.4905 15.8038 28.612 15.3899 28.9371 15.2183L28.9371 15.2183C29.2333 15.0619 29.5469 15.1518 29.7122 15.3793C29.9629 15.7244 30.3413 15.9083 30.7677 15.8921C31.0474 15.8815 31.3129 16.071 31.3733 16.4019C31.4393 16.7636 31.1889 17.1149 30.8315 17.1676Z" fill="#F43F3F" stroke="black" stroke-width="0.111388"/>
<path d="M28.8437 16.0493C28.8368 16.0435 28.8307 16.0364 28.826 16.0281C28.7642 15.9201 28.75 15.7922 28.786 15.6681C28.8229 15.5412 28.9064 15.4379 29.021 15.3774C29.0595 15.3571 29.107 15.3719 29.1274 15.4103C29.1476 15.4488 29.1329 15.4963 29.0945 15.5166C29.0179 15.557 28.962 15.6264 28.9372 15.7121C28.9132 15.7948 28.9222 15.8793 28.9626 15.95C28.9842 15.9877 28.9711 16.0358 28.9334 16.0574C28.904 16.0742 28.8682 16.0699 28.8437 16.0493Z" fill="#FFF5F5"/>
<path d="M36.9137 18.6802L36.9137 18.6802C36.4195 19.5053 35.5182 19.9572 34.5076 19.8825L34.5076 19.8825C34.1016 19.8525 33.8238 19.5136 33.8915 19.1518L33.8915 19.1518C33.9539 18.8182 34.2478 18.6032 34.5692 18.5953C35.04 18.5836 35.4559 18.3763 35.7296 18.0144C35.9125 17.7727 36.2667 17.6581 36.6046 17.7981C36.9702 17.9496 37.1085 18.3549 36.9137 18.6802ZM33.8368 19.1416L33.8368 19.1416L33.8368 19.1416Z" fill="#4BEC78" stroke="black" stroke-width="0.111388"/>
<path d="M38.8428 11.4589L38.8428 11.4589C38.344 12.4114 37.4047 12.9117 36.336 12.7944L36.336 12.7944C35.9076 12.7475 35.5938 12.3399 35.6564 11.9062L35.6564 11.9061C35.7135 11.5111 36.0204 11.2711 36.3564 11.2714C36.8553 11.2717 37.2894 11.0405 37.5674 10.6262C37.7538 10.3484 38.1234 10.2255 38.4847 10.3994C38.8797 10.5894 39.0428 11.0772 38.8428 11.4589Z" fill="#4BEC78" stroke="black" stroke-width="0.111388"/>
<path d="M36.3925 12.5722C36.3822 12.5748 36.3713 12.5756 36.3601 12.5744C36.2144 12.5584 36.0829 12.4834 35.9897 12.3631C35.8944 12.2401 35.854 12.0891 35.8757 11.9381C35.8831 11.8874 35.9301 11.8523 35.9807 11.8596C36.0314 11.8669 36.0665 11.9139 36.0592 11.9646C36.0446 12.0654 36.0719 12.1667 36.1363 12.2496C36.1984 12.3298 36.2851 12.3798 36.3804 12.3902C36.4312 12.3958 36.4679 12.4415 36.4624 12.4924C36.458 12.5321 36.4292 12.5632 36.3925 12.5722Z" fill="#FFF5F5"/>
<path d="M38.0684 8.28262L38.0684 8.28262C37.5696 9.23504 36.6303 9.73542 35.5616 9.61813L35.5616 9.61813C35.1332 9.57115 34.8194 9.16363 34.882 8.72984L34.882 8.72984C34.9391 8.33478 35.246 8.09478 35.5819 8.09505C36.0809 8.09543 36.515 7.86422 36.793 7.44985C36.9794 7.17212 37.349 7.04923 37.7103 7.22304C38.1053 7.41308 38.2684 7.90084 38.0684 8.28262Z" fill="#4BEC78" stroke="black" stroke-width="0.111388"/>
<path d="M31.3092 7.46324C31.271 7.24423 31.3226 6.99185 31.4388 6.76492C31.555 6.53812 31.7326 6.34253 31.9391 6.23438L31.9391 6.23438C32.4494 5.96696 32.9298 5.87961 33.3435 5.95787C33.7559 6.03589 34.1079 6.27963 34.3619 6.68676L34.3619 6.68676C34.4618 6.84672 34.4814 7.07362 34.4248 7.31118C34.3685 7.54778 34.2379 7.78757 34.0483 7.96831L34.0483 7.96831C33.8749 8.13357 33.6994 8.21586 33.5475 8.23077C33.397 8.24555 33.2676 8.19477 33.1779 8.08819C32.8886 7.74454 32.4553 7.6673 31.9799 7.85769C31.819 7.92214 31.6689 7.9176 31.5526 7.85417C31.4367 7.791 31.3443 7.66402 31.3092 7.46324ZM31.9132 6.18505C32.9498 5.64189 33.8862 5.81905 34.4092 6.65728C34.6297 7.01071 34.4824 7.63156 34.0867 8.00863C33.727 8.35149 33.3402 8.36747 33.1353 8.12406L31.9132 6.18505Z" fill="#4BEC78" stroke="black" stroke-width="0.111388"/>
<path d="M34.1599 6.86782C34.1676 6.87238 34.1744 6.87894 34.1798 6.88747C34.2496 6.9994 34.2659 7.15545 34.2258 7.32694C34.1847 7.50241 34.0912 7.6666 33.9626 7.78925C33.9194 7.83037 33.8659 7.83085 33.843 7.79039C33.8201 7.74988 33.8365 7.68373 33.8796 7.64259C33.9655 7.56072 34.0281 7.45048 34.0558 7.3321C34.0825 7.21778 34.0722 7.11447 34.0265 7.04129C34.0021 7.00222 34.0167 6.93615 34.059 6.89364C34.092 6.86055 34.1322 6.85158 34.1599 6.86782Z" fill="#FFF5F5"/>
<path d="M35.9682 15.6469L35.9682 15.6469C35.5461 16.4529 34.7516 16.8761 33.8472 16.7769L33.8472 16.7769C33.4881 16.7375 33.2248 16.3958 33.2774 16.0319L33.2774 16.0319C33.3252 15.7004 33.5824 15.4997 33.8636 15.4999C34.2902 15.5002 34.6615 15.3024 34.8993 14.9481C35.0552 14.7157 35.3647 14.6125 35.6678 14.7584C35.9991 14.9178 36.1359 15.3269 35.9682 15.6469Z" fill="#4BEC78" stroke="black" stroke-width="0.111388"/>
<path d="M33.8942 16.5963C33.8855 16.5984 33.8762 16.5991 33.8668 16.5981C33.743 16.5845 33.6313 16.5208 33.5521 16.4186C33.4712 16.3141 33.4368 16.1859 33.4553 16.0576C33.4615 16.0145 33.5014 15.9847 33.5445 15.9909C33.5875 15.9971 33.6173 16.0371 33.6111 16.0801C33.5987 16.1658 33.622 16.2517 33.6766 16.3222C33.7293 16.3903 33.803 16.4328 33.8839 16.4416C33.9271 16.4464 33.9583 16.4852 33.9536 16.5285C33.9499 16.5621 33.9254 16.5885 33.8942 16.5963Z" fill="#FFF5F5"/>
<path d="M32.9356 5.48946L32.9356 5.48946C32.6324 6.34724 31.9061 6.87917 30.9968 6.90952L30.9968 6.90952C30.6358 6.9216 30.3266 6.62075 30.3268 6.25313L30.3268 6.25312C30.3271 5.91822 30.5531 5.68292 30.8314 5.64317C31.2538 5.58283 31.5932 5.33425 31.7781 4.94976C31.8995 4.6975 32.1911 4.55139 32.5119 4.65264C32.8625 4.76331 33.056 5.14887 32.9356 5.48946Z" fill="#F5CA32" stroke="black" stroke-width="0.111388"/>
<path d="M31.0179 6.72413C31.0096 6.72751 31.0005 6.72953 30.9909 6.72987C30.8665 6.734 30.7468 6.6868 30.654 6.59695C30.559 6.505 30.5067 6.38296 30.5068 6.25333C30.5068 6.20985 30.5421 6.17467 30.5856 6.17468C30.6291 6.17472 30.6642 6.21 30.6642 6.25346C30.6642 6.34002 30.6994 6.42183 30.7635 6.48384C30.8254 6.54375 30.9043 6.57527 30.9857 6.57255C31.0291 6.57111 31.0655 6.60513 31.067 6.64859C31.0681 6.68245 31.0476 6.71207 31.0179 6.72413Z" fill="#FFF5F5"/>
<path d="M26.2012 15.2978L26.2012 15.2978C26.6613 14.5129 27.4752 14.1281 28.3737 14.2705L28.3737 14.2705C28.7305 14.327 28.9772 14.6809 28.9073 15.0419L28.9073 15.0419C28.8437 15.3707 28.5772 15.5589 28.2964 15.5452C27.8702 15.5245 27.4899 15.7043 27.2355 16.0469C27.0686 16.2716 26.7546 16.3598 26.4588 16.1997C26.1355 16.0246 26.0184 15.6094 26.2012 15.2978Z" fill="#4BEC78" stroke="black" stroke-width="0.111388"/>
<path d="M28.3173 14.4485C28.3261 14.4468 28.3354 14.4465 28.3448 14.448C28.4678 14.4675 28.5764 14.5365 28.6505 14.6423C28.7264 14.7506 28.7546 14.8803 28.73 15.0076C28.7217 15.0503 28.6804 15.0781 28.6377 15.0699C28.595 15.0616 28.5672 15.0203 28.5754 14.9776C28.5919 14.8927 28.5728 14.8057 28.5216 14.7326C28.4721 14.6621 28.4006 14.6162 28.3202 14.6035C28.2773 14.5966 28.248 14.5564 28.2548 14.5134C28.2601 14.4799 28.2858 14.4547 28.3173 14.4485Z" fill="#FFF5F5"/>
<path d="M32.7126 14.3091L32.7126 14.3091C32.1906 15.0543 31.3484 15.3722 30.4643 15.1578L30.4642 15.1578C30.1132 15.0727 29.8959 14.7 29.9946 14.3459L29.9946 14.3459C30.0846 14.0233 30.3654 13.8571 30.6442 13.8934C31.0673 13.9485 31.4609 13.7999 31.7421 13.479C31.9266 13.2685 32.2467 13.2059 32.5286 13.3894C32.8368 13.59 32.9199 14.0133 32.7126 14.3091Z" fill="#F43F3F" stroke="black" stroke-width="0.111388"/>
<path d="M30.5339 14.9847C30.525 14.9857 30.5157 14.9852 30.5064 14.983C30.3854 14.9536 30.2828 14.8761 30.2174 14.7646C30.1505 14.6506 30.1329 14.519 30.1677 14.3941C30.1794 14.3523 30.2228 14.3278 30.2646 14.3395C30.3065 14.3512 30.331 14.3946 30.3193 14.4364C30.296 14.5198 30.308 14.6081 30.3532 14.685C30.3968 14.7593 30.4644 14.8108 30.5435 14.83C30.5857 14.8403 30.6117 14.8828 30.6014 14.925C30.5934 14.958 30.5658 14.981 30.5339 14.9847Z" fill="#FFF5F5"/>
<path d="M33.0932 13.8638L33.0932 13.8638C32.358 14.3997 31.4582 14.4276 30.6912 13.9383L30.6912 13.9383C30.3866 13.7441 30.3017 13.3211 30.5099 13.0181L30.5099 13.0181C30.6995 12.742 31.019 12.6758 31.271 12.8004C31.6534 12.9896 32.0739 12.9765 32.4439 12.764C32.6867 12.6246 33.0098 12.6691 33.2171 12.934C33.4436 13.2236 33.3852 13.651 33.0932 13.8638Z" fill="#F5CA32" stroke="black" stroke-width="0.111388"/>
<path d="M30.8135 13.7973C30.8047 13.7954 30.7961 13.7919 30.7881 13.7868C30.6831 13.7198 30.6111 13.6132 30.5854 13.4866C30.559 13.357 30.5849 13.2268 30.6583 13.12C30.6829 13.0841 30.7319 13.0751 30.7678 13.0996C30.8036 13.1243 30.8127 13.1733 30.7881 13.2091C30.7391 13.2804 30.7218 13.3678 30.7396 13.4552C30.7568 13.5396 30.8041 13.6103 30.8727 13.6541C30.9093 13.6774 30.9201 13.7261 30.8967 13.7627C30.8785 13.7913 30.8449 13.8041 30.8135 13.7973Z" fill="#FFF5F5"/>
<path d="M33.7051 13.7853L33.7051 13.7853C33.7557 14.6937 33.2904 15.4643 32.463 15.8426L32.463 15.8426C32.1345 15.9928 31.7332 15.8343 31.5919 15.4949L31.5919 15.4949C31.4631 15.1858 31.581 14.8816 31.8226 14.7376C32.1891 14.5193 32.4065 14.1591 32.4291 13.7331C32.4439 13.4535 32.6567 13.2064 32.9918 13.1762C33.358 13.1433 33.6851 13.4246 33.7051 13.7853Z" fill="#4BEC78" stroke="black" stroke-width="0.111388"/>
<path d="M32.4115 15.6633C32.4051 15.6696 32.3975 15.675 32.3888 15.6789C32.2756 15.7307 32.147 15.7332 32.0267 15.6861C31.9036 15.6378 31.8084 15.5453 31.7585 15.4257C31.7418 15.3855 31.7608 15.3395 31.8009 15.3227C31.8411 15.306 31.8871 15.325 31.9038 15.3651C31.9371 15.445 32.0011 15.507 32.0842 15.5395C32.1644 15.5709 32.2494 15.5696 32.3234 15.5358C32.3629 15.5177 32.4096 15.5351 32.4277 15.5746C32.4418 15.6055 32.4343 15.6407 32.4115 15.6633Z" fill="#FFF5F5"/>
<path d="M31.8895 8.49203L31.8895 8.49202C30.8889 8.35557 30.0276 7.66617 29.5962 6.64961L29.5962 6.64961C29.4211 6.23687 29.5986 5.82963 29.9579 5.74586L29.9579 5.74586C30.2936 5.66756 30.6392 5.86343 30.8076 6.17738C31.0489 6.62717 31.4413 6.94319 31.9057 7.05787C32.2202 7.13552 32.503 7.43568 32.5418 7.82573C32.5628 8.03698 32.4963 8.21662 32.3784 8.33634C32.2607 8.45585 32.0884 8.51915 31.8895 8.49203Z" fill="#3AE2F8" stroke="black" stroke-width="0.111388"/>
<path d="M29.7959 6.63579C29.7888 6.62729 29.7828 6.61762 29.7783 6.60707C29.7199 6.4692 29.7152 6.32458 29.7653 6.19978C29.8165 6.0721 29.9167 5.98498 30.0474 5.95448C30.0912 5.94428 30.1421 5.97533 30.1611 6.02382C30.18 6.07234 30.1598 6.11992 30.116 6.13017C30.0287 6.1505 29.9616 6.2091 29.9271 6.29527C29.8937 6.37845 29.8964 6.47395 29.9346 6.56411C29.955 6.61223 29.9366 6.66086 29.8935 6.67274C29.8598 6.68197 29.821 6.6661 29.7959 6.63579Z" fill="#FFF5F5"/>
<path d="M29.3742 6.62138L29.3742 6.62138C30.2296 6.93106 30.7561 7.66128 30.7796 8.57076L30.7796 8.57077C30.789 8.93189 30.4858 9.23884 30.1182 9.2358L30.1182 9.2358C29.7833 9.23306 29.5497 9.00526 29.5121 8.72663C29.4549 8.30386 29.2089 7.96259 28.8258 7.77476C28.5744 7.65153 28.4305 7.35882 28.5342 7.0388C28.6475 6.68903 29.0345 6.4984 29.3742 6.62138Z" fill="#4BEC78" stroke="black" stroke-width="0.111388"/>
<path d="M30.5938 8.54849C30.5971 8.55685 30.5991 8.56597 30.5993 8.57549C30.6025 8.69996 30.5544 8.81925 30.4639 8.91142C30.3712 9.00572 30.2488 9.05708 30.1192 9.05603C30.0757 9.05566 30.0408 9.02012 30.0411 8.97666C30.0415 8.93318 30.077 8.89826 30.1205 8.8986C30.207 8.89933 30.2891 8.86472 30.3516 8.80107C30.412 8.73964 30.4441 8.66095 30.442 8.57954C30.4409 8.5361 30.4751 8.49997 30.5186 8.49884C30.5525 8.49798 30.5819 8.51869 30.5938 8.54849Z" fill="#FFF5F5"/>
<path d="M31.0273 8.46785L31.0273 8.46785C31.8925 8.1865 32.7566 8.43911 33.334 9.14218L33.334 9.14219C33.5633 9.42134 33.5127 9.84978 33.2208 10.0733L33.2208 10.0733C32.9549 10.2769 32.6307 10.2407 32.4297 10.044C32.1249 9.74562 31.7211 9.62754 31.3034 9.71476C31.0294 9.77198 30.736 9.62949 30.6211 9.31332C30.4956 8.96775 30.6838 8.57954 31.0273 8.46785Z" fill="#4BEC78" stroke="black" stroke-width="0.111388"/>
<path d="M33.1748 9.23838C33.1826 9.24294 33.1897 9.24893 33.1958 9.25628C33.2748 9.35251 33.3101 9.47618 33.2953 9.60454C33.2802 9.73587 33.2151 9.85162 33.1122 9.93044C33.0777 9.95686 33.0283 9.95028 33.0019 9.91579C32.9755 9.88126 32.982 9.83187 33.0165 9.80543C33.0853 9.75282 33.1287 9.67509 33.1389 9.58647C33.1488 9.50091 33.1258 9.4191 33.0741 9.35616C33.0465 9.32257 33.0514 9.273 33.085 9.24539C33.1112 9.2239 33.1472 9.22214 33.1748 9.23838Z" fill="#FFF5F5"/>
<path d="M26.4609 12.1197L26.4609 12.1197C27.1681 11.5472 28.0653 11.4737 28.8561 11.9234L28.8561 11.9234C29.1702 12.102 29.2763 12.5201 29.0838 12.8333L29.0838 12.8333C28.9085 13.1186 28.5927 13.2009 28.3347 13.0892C27.9432 12.9198 27.5239 12.9541 27.1652 13.1851C26.9298 13.3366 26.6048 13.3086 26.3844 13.0545C26.1434 12.7768 26.1801 12.347 26.4609 12.1197Z" fill="#4BEC78" stroke="black" stroke-width="0.111388"/>
<path d="M28.7411 12.0705C28.75 12.072 28.7588 12.075 28.7671 12.0797C28.8753 12.1413 28.9526 12.2441 28.9847 12.3692C29.0176 12.4973 28.9983 12.6286 28.9305 12.7391C28.9077 12.7761 28.8592 12.7877 28.8222 12.7649C28.7851 12.7421 28.7736 12.6937 28.7963 12.6566C28.8417 12.5829 28.8545 12.4947 28.8322 12.4084C28.8108 12.3249 28.7601 12.2568 28.6893 12.2165C28.6515 12.195 28.6383 12.147 28.6598 12.1092C28.6765 12.0798 28.7095 12.0652 28.7411 12.0705Z" fill="#FFF5F5"/>
<path d="M29.7692 18.4729L29.7692 18.4729C28.8595 18.4605 28.1229 17.9429 27.8028 17.0913L27.8028 17.0913C27.6756 16.7532 27.8615 16.3639 28.2099 16.2463L28.2099 16.2463C28.5272 16.1392 28.8225 16.278 28.9494 16.5289C29.1418 16.9096 29.4861 17.1515 29.9096 17.2035C30.1874 17.2376 30.4192 17.467 30.4261 17.8033C30.4336 18.1709 30.1304 18.4778 29.7692 18.4729Z" fill="#4BEC78" stroke="black" stroke-width="0.111388"/>
<path d="M27.9854 17.0518C27.9795 17.045 27.9747 17.037 27.9713 17.0281C27.9275 16.9116 27.9339 16.7831 27.9893 16.6664C28.0459 16.5469 28.1448 16.4583 28.2676 16.4168C28.3088 16.4029 28.3534 16.4251 28.3673 16.4663C28.3812 16.5075 28.3591 16.5521 28.3179 16.566C28.2359 16.5937 28.1697 16.6532 28.1315 16.7339C28.0946 16.8117 28.09 16.8965 28.1187 16.9728C28.1339 17.0134 28.1134 17.0588 28.0727 17.0741C28.041 17.086 28.0063 17.0761 27.9854 17.0518Z" fill="#FFF5F5"/>
<path d="M33.9259 14.1173L33.9259 14.1173C34.7616 13.7577 35.6452 13.9298 36.2847 14.5769L36.2847 14.5769C36.5387 14.8338 36.5277 15.2651 36.2576 15.5145L36.2576 15.5145C36.0115 15.7416 35.6853 15.7354 35.4671 15.558C35.1362 15.2889 34.7232 15.2084 34.3153 15.3336C34.0477 15.4157 33.7425 15.3008 33.5991 14.9965C33.4423 14.6639 33.5941 14.2601 33.9259 14.1173Z" fill="#F5CA32" stroke="black" stroke-width="0.111388"/>
<path d="M36.1348 14.6876C36.1429 14.6914 36.1506 14.6967 36.1573 14.7035C36.2448 14.7921 36.2914 14.912 36.2884 15.0411C36.2854 15.1733 36.2313 15.2945 36.136 15.3825C36.1041 15.412 36.0543 15.41 36.0248 15.378C35.9953 15.3461 35.9973 15.2963 36.0293 15.2668C36.0929 15.2081 36.129 15.1267 36.131 15.0375C36.133 14.9514 36.1026 14.8721 36.0453 14.8141C36.0148 14.7832 36.0151 14.7334 36.046 14.7028C36.0701 14.679 36.1058 14.674 36.1348 14.6876Z" fill="#FFF5F5"/>
<path d="M29.142 20.4535L29.142 20.4535C28.2954 20.7867 27.4176 20.5869 26.7988 19.92L26.7987 19.92C26.553 19.6552 26.5775 19.2245 26.8554 18.9838L26.8554 18.9838C27.1085 18.7644 27.4343 18.7809 27.6468 18.9651C27.9692 19.2445 28.3794 19.3379 28.791 19.2256C29.061 19.1519 29.3625 19.2764 29.4963 19.5851C29.6425 19.9224 29.4781 20.3213 29.142 20.4535Z" fill="#EE38C6" stroke="black" stroke-width="0.111388"/>
<path d="M26.9531 19.8144C26.9451 19.8103 26.9376 19.8047 26.9311 19.7978C26.8464 19.7065 26.8036 19.5852 26.8106 19.4562C26.8178 19.3242 26.8757 19.2047 26.9737 19.1198C27.0065 19.0913 27.0562 19.0949 27.0847 19.1277C27.1132 19.1606 27.1096 19.2103 27.0768 19.2388C27.0113 19.2954 26.9726 19.3757 26.9678 19.4647C26.9631 19.5507 26.9911 19.631 27.0464 19.6907C27.076 19.7226 27.0742 19.7723 27.0423 19.8019C27.0174 19.825 26.9817 19.8289 26.9531 19.8144Z" fill="#FFF5F5"/>
<path d="M27.9689 12.6032L27.9689 12.6032C28.8255 12.2967 29.6965 12.524 30.2942 13.2099L30.2942 13.2099C30.5316 13.4823 30.4935 13.912 30.2083 14.1439L30.2083 14.1439C29.9484 14.3552 29.6233 14.3285 29.4167 14.1378C29.1032 13.8484 28.6961 13.7422 28.2812 13.8415C28.009 13.9067 27.7116 13.7729 27.5875 13.4602C27.4519 13.1184 27.6287 12.7249 27.9689 12.6032Z" fill="#EE38C6" stroke="black" stroke-width="0.111388"/>
<path d="M30.137 13.3108C30.1448 13.3151 30.1522 13.3209 30.1584 13.3281C30.2402 13.422 30.2792 13.5445 30.2681 13.6733C30.2568 13.805 30.1952 13.9226 30.0946 14.0044C30.0609 14.0318 30.0113 14.0267 29.9839 13.993C29.9565 13.9592 29.9616 13.9097 29.9953 13.8822C30.0625 13.8276 30.1037 13.7487 30.1113 13.6598C30.1186 13.574 30.0932 13.4929 30.0398 13.4315C30.0112 13.3987 30.0146 13.349 30.0474 13.3204C30.0729 13.2982 30.1088 13.2954 30.137 13.3108Z" fill="#FFF5F5"/>
<path d="M36.0415 14.9675L36.0415 14.9675C36.9303 14.7729 37.7652 15.1095 38.2704 15.8661L38.2704 15.8661C38.4711 16.1665 38.3785 16.5879 38.066 16.7815L38.066 16.7815C37.7813 16.9579 37.4622 16.8899 37.2816 16.6743C37.0077 16.3473 36.6175 16.19 36.1933 16.2356C35.915 16.2655 35.637 16.0947 35.5539 15.7688C35.4631 15.4125 35.6886 15.0448 36.0415 14.9675Z" fill="#3AE2F8" stroke="black" stroke-width="0.111388"/>
<path d="M38.1015 15.946C38.1088 15.9513 38.1153 15.958 38.1206 15.9659C38.1897 16.0694 38.2127 16.196 38.1853 16.3222C38.1573 16.4514 38.0811 16.5602 37.9709 16.6285C37.934 16.6514 37.8855 16.64 37.8626 16.603C37.8397 16.5661 37.8511 16.5176 37.888 16.4947C37.9616 16.4491 38.0126 16.376 38.0315 16.2888C38.0497 16.2047 38.0349 16.121 37.9897 16.0533C37.9655 16.0171 37.9753 15.9683 38.0114 15.9441C38.0396 15.9253 38.0756 15.9271 38.1015 15.946Z" fill="#FFF5F5"/>
<path d="M32.6323 7.68133L32.6323 7.68133C32.9987 6.84856 33.7626 6.37226 34.6716 6.4098L34.6716 6.40981C35.0325 6.42469 35.3185 6.74775 35.2908 7.11433L35.2908 7.11434C35.2656 7.44829 35.0226 7.66607 34.7421 7.68497C34.3164 7.71364 33.9594 7.93621 33.7463 8.30585C33.6065 8.54835 33.3048 8.67232 32.9925 8.54743C32.6511 8.41091 32.4868 8.012 32.6323 7.68133Z" fill="#553BF4" stroke="black" stroke-width="0.111388"/>
<path d="M34.6367 6.59333C34.6452 6.59058 34.6545 6.58924 34.664 6.58961C34.7884 6.59477 34.9042 6.65076 34.9901 6.74729C35.0779 6.84607 35.121 6.97166 35.1112 7.10093C35.1079 7.14428 35.0701 7.17674 35.0268 7.17349C34.9835 7.1702 34.951 7.1324 34.9542 7.08906C34.9608 7.00274 34.9318 6.91854 34.8724 6.85192C34.8152 6.78756 34.7388 6.75024 34.6575 6.74688C34.6141 6.74508 34.5803 6.70845 34.5821 6.66499C34.5835 6.63114 34.6061 6.60314 34.6367 6.59333Z" fill="#FFF5F5"/>
<path d="M30.573 15.0381L30.573 15.0381C29.7583 15.4432 28.8666 15.3199 28.1924 14.709L28.1924 14.709C27.9247 14.4665 27.9119 14.0352 28.1679 13.7714L28.1679 13.7714C28.4011 13.531 28.7272 13.5193 28.9548 13.6844C29.3001 13.9349 29.7168 13.9926 30.1172 13.8451C30.3798 13.7483 30.691 13.8463 30.8509 14.1422C31.0257 14.4657 30.8965 14.8773 30.573 15.0381Z" fill="#553BF4" stroke="black" stroke-width="0.111388"/>
<path d="M26.6806 7.42643L26.6806 7.42643C27.117 7.14844 27.5614 7.02932 27.9762 7.06163C28.3906 7.0939 28.7795 7.27757 29.1055 7.6126L29.1055 7.6126C29.2337 7.74434 29.2964 7.93996 29.2892 8.14959C29.282 8.35887 29.205 8.57716 29.0605 8.74958L29.0605 8.74959C28.7963 9.06499 28.4609 9.0977 28.2455 8.92639C27.9028 8.65383 27.4735 8.62234 27.052 8.83178C26.9115 8.90156 26.7654 8.91187 26.6379 8.86547C26.5108 8.81921 26.3965 8.71446 26.3236 8.5431C26.2441 8.35642 26.2439 8.1338 26.3097 7.92794C26.3755 7.72212 26.5057 7.53785 26.6806 7.42643Z" fill="#553BF4" stroke="black" stroke-width="0.111388"/>
<path d="M33.3189 13.2222L33.3189 13.2222C33.9695 12.5863 34.856 12.4295 35.6853 12.8035L35.6853 12.8035C36.0146 12.952 36.1593 13.3585 35.9969 13.6882L35.9969 13.6882C35.8488 13.9887 35.5422 14.1 35.2749 14.0129C34.8693 13.8806 34.455 13.9539 34.1193 14.2173C33.8991 14.3901 33.5729 14.3925 33.3298 14.1601C33.064 13.906 33.0605 13.4746 33.3189 13.2222Z" fill="#553BF4" stroke="black" stroke-width="0.111388"/>
<path d="M35.5851 12.9609C35.5941 12.9616 35.6031 12.9638 35.6118 12.9677C35.7253 13.0189 35.8118 13.114 35.8555 13.2356C35.9002 13.3601 35.8932 13.4927 35.8359 13.6089C35.8167 13.6479 35.7695 13.6639 35.7305 13.6448C35.6915 13.6255 35.6755 13.5783 35.6947 13.5393C35.733 13.4617 35.7375 13.3728 35.7073 13.2888C35.6782 13.2077 35.6213 13.1446 35.5471 13.1111C35.5075 13.0933 35.4898 13.0467 35.5077 13.007C35.5216 12.9762 35.5531 12.9586 35.5851 12.9609Z" fill="#FFF5F5"/>
<path d="M29.8597 14.6334L29.8597 14.6334C30.7484 14.4388 31.5833 14.7754 32.0886 15.532L32.0886 15.532C32.2892 15.8324 32.1966 16.2537 31.8841 16.4474L31.8841 16.4474C31.5994 16.6238 31.2803 16.5558 31.0998 16.3402C30.8258 16.0132 30.4356 15.8559 30.0114 15.9015C29.7331 15.9314 29.4552 15.7606 29.372 15.4347C29.2812 15.0784 29.5068 14.7107 29.8597 14.6334Z" fill="#EE38C6" stroke="black" stroke-width="0.111388"/>
<path d="M31.9196 15.612C31.9269 15.6173 31.9334 15.624 31.9387 15.6319C32.0078 15.7355 32.0308 15.862 32.0034 15.9883C31.9754 16.1175 31.8993 16.2263 31.7891 16.2945C31.7521 16.3174 31.7036 16.306 31.6807 16.2691C31.6578 16.2321 31.6692 16.1836 31.7062 16.1607C31.7798 16.1151 31.8307 16.0421 31.8496 15.9549C31.8678 15.8707 31.853 15.787 31.8078 15.7193C31.7837 15.6832 31.7934 15.6343 31.8295 15.6102C31.8577 15.5914 31.8937 15.5931 31.9196 15.612Z" fill="#FFF5F5"/>
<path d="M29.6326 7.95628L29.6326 7.95628C30.4361 7.52939 31.3308 7.62859 32.0212 8.22108L32.0212 8.22109C32.2954 8.45633 32.3198 8.88705 32.071 9.15771L32.071 9.15771C31.8443 9.40429 31.5187 9.42479 31.2868 9.26587C30.9348 9.02474 30.5167 8.97836 30.1204 9.13657C29.8605 9.24037 29.5468 9.15082 29.379 8.85931C29.1955 8.54069 29.3136 8.12577 29.6326 7.95628Z" fill="#EE38C6" stroke="black" stroke-width="0.111388"/>
<path d="M34.6935 15.985L34.6935 15.985C33.7842 15.9548 33.0579 15.423 32.7545 14.5653L32.7545 14.5653C32.634 14.2247 32.8275 13.8391 33.1781 13.7284L33.1781 13.7284C33.4974 13.6276 33.79 13.772 33.9119 14.0254C34.0969 14.4098 34.4363 14.6584 34.8587 14.7186C35.1358 14.7582 35.3631 14.9921 35.3634 15.3285C35.3638 15.6961 35.0546 15.997 34.6935 15.985Z" fill="#3AE2F8" stroke="black" stroke-width="0.111388"/>
<path d="M26.5811 12.4329L26.5811 12.4329C27.4455 12.7166 27.9938 13.4306 28.0447 14.339L28.0447 14.339C28.0649 14.6997 27.7712 15.0156 27.4036 15.0237L27.4036 15.0237C27.0688 15.031 26.8285 14.8104 26.7824 14.533C26.7125 14.1121 26.4563 13.7784 26.0677 13.6022C25.8128 13.4866 25.6601 13.1984 25.7541 12.8754C25.8568 12.5224 26.2379 12.3202 26.5811 12.4329Z" fill="#3AE2F8" stroke="black" stroke-width="0.111388"/>
<path d="M27.8585 14.322C27.862 14.3303 27.8643 14.3393 27.8648 14.3488C27.8718 14.4731 27.8273 14.5938 27.7396 14.6887C27.6498 14.7857 27.529 14.8408 27.3994 14.8436C27.3559 14.8446 27.3199 14.8101 27.3189 14.7666C27.318 14.7232 27.3525 14.6872 27.3959 14.6862C27.4825 14.6843 27.5635 14.6473 27.624 14.5818C27.6825 14.5185 27.7122 14.4389 27.7077 14.3576C27.7052 14.3142 27.7384 14.2771 27.7818 14.2746C27.8157 14.2728 27.8457 14.2926 27.8585 14.322Z" fill="#FFF5F5"/>
<path d="M28.5985 16.2054L28.5985 16.2054C28.1481 16.9959 27.3391 17.3907 26.4388 17.2595L26.4388 17.2595C26.0813 17.2074 25.8303 16.8565 25.8957 16.4948L25.8957 16.4948C25.9552 16.1652 26.2194 15.9737 26.5004 15.9839C26.9267 15.9993 27.3048 15.8148 27.5549 15.4691C27.719 15.2424 28.0319 15.1502 28.3297 15.3067C28.6552 15.4778 28.7773 15.8915 28.5985 16.2054Z" fill="#553BF4" stroke="black" stroke-width="0.111388"/>
<g filter="url(#filter0_d_1811_4789)">
<path d="M27.9307 9.24385L27.9307 9.24385C27.4803 10.0343 26.6713 10.4292 25.7711 10.298L25.7711 10.298C25.4136 10.2459 25.1626 9.89502 25.228 9.53326L25.228 9.53325C25.2875 9.20369 25.5517 9.01216 25.8326 9.02234C26.259 9.03778 26.6371 8.85327 26.8872 8.50762C27.0513 8.28085 27.3642 8.18871 27.662 8.34519C27.9874 8.51623 28.1096 8.92998 27.9307 9.24385Z" fill="#4BEC78" stroke="black" stroke-width="0.111388"/>
</g>
<path d="M35.0399 16.2893L35.0399 16.2893C35.8756 15.9297 36.7592 16.1019 37.3988 16.749L37.3988 16.749C37.6527 17.0059 37.6417 17.4371 37.3716 17.6865L37.3716 17.6865C37.1255 17.9137 36.7993 17.9074 36.5812 17.7301C36.2502 17.4609 35.8372 17.3804 35.4294 17.5056C35.1618 17.5878 34.8565 17.4728 34.7131 17.1685C34.5563 16.836 34.7081 16.4321 35.0399 16.2893Z" fill="#F5CA32" stroke="black" stroke-width="0.111388"/>
<path d="M27.4459 15.2617L27.4459 15.2617C26.5383 15.3261 25.7607 14.8726 25.3699 14.0511L25.3699 14.0511C25.2147 13.7249 25.367 13.3212 25.7042 13.1747L25.7042 13.1747C26.0114 13.0412 26.3173 13.1545 26.4649 13.3939C26.6888 13.757 27.0522 13.969 27.4786 13.985C27.7583 13.9956 28.0087 14.2046 28.0439 14.5391C28.0824 14.9048 27.8062 15.2362 27.4459 15.2617Z" fill="#F5CA32" stroke="black" stroke-width="0.111388"/>
<path d="M33.447 15.4379L33.447 15.4379C33.4324 16.3476 32.913 17.0829 32.0606 17.4009L32.0606 17.4009C31.7222 17.5272 31.3333 17.3403 31.2166 16.9917L31.2166 16.9917C31.1103 16.6741 31.2498 16.3791 31.501 16.2529C31.8822 16.0614 32.125 15.7177 32.178 15.2944C32.2128 15.0166 32.4428 14.7853 32.7791 14.7793C33.1467 14.7727 33.4529 15.0767 33.447 15.4379Z" fill="#F5CA32" stroke="black" stroke-width="0.111388"/>
<path d="M32.022 17.2183C32.0152 17.2242 32.0072 17.229 31.9983 17.2324C31.8816 17.2759 31.7532 17.2692 31.6366 17.2135C31.5173 17.1566 31.4289 17.0575 31.3877 16.9346C31.374 16.8933 31.3962 16.8487 31.4374 16.8349C31.4787 16.8211 31.5232 16.8434 31.537 16.8846C31.5645 16.9667 31.6239 17.0331 31.7044 17.0714C31.7822 17.1086 31.867 17.1133 31.9433 17.0849C31.984 17.0697 32.0293 17.0904 32.0446 17.1311C32.0564 17.1629 32.0464 17.1975 32.022 17.2183Z" fill="#FFF5F5"/>
<path d="M36.9692 11.7251L36.9692 11.7251C37.6334 12.3468 37.8295 13.2254 37.4928 14.0706L37.4928 14.0706C37.3591 14.4062 36.9595 14.5688 36.6228 14.4212L36.6228 14.4212C36.3161 14.2867 36.1912 13.9853 36.2663 13.7143C36.3804 13.3032 36.2888 12.8926 36.0107 12.5691C35.8282 12.3568 35.8113 12.031 36.0327 11.7777C36.2746 11.5009 36.7054 11.4782 36.9692 11.7251Z" fill="#F5CA32" stroke="black" stroke-width="0.111388"/>
<path d="M37.3307 13.9769C37.3305 13.9859 37.3287 13.995 37.3252 14.0039C37.2791 14.1195 37.1879 14.2102 37.0683 14.2593C36.946 14.3094 36.8132 14.3084 36.6945 14.2563C36.6547 14.2389 36.6366 14.1924 36.654 14.1526C36.6715 14.1128 36.7179 14.0947 36.7578 14.1122C36.837 14.1469 36.9261 14.1475 37.0086 14.1136C37.0883 14.0809 37.1488 14.0213 37.179 13.9456C37.1951 13.9052 37.2408 13.8855 37.2812 13.9016C37.3127 13.9142 37.3316 13.9448 37.3307 13.9769Z" fill="#FFF5F5"/>
<path d="M31.8718 16.8423L31.8718 16.8423C32.5225 16.2064 33.409 16.0496 34.2383 16.4237L34.2383 16.4237C34.5676 16.5722 34.7123 16.9786 34.5498 17.3084L34.5498 17.3084C34.4018 17.6088 34.0951 17.7202 33.8278 17.633C33.4222 17.5008 33.0079 17.574 32.6723 17.8374C32.4521 18.0102 32.1259 18.0127 31.8827 17.7802C31.617 17.5262 31.6135 17.0948 31.8718 16.8423Z" fill="#553BF4" stroke="black" stroke-width="0.111388"/>
<path d="M34.1376 16.5808C34.1465 16.5815 34.1556 16.5837 34.1643 16.5876C34.2778 16.6388 34.3643 16.7339 34.408 16.8555C34.4526 16.98 34.4457 17.1126 34.3884 17.2288C34.3692 17.2678 34.322 17.2838 34.283 17.2647C34.244 17.2454 34.228 17.1982 34.2472 17.1593C34.2855 17.0816 34.29 16.9927 34.2598 16.9087C34.2307 16.8276 34.1738 16.7645 34.0996 16.731C34.06 16.7132 34.0423 16.6666 34.0602 16.6269C34.0741 16.5961 34.1056 16.5785 34.1376 16.5808Z" fill="#FFF5F5"/>
<path d="M38.2683 18.1273L38.2683 18.1273C37.6237 18.7693 36.7387 18.9344 35.9059 18.5682L35.9059 18.5682C35.5752 18.4228 35.4267 18.0178 35.5861 17.6865L35.5861 17.6865C35.7313 17.3847 36.0369 17.2704 36.305 17.355C36.7118 17.4835 37.1254 17.4063 37.4585 17.1397C37.6771 16.9649 38.0032 16.9594 38.2486 17.1895C38.5168 17.441 38.5243 17.8724 38.2683 18.1273Z" fill="#EE38C6" stroke="black" stroke-width="0.111388"/>
<path d="M38.0472 9.50734L38.0471 9.50734C37.4025 10.1493 36.5176 10.3145 35.6847 9.94825L35.6847 9.94825C35.354 9.80286 35.2055 9.39781 35.3649 9.06653L35.3649 9.06653C35.5101 8.76472 35.8157 8.65045 36.0838 8.73509C36.4906 8.86351 36.9042 8.78635 37.2374 8.5198C37.4559 8.34492 37.7821 8.33943 38.0274 8.56956C38.2956 8.8211 38.3031 9.25244 38.0472 9.50734Z" fill="#EE38C6" stroke="black" stroke-width="0.111388"/>
<path d="M37.2917 14.5474L37.2917 14.5474L37.2917 14.5474ZM37.2917 14.5474C36.3635 14.7823 35.5223 14.4526 35.0429 13.6705L35.0429 13.6704M37.2917 14.5474L35.0429 13.6704M35.0429 13.6704C34.8528 13.3603 34.9687 12.9064 35.3073 12.6877L35.3073 12.6877M35.0429 13.6704L35.3073 12.6877M35.3073 12.6877C35.614 12.4895 35.9381 12.5543 36.1103 12.7734C36.3766 13.1122 36.7723 13.2659 37.2119 13.2041M35.3073 12.6877L37.2119 13.2041M37.2119 13.2041C37.5001 13.1635 37.7755 13.3339 37.8437 13.6752M37.2119 13.2041L37.8437 13.6752M37.8983 13.6643C37.9792 14.0699 37.7062 14.5 37.3054 14.6014L35.277 12.641C35.605 12.429 35.962 12.4946 36.1541 12.7389C36.4076 13.0615 36.7833 13.2082 37.2041 13.1489C37.5215 13.1043 37.8244 13.2939 37.8983 13.6643ZM37.8983 13.6643L37.8437 13.6752M37.8983 13.6643L37.8437 13.6752L37.8437 13.6752" fill="#EE38C6" stroke="black" stroke-width="0.111388"/>
<path d="M35.2221 13.5751C35.2149 13.5697 35.2085 13.5629 35.2034 13.5547C35.1377 13.4473 35.1207 13.3141 35.1557 13.1796C35.1916 13.042 35.2759 12.9245 35.3932 12.8487C35.4326 12.8233 35.482 12.8338 35.5037 12.8721C35.5253 12.9105 35.5109 12.9622 35.4716 12.9876C35.3932 13.0382 35.3368 13.1172 35.3127 13.21C35.2893 13.2997 35.3001 13.3878 35.3432 13.458C35.3661 13.4954 35.3535 13.5474 35.3149 13.5742C35.2848 13.595 35.2478 13.5942 35.2221 13.5751Z" fill="#FFF5F5"/>
<path d="M32.0596 19.2171L32.0596 19.2171C31.1566 19.1058 30.4807 18.5112 30.2552 17.6298L30.2552 17.6298C30.1656 17.2798 30.3927 16.9131 30.7518 16.8341L30.7518 16.8341C31.0789 16.7622 31.3573 16.9322 31.4561 17.1955C31.606 17.5949 31.9219 17.8728 32.3372 17.9705C32.6097 18.0346 32.8152 18.2879 32.7855 18.623C32.7529 18.9892 32.4181 19.2613 32.0596 19.2171Z" fill="#EE38C6" stroke="black" stroke-width="0.111388"/>
<path d="M30.4405 17.6103C30.4354 17.6029 30.4315 17.5944 30.4291 17.5852C30.3982 17.4646 30.4186 17.3376 30.4863 17.2275C30.5556 17.115 30.6635 17.0376 30.7901 17.0098C30.8326 17.0004 30.8746 17.0273 30.8839 17.0697C30.8932 17.1122 30.8664 17.1542 30.8239 17.1635C30.7394 17.1821 30.6671 17.2341 30.6203 17.3101C30.5752 17.3834 30.5614 17.4673 30.5816 17.5462C30.5924 17.5883 30.567 17.6312 30.5248 17.6419C30.492 17.6503 30.4587 17.6367 30.4405 17.6103Z" fill="#FFF5F5"/>
<path d="M31.3211 12.3828L31.3211 12.3828C31.4032 11.4767 31.9756 10.782 32.8492 10.5281L32.8492 10.528C33.1961 10.4272 33.57 10.6424 33.6605 10.9987L33.6605 10.9987C33.743 11.3233 33.5821 11.6071 33.3221 11.7144C32.9278 11.8771 32.6603 12.2018 32.576 12.62C32.5207 12.8944 32.2741 13.108 31.9383 13.0891C31.5712 13.0684 31.2885 12.7426 31.3211 12.3828Z" fill="#EE38C6" stroke="black" stroke-width="0.111388"/>
<path d="M32.8753 10.713C32.8825 10.7077 32.8908 10.7034 32.9 10.7008C33.0196 10.666 33.1471 10.6822 33.2593 10.7464C33.3741 10.812 33.4549 10.9174 33.4868 11.043C33.4975 11.0852 33.472 11.128 33.4299 11.1387C33.3877 11.1494 33.3449 11.1239 33.3342 11.0818C33.3129 10.9979 33.2586 10.9273 33.1811 10.883C33.1064 10.8403 33.0221 10.8292 32.9439 10.8519C32.9022 10.864 32.8585 10.8401 32.8464 10.7983C32.8369 10.7658 32.8495 10.732 32.8753 10.713Z" fill="#FFF5F5"/>
<path d="M29.1271 18.8829L29.1271 18.8829C29.6141 18.1144 30.4408 17.7579 31.3339 17.9313L31.3339 17.9313C31.6885 18.0001 31.9228 18.3623 31.8405 18.7206L31.8405 18.7206C31.7656 19.047 31.4927 19.2259 31.2125 19.2026C30.7874 19.1672 30.4011 19.3337 30.135 19.6673C29.9604 19.8861 29.6435 19.9634 29.3534 19.7931C29.0364 19.607 28.9337 19.188 29.1271 18.8829Z" fill="#F43F3F" stroke="black" stroke-width="0.111388"/>
<path d="M35.831 17.8735L35.831 17.8735C35.309 18.6187 34.4668 18.9365 33.5827 18.7221L33.5827 18.7221C33.2316 18.637 33.0143 18.2643 33.1131 17.9102L33.1131 17.9102C33.203 17.5876 33.4838 17.4215 33.7626 17.4578C34.1857 17.5128 34.5793 17.3643 34.8605 17.0434C35.045 16.8329 35.3651 16.7702 35.647 16.9537C35.9552 17.1543 36.0383 17.5776 35.831 17.8735Z" fill="#F43F3F" stroke="black" stroke-width="0.111388"/>
<path d="M33.6523 18.549C33.6434 18.5501 33.6341 18.5496 33.6248 18.5474C33.5038 18.518 33.4012 18.4405 33.3358 18.329C33.2689 18.215 33.2513 18.0834 33.2861 17.9585C33.2978 17.9166 33.3412 17.8922 33.383 17.9039C33.4249 17.9155 33.4494 17.959 33.4377 18.0008C33.4144 18.0842 33.4265 18.1725 33.4716 18.2494C33.5152 18.3237 33.5828 18.3752 33.6619 18.3944C33.7041 18.4046 33.7301 18.4472 33.7198 18.4894C33.7119 18.5224 33.6842 18.5454 33.6523 18.549Z" fill="#FFF5F5"/>
<path d="M25.7868 11.1504L25.7869 11.1504C26.3974 10.4759 27.2726 10.265 28.1232 10.5876L28.1232 10.5876C28.461 10.7157 28.6303 11.1125 28.4884 11.4516L28.4884 11.4516C28.359 11.7605 28.0597 11.8905 27.7876 11.8198C27.3746 11.7127 26.9656 11.8112 26.6467 12.0946C26.4375 12.2806 26.1121 12.303 25.8552 12.0859C25.5743 11.8486 25.5444 11.4182 25.7868 11.1504Z" fill="#F43F3F" stroke="black" stroke-width="0.111388"/>
<path d="M28.0328 10.7506C28.0418 10.7507 28.0509 10.7523 28.0599 10.7557C28.1763 10.7998 28.2685 10.8895 28.3195 11.0082C28.3717 11.1297 28.3729 11.2624 28.3228 11.382C28.306 11.4221 28.2599 11.441 28.2198 11.4242C28.1797 11.4074 28.1608 11.3613 28.1776 11.3212C28.2111 11.2414 28.2101 11.1523 28.1749 11.0704C28.1408 10.9912 28.0802 10.9317 28.004 10.9028C27.9634 10.8874 27.9429 10.842 27.9584 10.8013C27.9704 10.7697 28.0007 10.7502 28.0328 10.7506Z" fill="#FFF5F5"/>
<path d="M37.9917 14.7427L37.9917 14.7427C37.5161 15.5183 36.6948 15.8869 35.7992 15.7268L35.7992 15.7268C35.4436 15.6632 35.204 15.3045 35.281 14.945L35.281 14.945C35.3511 14.6175 35.6213 14.4346 35.9018 14.4538C36.3274 14.483 36.7112 14.3107 36.9724 13.9733C37.1437 13.7519 37.4594 13.6699 37.752 13.8359C38.0718 14.0173 38.1806 14.4348 37.9917 14.7427Z" fill="#F43F3F" stroke="black" stroke-width="0.111388"/>
<path d="M34.9806 8.76829L34.9806 8.76829C34.3267 9.40082 33.4394 9.55306 32.612 9.17474L32.612 9.17474C32.2835 9.02454 32.1409 8.61737 32.305 8.28845L32.3051 8.28844C32.4546 7.98879 32.7618 7.87898 33.0287 7.96752C33.4336 8.10185 33.8483 8.03072 34.1853 7.76905C34.4064 7.59737 34.7325 7.59664 34.9745 7.83032C35.239 8.08573 35.2403 8.51714 34.9806 8.76829Z" fill="#F43F3F" stroke="black" stroke-width="0.111388"/>
<path d="M33.6966 20.1282L33.6966 20.1282C32.8455 19.8067 32.3292 19.0692 32.3183 18.1595L32.3183 18.1595C32.314 17.7983 32.6213 17.4956 32.9889 17.5037L32.9889 17.5037C33.3237 17.5111 33.5541 17.7421 33.5879 18.0212C33.6392 18.4448 33.8805 18.7894 34.2609 18.9825C34.5106 19.1092 34.6504 19.4039 34.5423 19.7224C34.4242 20.0706 34.0346 20.2559 33.6966 20.1282Z" fill="#3AE2F8" stroke="black" stroke-width="0.111388"/>
<path d="M32.5035 18.1845C32.5003 18.1761 32.4985 18.167 32.4983 18.1575C32.4969 18.033 32.5466 17.9143 32.6384 17.8234C32.7324 17.7304 32.8555 17.6808 32.9851 17.6836C33.0286 17.6846 33.063 17.7206 33.0621 17.7641C33.0611 17.8075 33.0251 17.842 32.9816 17.841C32.8951 17.8391 32.8125 17.8726 32.7492 17.9353C32.688 17.9959 32.6548 18.0742 32.6557 18.1556C32.6563 18.199 32.6215 18.2347 32.578 18.2352C32.5441 18.2356 32.5149 18.2145 32.5035 18.1845Z" fill="#FFF5F5"/>
<path d="M27.3055 17.814L27.3055 17.814C28.1899 17.6004 29.0318 17.919 29.5532 18.6646L29.5532 18.6646C29.7602 18.9607 29.6767 19.3839 29.3684 19.5842L29.3684 19.5842C29.0875 19.7666 28.767 19.7055 28.5819 19.4939C28.301 19.1728 27.9076 19.0239 27.4844 19.0785C27.2068 19.1144 26.9253 18.9497 26.8352 18.6256C26.7367 18.2713 26.9544 17.8988 27.3055 17.814Z" fill="#3AE2F8" stroke="black" stroke-width="0.111388"/>
<path d="M37.257 11.0251L37.257 11.0251C36.4429 11.4313 35.551 11.3092 34.876 10.6992L34.876 10.6992C34.6079 10.4571 34.5946 10.0258 34.8502 9.76164L34.8502 9.76164C35.0831 9.52095 35.4091 9.50879 35.6369 9.67359C35.9826 9.92365 36.3994 9.98072 36.7996 9.83271C37.0621 9.7356 37.3734 9.83315 37.5337 10.1289C37.709 10.4521 37.5802 10.8638 37.257 11.0251Z" fill="#3AE2F8" stroke="black" stroke-width="0.111388"/>
<path d="M35.0198 10.5804C35.0114 10.577 35.0035 10.5721 34.9964 10.5658C34.904 10.4823 34.8508 10.3652 34.8464 10.236C34.842 10.1039 34.8892 9.97982 34.9793 9.88665C35.0096 9.85541 35.0594 9.85462 35.0907 9.88482C35.1219 9.91507 35.1227 9.96488 35.0925 9.99613C35.0323 10.0583 35.0008 10.1416 35.0038 10.2308C35.0067 10.3169 35.0415 10.3944 35.1019 10.449C35.1342 10.4781 35.1367 10.5279 35.1076 10.5601C35.0848 10.5853 35.0495 10.5923 35.0198 10.5804Z" fill="#FFF5F5"/>
<path d="M30.3436 9.34841L30.3436 9.34841C31.228 9.13477 32.0699 9.4534 32.5913 10.199L32.5913 10.199C32.7983 10.495 32.7148 10.9183 32.4065 11.1186L32.4065 11.1186C32.1256 11.301 31.8051 11.2399 31.62 11.0283C31.3391 10.7072 30.9456 10.5583 30.5225 10.6129C30.2449 10.6488 29.9634 10.4841 29.8733 10.16C29.7748 9.80571 29.9925 9.43322 30.3436 9.34841Z" fill="#3AE2F8" stroke="black" stroke-width="0.111388"/>
<path d="M32.4251 10.2827C32.4325 10.2879 32.4392 10.2944 32.4447 10.3022C32.516 10.4042 32.5417 10.5303 32.517 10.6571C32.4917 10.7869 32.418 10.8972 32.3093 10.9679C32.2728 10.9915 32.2241 10.9812 32.2004 10.9447C32.1767 10.9083 32.1871 10.8595 32.2235 10.8358C32.2961 10.7887 32.3455 10.7146 32.3625 10.627C32.3789 10.5425 32.3623 10.4591 32.3156 10.3924C32.2908 10.3568 32.2994 10.3077 32.3351 10.2828C32.3628 10.2634 32.3988 10.2644 32.4251 10.2827Z" fill="#FFF5F5"/>
<path d="M28.3257 17.5417L28.3257 17.5417C27.8838 18.3369 27.079 18.7404 26.1774 18.6188L26.1774 18.6188C25.8194 18.5705 25.5646 18.2223 25.6262 17.8599L25.6262 17.8599C25.6822 17.5297 25.9443 17.3354 26.2254 17.3425C26.6519 17.3534 27.028 17.1649 27.2744 16.8166C27.4361 16.5881 27.748 16.4926 28.0474 16.6459C28.3747 16.8135 28.5012 17.2259 28.3257 17.5417Z" fill="#F5CA32" stroke="black" stroke-width="0.111388"/>
<path d="M26.2289 18.4394C26.2201 18.4413 26.2108 18.4418 26.2014 18.4406C26.078 18.4239 25.9679 18.3574 25.8913 18.2533C25.813 18.1468 25.7818 18.0178 25.8034 17.89C25.8107 17.8471 25.8514 17.8183 25.8942 17.8256C25.9371 17.8329 25.9659 17.8735 25.9586 17.9164C25.9441 18.0017 25.9652 18.0882 26.0181 18.1601C26.0692 18.2294 26.1417 18.2737 26.2224 18.2846C26.2655 18.2904 26.2957 18.33 26.2899 18.3731C26.2854 18.4067 26.2602 18.4324 26.2289 18.4394Z" fill="#FFF5F5"/>
<path d="M36.9185 7.27662L36.9185 7.27663C36.6153 8.1344 35.889 8.66634 34.9797 8.69668L34.9797 8.69668C34.6187 8.70876 34.3095 8.40792 34.3097 8.04029L34.3097 8.04029C34.31 7.70538 34.536 7.47009 34.8143 7.43033C35.2367 7.36999 35.5761 7.12142 35.761 6.73692C35.8824 6.48466 36.174 6.33855 36.4948 6.4398C36.8454 6.55047 37.0389 6.93603 36.9185 7.27662Z" fill="#F5CA32" stroke="black" stroke-width="0.111388"/>
<rect x="36.6436" y="7.85928" width="1.11388" height="12.0299" rx="0.556942" fill="url(#paint0_linear_1811_4789)" fill-opacity="0.4"/>
<rect width="1.11388" height="12.0299" rx="0.556942" transform="matrix(-1 0 0 1 27.4529 7.85928)" fill="url(#paint1_linear_1811_4789)" fill-opacity="0.4"/>
<rect width="1.28097" height="12.0299" rx="0.640483" transform="matrix(0 1 1 0 26.0051 18.4411)" fill="url(#paint2_linear_1811_4789)" fill-opacity="0.4"/>
<path d="M28.6602 9.57751L28.6602 9.57751C28.2182 10.3728 27.4135 10.7762 26.5119 10.6546L26.5119 10.6546C26.1539 10.6064 25.8991 10.2582 25.9607 9.89574L25.9607 9.89574C26.0167 9.56556 26.2788 9.37122 26.5599 9.3784C26.9863 9.38929 27.3624 9.20076 27.6089 8.85246C27.7705 8.62395 28.0824 8.52848 28.3819 8.68177C28.7091 8.84933 28.8357 9.26175 28.6602 9.57751Z" fill="#F5CA32" stroke="black" stroke-width="0.111388"/>
<path d="M26.5629 10.4752C26.5541 10.4771 26.5448 10.4776 26.5354 10.4764C26.412 10.4597 26.3019 10.3932 26.2253 10.2891C26.1469 10.1826 26.1157 10.0536 26.1374 9.9258C26.1447 9.88293 26.1854 9.85412 26.2282 9.86137C26.2711 9.86866 26.2999 9.90931 26.2926 9.95216C26.2781 10.0375 26.2992 10.124 26.3521 10.1959C26.4031 10.2652 26.4757 10.3095 26.5564 10.3204C26.5995 10.3262 26.6297 10.3658 26.6239 10.4089C26.6193 10.4425 26.5942 10.4682 26.5629 10.4752Z" fill="#FFF5F5"/>
<g opacity="0.3" filter="url(#filter1_f_1811_4789)">
<mask id="path-96-outside-1_1811_4789" maskUnits="userSpaceOnUse" x="27.6405" y="13.9073" width="8.18897" height="5.3083" fill="black">
<rect fill="white" x="27.6405" y="13.9073" width="8.18897" height="5.3083"/>
<path fill-rule="evenodd" clip-rule="evenodd" d="M28.7214 15.1779C28.7197 15.188 28.7181 15.198 28.7165 15.2082C28.5034 16.602 29.7848 18.0634 31.5786 18.4723C33.3724 18.8812 34.9993 18.0827 35.2124 16.6888C35.2605 16.3748 35.2326 16.0572 35.1401 15.7491L28.7214 15.1779Z"/>
</mask>
<path d="M28.7165 15.2082L28.4963 15.1745L28.4963 15.1745L28.7165 15.2082ZM28.7214 15.1779L28.7411 14.956L28.536 14.9378L28.5017 15.1409L28.7214 15.1779ZM31.5786 18.4723L31.6281 18.2551L31.6281 18.2551L31.5786 18.4723ZM35.2124 16.6888L35.4326 16.7225L35.4326 16.7225L35.2124 16.6888ZM35.1401 15.7491L35.3534 15.685L35.3101 15.5406L35.1598 15.5272L35.1401 15.7491ZM28.9367 15.2418C28.9381 15.2328 28.9395 15.2239 28.9411 15.215L28.5017 15.1409C28.4998 15.152 28.498 15.1632 28.4963 15.1745L28.9367 15.2418ZM31.6281 18.2551C30.7747 18.0606 30.0479 17.6164 29.5625 17.0627C29.0763 16.5082 28.8425 15.8581 28.9367 15.2418L28.4963 15.1745C28.3774 15.952 28.6778 16.7296 29.2274 17.3565C29.7778 17.9842 30.5887 18.4751 31.5291 18.6895L31.6281 18.2551ZM34.9922 16.6552C34.8986 17.2675 34.4945 17.76 33.8901 18.0566C33.2839 18.3541 32.4817 18.4497 31.6281 18.2551L31.5291 18.6895C32.4692 18.9038 33.3774 18.8046 34.0864 18.4566C34.7972 18.1077 35.3132 17.504 35.4326 16.7225L34.9922 16.6552ZM34.9267 15.8132C35.0106 16.0925 35.0348 16.3766 34.9922 16.6552L35.4326 16.7225C35.4861 16.3729 35.4546 16.022 35.3534 15.685L34.9267 15.8132ZM35.1598 15.5272L28.7411 14.956L28.7016 15.3998L35.1203 15.971L35.1598 15.5272Z" fill="white" mask="url(#path-96-outside-1_1811_4789)"/>
<path fill-rule="evenodd" clip-rule="evenodd" d="M28.7213 15.1781C28.7197 15.1881 28.7181 15.1981 28.7165 15.2082C28.5034 16.602 29.7848 18.0634 31.5786 18.4723C33.3724 18.8812 34.9993 18.0827 35.2124 16.6889C35.2604 16.3748 35.2326 16.0574 35.1401 15.7493L28.7213 15.1781Z" fill="white"/>
</g>
<g opacity="0.3" filter="url(#filter2_f_1811_4789)">
<ellipse cx="29.7026" cy="11.4098" rx="1.86714" ry="2.80071" transform="rotate(-1 29.7026 11.4098)" fill="white"/>
<path d="M29.7534 14.3215C30.3178 14.3116 30.8091 13.9598 31.151 13.4271C31.4934 12.8935 31.6947 12.1675 31.6808 11.3753C31.667 10.5831 31.4405 9.8646 31.0797 9.3433C30.7194 8.82276 30.2161 8.48833 29.6518 8.49818C29.0874 8.50803 28.5961 8.85983 28.2542 9.39262C27.9118 9.9262 27.7105 10.6522 27.7244 11.4444C27.7382 12.2366 27.9647 12.9551 28.3255 13.4764C28.6858 13.9969 29.1891 14.3313 29.7534 14.3215Z" stroke="white" stroke-width="0.222777"/>
</g>
<g opacity="0.3" filter="url(#filter3_f_1811_4789)">
<ellipse cx="34.2152" cy="11.4096" rx="1.86714" ry="2.80071" transform="rotate(1 34.2152 11.4096)" fill="white"/>
<path d="M34.1644 14.3212C34.7287 14.3311 35.232 13.9966 35.5923 13.4761C35.9531 12.9548 36.1796 12.2363 36.1934 11.4441C36.2072 10.6519 36.006 9.92593 35.6636 9.39235C35.3217 8.85955 34.8304 8.50776 34.266 8.49791C33.7017 8.48806 33.1984 8.82249 32.8381 9.34303C32.4773 9.86433 32.2508 10.5828 32.237 11.375C32.2231 12.1672 32.4244 12.8932 32.7668 13.4268C33.1087 13.9596 33.6 14.3114 34.1644 14.3212Z" stroke="white" stroke-width="0.222777"/>
</g>
<mask id="path-103-outside-2_1811_4789" maskUnits="userSpaceOnUse" x="27.6073" y="13.9078" width="8.18897" height="5.3083" fill="black">
<rect fill="white" x="27.6073" y="13.9078" width="8.18897" height="5.3083"/>
<path fill-rule="evenodd" clip-rule="evenodd" d="M28.6881 15.1785C28.6864 15.1884 28.6848 15.1984 28.6833 15.2084C28.4702 16.6023 29.7516 18.0637 31.5454 18.4725C33.3392 18.8814 34.9661 18.0829 35.1792 16.6891C35.2272 16.3751 35.1994 16.0577 35.107 15.7497L28.6881 15.1785Z"/>
</mask>
<path d="M28.6833 15.2084L28.9035 15.2421L28.9035 15.2421L28.6833 15.2084ZM28.6881 15.1785L28.7079 14.9566L28.5027 14.9383L28.4684 15.1415L28.6881 15.1785ZM31.5454 18.4725L31.5949 18.2553L31.5454 18.4725ZM35.1792 16.6891L35.3994 16.7228L35.3994 16.7228L35.1792 16.6891ZM35.107 15.7497L35.3203 15.6856L35.277 15.5411L35.1267 15.5278L35.107 15.7497ZM28.9035 15.2421C28.9049 15.2332 28.9063 15.2243 28.9078 15.2155L28.4684 15.1415C28.4666 15.1525 28.4648 15.1636 28.4631 15.1747L28.9035 15.2421ZM31.5949 18.2553C30.7414 18.0608 30.0147 17.6166 29.5292 17.063C29.0431 16.5085 28.8093 15.8584 28.9035 15.2421L28.4631 15.1747C28.3442 15.9523 28.6446 16.7298 29.1942 17.3567C29.7446 17.9844 30.5555 18.4754 31.4959 18.6897L31.5949 18.2553ZM34.959 16.6554C34.8654 17.2678 34.4613 17.7602 33.8569 18.0568C33.2507 18.3544 32.4485 18.4499 31.5949 18.2553L31.4959 18.6897C32.436 18.904 33.3442 18.8048 34.0532 18.4568C34.764 18.108 35.2799 17.5042 35.3994 16.7228L34.959 16.6554ZM34.8936 15.8137C34.9774 16.0929 35.0016 16.3769 34.959 16.6554L35.3994 16.7228C35.4529 16.3733 35.4214 16.0225 35.3203 15.6856L34.8936 15.8137ZM35.1267 15.5278L28.7079 14.9566L28.6684 15.4004L35.0872 15.9716L35.1267 15.5278Z" fill="#272B42" mask="url(#path-103-outside-2_1811_4789)"/>
<path fill-rule="evenodd" clip-rule="evenodd" d="M28.6881 15.1784C28.6864 15.1883 28.6848 15.1983 28.6833 15.2083C28.4702 16.6021 29.7516 18.0635 31.5454 18.4724C33.3392 18.8813 34.9661 18.0828 35.1792 16.689C35.2272 16.375 35.1994 16.0576 35.107 15.7496L28.6881 15.1784Z" fill="#272B42"/>
<path fill-rule="evenodd" clip-rule="evenodd" d="M35.1895 16.6116L28.7251 16.0364C28.6575 15.7635 28.6411 15.4846 28.6833 15.2083L28.6881 15.1784L35.107 15.7496C35.1918 16.0323 35.2222 16.323 35.1895 16.6116Z" fill="white"/>
<path fill-rule="evenodd" clip-rule="evenodd" d="M34.2094 18.1298C33.8459 17.6958 33.0364 17.4137 32.108 17.45C31.3915 17.4779 30.7603 17.6895 30.3585 17.9966C30.7225 18.2071 31.1318 18.3708 31.572 18.4712C32.5764 18.7001 33.5285 18.5505 34.2094 18.1298Z" fill="#272B42"/>
<g opacity="0.3" filter="url(#filter4_f_1811_4789)">
<ellipse cx="29.6779" cy="11.4038" rx="2.22384" ry="3.23409" transform="rotate(-1 29.6779 11.4038)" fill="white"/>
</g>
<path d="M29.7217 14.3117C30.286 14.3018 30.7773 13.95 31.1192 13.4172C31.4617 12.8837 31.6629 12.1577 31.6491 11.3655C31.6353 10.5733 31.4088 9.85479 31.048 9.33349C30.6877 8.81295 30.1844 8.47852 29.62 8.48837C29.0557 8.49822 28.5644 8.85002 28.2225 9.38281C27.8801 9.91639 27.6788 10.6424 27.6926 11.4346C27.7065 12.2268 27.9329 12.9453 28.2938 13.4666C28.6541 13.9871 29.1573 14.3215 29.7217 14.3117Z" fill="white" stroke="#272B42" stroke-width="0.222777"/>
<path fill-rule="evenodd" clip-rule="evenodd" d="M28.0633 12.7576C27.9744 12.4415 27.9226 12.0963 27.9162 11.7344C27.8892 10.1878 28.7032 8.91949 29.7342 8.90149C30.4358 8.88925 31.0571 9.45904 31.391 10.3117C31.1001 9.27718 30.4121 8.55345 29.6223 8.56723C28.5913 8.58523 27.7774 9.85355 27.8044 11.4001C27.813 11.8943 27.9065 12.3572 28.0633 12.7576Z" fill="#D3D2D3"/>
<ellipse cx="30.1574" cy="11.674" rx="0.766474" ry="1.14971" transform="rotate(-2 30.1574 11.674)" fill="#272B42"/>
<ellipse cx="29.7978" cy="10.7109" rx="0.261826" ry="0.392739" transform="rotate(-2 29.7978 10.7109)" fill="white"/>
<ellipse cx="29.7978" cy="10.7109" rx="0.261826" ry="0.392739" transform="rotate(-2 29.7978 10.7109)" fill="white"/>
<path d="M34.1636 14.3212C34.728 14.331 35.2313 13.9966 35.5916 13.476C35.9524 12.9547 36.1789 12.2362 36.1927 11.444C36.2065 10.6518 36.0053 9.92586 35.6628 9.39229C35.3209 8.85949 34.8296 8.5077 34.2653 8.49785C33.7009 8.488 33.1977 8.82243 32.8374 9.34297C32.4765 9.86427 32.2501 10.5828 32.2362 11.375C32.2224 12.1672 32.4237 12.8931 32.7661 13.4267C33.108 13.9595 33.5993 14.3113 34.1636 14.3212Z" fill="white" stroke="#272B42" stroke-width="0.222777"/>
<path fill-rule="evenodd" clip-rule="evenodd" d="M35.8108 12.8234C35.9678 12.4175 36.0613 11.9484 36.0699 11.4474C36.0969 9.88026 35.283 8.59507 34.2519 8.57683C33.4624 8.56286 32.7744 9.29596 32.4834 10.3439C32.8174 9.48017 33.4386 8.90297 34.14 8.91538C35.1711 8.93362 35.985 10.2188 35.958 11.7859C35.9517 12.153 35.8998 12.5029 35.8108 12.8234Z" fill="#D3D2D3"/>
<ellipse cx="33.7252" cy="11.6836" rx="0.766474" ry="1.14971" transform="rotate(2 33.7252 11.6836)" fill="#272B42"/>
<ellipse cx="34.0529" cy="10.7204" rx="0.261826" ry="0.392739" transform="rotate(2 34.0529 10.7204)" fill="white"/>
<ellipse cx="34.0529" cy="10.7204" rx="0.261826" ry="0.392739" transform="rotate(2 34.0529 10.7204)" fill="white"/>
</g>
<path d="M26.2283 5.13028H37.7013V16.9374C37.7013 18.5369 36.4047 19.8335 34.8052 19.8335H29.1244C27.525 19.8335 26.2283 18.5369 26.2283 16.9374V5.13028Z" stroke="#272B42" stroke-width="0.222777"/>
<g filter="url(#filter5_d_1811_4789)">
<path fill-rule="evenodd" clip-rule="evenodd" d="M39.5465 7.7957C39.3546 8.10673 39.0572 8.33945 38.708 8.45201C38.9856 8.60553 39.2088 8.84057 39.3468 9.125C39.4853 9.41028 39.5314 9.73123 39.4788 10.0436C39.4262 10.356 39.2774 10.6446 39.053 10.8695C38.8285 11.0944 38.5395 11.2446 38.2256 11.2994C38.3357 11.5082 38.3915 11.7411 38.3877 11.9768C38.3839 12.2125 38.3208 12.4435 38.204 12.6487C38.0873 12.8538 37.9207 13.0267 37.7194 13.1514L37.7007 13.1628V11.4237C37.7007 11.1114 37.4865 10.8492 37.197 10.7758L37.1971 10.7345V10.6631C36.8077 10.2461 36.4866 9.56 36.566 8.55437C35.7217 8.41274 35.5133 7.91643 35.5133 7.35385C35.5137 7.31029 35.5168 7.2668 35.5228 7.22365C35.339 7.36586 35.117 7.45082 34.8847 7.46783C34.6524 7.48484 34.4202 7.43314 34.2174 7.31924C34.0146 7.20534 33.8502 7.03434 33.745 6.82777C33.6399 6.62121 33.5985 6.38832 33.6263 6.15845C33.4841 6.23413 33.3279 6.28011 33.1672 6.29357C33.0065 6.30703 32.8447 6.28769 32.6918 6.23674C32.5389 6.18579 32.3981 6.1043 32.278 5.99728C32.1579 5.89025 32.0612 5.75996 31.9936 5.61441C31.9841 5.59397 31.9688 5.57667 31.9497 5.56454C31.9306 5.55242 31.9084 5.54598 31.8857 5.54598C31.863 5.54598 31.8408 5.55242 31.8216 5.56454C31.8025 5.57667 31.7873 5.59397 31.7777 5.61441C31.7102 5.75996 31.6134 5.89025 31.4933 5.99728C31.3733 6.1043 31.2325 6.18579 31.0796 6.23674C30.9267 6.28769 30.7649 6.30703 30.6042 6.29357C30.4435 6.28011 30.2873 6.23413 30.1451 6.15845C30.1738 6.38862 30.1331 6.62209 30.0282 6.82924C29.9232 7.0364 29.7587 7.2079 29.5555 7.32201C29.3524 7.43611 29.1197 7.48768 28.887 7.47017C28.6543 7.45266 28.4321 7.36686 28.2485 7.22365C28.2545 7.2668 28.2577 7.31029 28.258 7.35385C28.258 7.91643 28.0496 8.41274 27.2054 8.55437C27.2863 9.55842 26.9636 10.2461 26.5742 10.6631V10.7345C26.5742 10.7528 26.5743 10.7711 26.5745 10.7893C26.3087 10.8776 26.117 11.1283 26.117 11.4237V13.1908C26.0953 13.1789 26.0739 13.1664 26.0527 13.1533C25.8515 13.0286 25.6848 12.8558 25.5681 12.6506C25.4513 12.4454 25.3882 12.2144 25.3844 11.9787C25.3807 11.743 25.4364 11.5102 25.5465 11.3014C25.2327 11.2465 24.9436 11.0963 24.7192 10.8714C24.4947 10.6465 24.346 10.358 24.2933 10.0456C24.2407 9.7332 24.2868 9.41226 24.4253 9.12697C24.5638 8.84168 24.7879 8.60607 25.0666 8.45258C24.7172 8.34009 24.4197 8.10728 24.2276 7.7961C24.0355 7.48491 23.9615 7.11579 24.019 6.7552C24.0764 6.39462 24.2615 6.06626 24.5409 5.82927C24.8203 5.59228 25.1757 5.46222 25.543 5.46252C25.5902 5.46252 25.637 5.46528 25.6835 5.46962C25.4981 5.21839 25.3943 4.91696 25.3858 4.60555C25.3773 4.29414 25.4645 3.98756 25.6359 3.72671C25.8072 3.46586 26.0546 3.26315 26.3448 3.14563C26.6351 3.02811 26.9546 3.00137 27.2605 3.06897C27.1943 2.75205 27.2307 2.42242 27.3647 2.12738C27.4986 1.83233 27.7232 1.58706 28.0061 1.42676C28.289 1.26645 28.6158 1.19937 28.9395 1.23513C29.2631 1.2709 29.5671 1.40767 29.8077 1.62582C29.9964 1.2389 30.291 0.912659 30.6577 0.684488C31.0243 0.456316 31.4483 0.335448 31.8809 0.335736H31.892C32.3246 0.335448 32.7486 0.456316 33.1153 0.684488C33.482 0.912659 33.7765 1.2389 33.9652 1.62582C34.2059 1.40794 34.5098 1.27141 34.8334 1.23579C35.157 1.20016 35.4836 1.26728 35.7664 1.42752C36.0492 1.58776 36.2737 1.83289 36.4078 2.12777C36.5418 2.42265 36.5784 2.75212 36.5124 3.06897C36.8184 3.00113 37.1379 3.02768 37.4284 3.14506C37.7188 3.26245 37.9663 3.46509 38.1378 3.72593C38.3093 3.98677 38.3967 4.2934 38.3882 4.60489C38.3798 4.91639 38.276 5.21791 38.0906 5.46923C38.1371 5.46489 38.1839 5.46212 38.2312 5.46212C38.5985 5.46183 38.9538 5.59189 39.2332 5.82888C39.5126 6.06587 39.6977 6.39422 39.7552 6.75481C39.8126 7.11539 39.7386 7.48452 39.5465 7.7957Z" fill="#272B42"/>
</g>
<path fill-rule="evenodd" clip-rule="evenodd" d="M27.7933 3.05946C27.8545 2.40896 28.4021 1.89993 29.0686 1.89993C29.2119 1.89993 29.3496 1.92344 29.4782 1.9668C29.2928 1.78753 29.0403 1.67722 28.762 1.67722C28.193 1.67722 27.7317 2.13852 27.7317 2.70756C27.7317 2.83115 27.7534 2.94965 27.7933 3.05946Z" fill="#4BEC78"/>
<path fill-rule="evenodd" clip-rule="evenodd" d="M36.1122 3.0666C36.1022 2.93026 36.07 2.79322 36.0136 2.66035C35.7538 2.04752 35.0728 1.74205 34.4507 1.93811C34.536 1.85896 34.6362 1.79302 34.7495 1.74497C35.2734 1.52284 35.8782 1.76747 36.1003 2.29137C36.2094 2.54857 36.2059 2.82526 36.1122 3.0666Z" fill="#F54B4B"/>
<path fill-rule="evenodd" clip-rule="evenodd" d="M38.9487 7.98596C39.1751 7.86233 39.3556 7.65406 39.4384 7.38835C39.6078 6.84509 39.3046 6.26741 38.7614 6.09806C38.6437 6.06137 38.5244 6.04686 38.408 6.05216C39.0103 6.30438 39.333 6.97839 39.1347 7.61444C39.092 7.75135 39.0285 7.87599 38.9487 7.98596Z" fill="#3AE2F8"/>
<path fill-rule="evenodd" clip-rule="evenodd" d="M38.5039 10.9254C38.7534 10.8593 38.9785 10.6999 39.1223 10.4613C39.416 9.97396 39.259 9.34076 38.7716 9.04705C38.666 8.98341 38.5536 8.94093 38.4392 8.91838C38.9641 9.30668 39.1171 10.038 38.7733 10.6086C38.6992 10.7315 38.6077 10.8376 38.5039 10.9254Z" fill="#7D6AF7"/>
<path fill-rule="evenodd" clip-rule="evenodd" d="M36.5422 3.66657C37.195 3.65926 37.7584 4.14972 37.8288 4.81202C37.8441 4.95505 37.8351 5.09508 37.8053 5.22804C37.9647 5.02453 38.0481 4.76121 38.0186 4.48388C37.9584 3.91803 37.4508 3.50813 36.885 3.56833C36.7623 3.58138 36.647 3.61545 36.5422 3.66657Z" fill="#4BEC78"/>
<path fill-rule="evenodd" clip-rule="evenodd" d="M33.3404 1.77363C33.2034 1.63838 33.0438 1.51529 32.8642 1.41054C32.0344 0.926623 31.0738 1.00679 30.6396 1.5726C30.6504 1.44109 30.6883 1.31456 30.7558 1.19893C31.0681 0.66335 31.8964 0.564534 32.6057 0.978223C32.9534 1.18101 33.208 1.4693 33.3404 1.77363Z" fill="#EF4ACB"/>
<path fill-rule="evenodd" clip-rule="evenodd" d="M27.3765 3.68582C27.2412 3.67724 27.1022 3.69016 26.9641 3.72714C26.32 3.89951 25.9225 4.53326 26.032 5.17773C25.9649 5.0818 25.913 4.97269 25.881 4.853C25.7339 4.3033 26.0602 3.73842 26.6099 3.59131C26.8787 3.51939 27.151 3.56063 27.3765 3.68582Z" fill="#7D6AF7"/>
<path fill-rule="evenodd" clip-rule="evenodd" d="M24.9628 8.02492C24.5473 7.52127 24.5756 6.77469 25.0471 6.30415C25.1486 6.20286 25.2629 6.12214 25.3847 6.06198C25.1269 6.06608 24.8703 6.16636 24.6734 6.36286C24.2706 6.76482 24.2699 7.41719 24.6719 7.81999C24.7588 7.90712 24.8575 7.97543 24.9628 8.02492Z" fill="#F54B4B"/>
<path fill-rule="evenodd" clip-rule="evenodd" d="M25.4326 10.9831C24.9106 10.5907 24.7634 9.85806 25.1119 9.2902C25.1868 9.16811 25.2788 9.063 25.3831 8.97606C25.1336 9.04043 24.9078 9.19789 24.7624 9.43485C24.4648 9.91988 24.6167 10.5543 25.1017 10.8519C25.2067 10.9163 25.3186 10.9596 25.4326 10.9831Z" fill="#EF4ACB"/>
<path fill-rule="evenodd" clip-rule="evenodd" d="M28.4054 5.28943C28.3927 4.63623 28.8793 4.06863 29.5415 3.99332C29.6838 3.97712 29.8234 3.98493 29.9561 4.0135C29.7516 3.85627 29.4882 3.77516 29.2117 3.80662C28.6463 3.87092 28.2401 4.3814 28.3044 4.9468C28.3184 5.06958 28.3534 5.18485 28.4054 5.28943Z" fill="#EF4ACB"/>
<path fill-rule="evenodd" clip-rule="evenodd" d="M27.5913 6.59684C27.456 6.58825 27.317 6.60116 27.1788 6.63815C26.5347 6.8105 26.1373 7.44408 26.2467 8.08846C26.1796 7.99259 26.1278 7.88359 26.0958 7.76401C25.9487 7.21431 26.2751 6.64944 26.8248 6.50233C27.0935 6.4304 27.3659 6.47165 27.5913 6.59684Z" fill="#3AE2F8"/>
<path fill-rule="evenodd" clip-rule="evenodd" d="M31.0738 3.89989C31.5596 3.46286 32.3074 3.45969 32.7976 3.91151C32.9027 4.00847 32.988 4.11894 33.0531 4.23782C33.0382 3.98056 32.9273 3.72856 32.7229 3.5401C32.3045 3.15441 31.6527 3.18092 31.267 3.5993C31.1832 3.69019 31.1188 3.7921 31.0738 3.89989Z" fill="#3AE2F8"/>
<path fill-rule="evenodd" clip-rule="evenodd" d="M36.5182 6.57297C37.1616 6.68616 37.6249 7.27267 37.5716 7.93692C37.5601 8.07962 37.5257 8.21498 37.4722 8.33965C37.6655 8.16922 37.7955 7.92654 37.8177 7.6494C37.8633 7.08218 37.4404 6.58544 36.8732 6.53989C36.7502 6.53002 36.6306 6.54214 36.5182 6.57297Z" fill="#F54B4B"/>
<path d="M33.4287 5.0336L35.0935 2.68497L35.3896 2.89251L33.7248 5.24114L34.0208 5.44867L35.6857 3.10002L35.9817 3.30756L34.3169 5.6562L34.613 5.86373L36.2778 3.51509L36.5738 3.72262L34.909 6.07126L35.2051 6.27879L36.8699 3.93015L37.1659 4.13768L35.5011 6.48632L35.7972 6.69385L37.6701 4.05164C37.809 3.85559 37.8627 3.61731 37.8212 3.38069C37.7797 3.14408 37.6479 2.93744 37.4502 2.79886L37.3947 2.75994L37.6907 2.34229C37.8092 2.17511 37.984 2.05374 38.1829 2.00051C38.4002 1.94237 38.581 1.7938 38.6791 1.59291C38.7763 1.39381 38.782 1.16293 38.6948 0.959494C38.6074 0.755678 38.452 0.571392 38.2454 0.426592C38.0322 0.277138 37.7985 0.193188 37.5696 0.183831C37.516 0.181648 37.4628 0.185156 37.4108 0.194037C37.2522 0.221114 37.1043 0.298107 36.9904 0.41578C36.8362 0.575105 36.758 0.793122 36.7758 1.01397C36.7923 1.21818 36.7361 1.42275 36.6176 1.59L36.3215 2.00764L36.266 1.96872C35.8579 1.68266 35.2925 1.77915 35.0056 2.18385L33.1327 4.82607L33.4287 5.0336ZM37.6812 0.909992L37.9773 1.11752L37.7692 1.4111L37.4731 1.20357L37.6812 0.909992Z" fill="#F5CA32"/>
<rect x="35.6724" y="6.64731" width="2.75203" height="3.02772" transform="rotate(-144.989 35.6724 6.64731)" fill="#272B42"/>
<path d="M33.6829 5.11257L33.4543 4.95025L35.1514 2.54598L35.3644 2.72921L33.6829 5.11257Z" fill="#F5CA32"/>
<path d="M34.7366 5.87549L34.3892 5.6293L36.1301 3.16356L36.4613 3.43102L34.7366 5.87549Z" fill="#F5CA32"/>
<path d="M35.8108 6.6726L35.4634 6.4264L37.2043 3.96066L37.5355 4.22813L35.8108 6.6726Z" fill="#F5CA32"/>
<circle cx="33.8785" cy="4.69532" r="0.735425" fill="#272B42"/>
<circle cx="34.6994" cy="5.79854" r="0.650568" fill="#272B42"/>
<circle cx="35.7175" cy="6.19456" r="0.650568" fill="#272B42"/>
<path d="M2.49014 12.5114V9.74777C2.8356 9.22959 3.56968 8.81217 4.28938 8.81217C5.48407 8.81217 6.24695 9.77656 6.24695 11.1152C6.24695 12.4682 5.48407 13.4326 4.28938 13.4326C3.56968 13.4326 2.8356 13.0296 2.49014 12.5114ZM2.49014 14.5985V13.6485C3.02272 14.3394 3.82877 14.7712 4.72119 14.7712C6.50604 14.7712 7.81588 13.4182 7.81588 11.1152C7.81588 8.86974 6.52043 7.47354 4.72119 7.47354C3.85756 7.47354 3.0515 7.86217 2.49014 8.61065V4.99779H0.978784V14.5985H2.49014ZM9.05454 17.319C9.25606 17.3765 9.68787 17.4197 9.90378 17.4197C10.9833 17.4053 11.8038 17.0311 12.2788 15.8508L15.6325 7.64626H14.0204L11.9909 12.8569L9.96136 7.64626H8.33485L11.1992 14.6849L10.8538 15.4765C10.6523 15.9371 10.3356 16.0811 9.84621 16.0811C9.67348 16.0811 9.42878 16.0379 9.27045 15.9659L9.05454 17.319Z" fill="#BABFC5"/>
<defs>
<filter id="filter0_d_1811_4789" x="24.9391" y="8.21163" width="3.35254" height="2.61239" filterUnits="userSpaceOnUse" color-interpolation-filters="sRGB">
<feFlood flood-opacity="0" result="BackgroundImageFix"/>
<feColorMatrix in="SourceAlpha" type="matrix" values="0 0 0 0 0 0 0 0 0 0 0 0 0 0 0 0 0 0 127 0" result="hardAlpha"/>
<feOffset dy="0.222777"/>
<feGaussianBlur stdDeviation="0.111388"/>
<feComposite in2="hardAlpha" operator="out"/>
<feColorMatrix type="matrix" values="0 0 0 0 0 0 0 0 0 0 0 0 0 0 0 0 0 0 0.25 0"/>
<feBlend mode="normal" in2="BackgroundImageFix" result="effect1_dropShadow_1811_4789"/>
<feBlend mode="normal" in="SourceGraphic" in2="effect1_dropShadow_1811_4789" result="shape"/>
</filter>
<filter id="filter1_f_1811_4789" x="27.8021" y="14.2694" width="8.32445" height="5.20098" filterUnits="userSpaceOnUse" color-interpolation-filters="sRGB">
<feFlood flood-opacity="0" result="BackgroundImageFix"/>
<feBlend mode="normal" in="SourceGraphic" in2="BackgroundImageFix" result="shape"/>
<feGaussianBlur stdDeviation="0.334165" result="effect1_foregroundBlur_1811_4789"/>
</filter>
<filter id="filter2_f_1811_4789" x="26.944" y="7.71825" width="5.51732" height="7.38317" filterUnits="userSpaceOnUse" color-interpolation-filters="sRGB">
<feFlood flood-opacity="0" result="BackgroundImageFix"/>
<feBlend mode="normal" in="SourceGraphic" in2="BackgroundImageFix" result="shape"/>
<feGaussianBlur stdDeviation="0.334165" result="effect1_foregroundBlur_1811_4789"/>
</filter>
<filter id="filter3_f_1811_4789" x="31.4567" y="7.71798" width="5.51708" height="7.38317" filterUnits="userSpaceOnUse" color-interpolation-filters="sRGB">
<feFlood flood-opacity="0" result="BackgroundImageFix"/>
<feBlend mode="normal" in="SourceGraphic" in2="BackgroundImageFix" result="shape"/>
<feGaussianBlur stdDeviation="0.334165" result="effect1_foregroundBlur_1811_4789"/>
</filter>
<filter id="filter4_f_1811_4789" x="26.7853" y="7.50165" width="5.78515" height="7.80434" filterUnits="userSpaceOnUse" color-interpolation-filters="sRGB">
<feFlood flood-opacity="0" result="BackgroundImageFix"/>
<feBlend mode="normal" in="SourceGraphic" in2="BackgroundImageFix" result="shape"/>
<feGaussianBlur stdDeviation="0.334165" result="effect1_foregroundBlur_1811_4789"/>
</filter>
<filter id="filter5_d_1811_4789" x="23.6658" y="0.224347" width="16.4425" height="13.5234" filterUnits="userSpaceOnUse" color-interpolation-filters="sRGB">
<feFlood flood-opacity="0" result="BackgroundImageFix"/>
<feColorMatrix in="SourceAlpha" type="matrix" values="0 0 0 0 0 0 0 0 0 0 0 0 0 0 0 0 0 0 127 0" result="hardAlpha"/>
<feOffset dy="0.222777"/>
<feGaussianBlur stdDeviation="0.167082"/>
<feComposite in2="hardAlpha" operator="out"/>
<feColorMatrix type="matrix" values="0 0 0 0 0 0 0 0 0 0 0 0 0 0 0 0 0 0 0.4 0"/>
<feBlend mode="normal" in2="BackgroundImageFix" result="effect1_dropShadow_1811_4789"/>
<feBlend mode="normal" in="SourceGraphic" in2="effect1_dropShadow_1811_4789" result="shape"/>
</filter>
<linearGradient id="paint0_linear_1811_4789" x1="37.2562" y1="13.4009" x2="36.6436" y2="13.4008" gradientUnits="userSpaceOnUse">
<stop stop-color="white"/>
<stop offset="1" stop-color="white" stop-opacity="0"/>
</linearGradient>
<linearGradient id="paint1_linear_1811_4789" x1="0.612636" y1="5.54157" x2="5.53702e-09" y2="5.54157" gradientUnits="userSpaceOnUse">
<stop stop-color="white"/>
<stop offset="1" stop-color="white" stop-opacity="0"/>
</linearGradient>
<linearGradient id="paint2_linear_1811_4789" x1="0.704531" y1="5.54157" x2="6.36774e-09" y2="5.54157" gradientUnits="userSpaceOnUse">
<stop stop-color="white"/>
<stop offset="1" stop-color="white" stop-opacity="0"/>
</linearGradient>
<clipPath id="clip0_1811_4789">
<path d="M26.1169 5.01889H37.8127V16.9374C37.8127 18.5984 36.4662 19.9449 34.8052 19.9449H29.1244C27.4634 19.9449 26.1169 18.5984 26.1169 16.9374V5.01889Z" fill="white"/>
</clipPath>
</defs>
</svg>
