<svg width="20" height="19" viewBox="0 0 20 19" fill="none" xmlns="http://www.w3.org/2000/svg">
<path d="M12.4258 4.32812L14.3594 1.48047C14.5 1.23438 14.4648 0.917969 14.3242 0.671875C14.1836 0.425781 13.9375 0.25 13.6211 0.25H6.30859C5.99219 0.25 5.74609 0.425781 5.57031 0.671875C5.42969 0.917969 5.42969 1.23438 5.57031 1.48047L7.53906 4.32812C0.648438 8.54688 1 14.0312 1 14.7344C1 16.7031 2.72266 18.25 4.83203 18.25H15.1328C17.2422 18.25 18.9648 16.7031 18.9648 14.7344C18.9648 14.0664 19.2812 8.51172 12.4258 4.32812ZM12.0391 1.9375L10.668 3.90625H9.26172L7.92578 1.9375H12.0391ZM15.1328 16.5625H4.83203C3.63672 16.5625 2.6875 15.7539 2.6875 14.7344C2.65234 11.8867 3.8125 8.58203 8.66406 5.59375H11.2656C16.082 8.58203 17.2773 11.8867 17.2773 14.7344C17.2773 15.7539 16.3281 16.5625 15.1328 16.5625ZM12.4961 12.9062C12.3203 13.75 11.7227 14.3125 10.8438 14.5234V14.875C10.8438 15.3672 10.457 15.7188 10 15.7188C9.50781 15.7188 9.15625 15.3672 9.15625 14.875V14.4883C8.80469 14.418 8.48828 14.3125 8.17188 14.207L8.03125 14.1367C7.57422 13.9961 7.32812 13.5039 7.50391 13.0469C7.64453 12.625 8.13672 12.3789 8.59375 12.5547L8.73438 12.625C9.05078 12.7305 9.40234 12.8359 9.68359 12.9062C10.2812 12.9766 10.7734 12.8711 10.8086 12.625C10.8438 12.4492 10.8789 12.3789 9.75391 12.0625L9.50781 11.9922C8.875 11.7812 7.1875 11.2891 7.50391 9.56641C7.64453 8.72266 8.24219 8.16016 9.15625 7.94922V7.5625C9.15625 7.10547 9.50781 6.71875 10 6.71875C10.457 6.71875 10.8438 7.10547 10.8438 7.5625V7.98438C11.0547 8.01953 11.2656 8.08984 11.5117 8.16016C11.9688 8.33594 12.2148 8.82812 12.0391 9.25C11.8984 9.70703 11.4062 9.91797 10.9844 9.77734C10.668 9.67188 10.457 9.60156 10.2812 9.56641C9.68359 9.49609 9.19141 9.60156 9.15625 9.84766C9.12109 9.98828 9.12109 10.0938 10 10.375L10.2109 10.4102C11.125 10.6914 12.7773 11.1484 12.4961 12.9062Z" fill="#FCFCFD"/>
</svg>
