<svg width="20" height="19" viewBox="0 0 20 19" fill="none" xmlns="http://www.w3.org/2000/svg">
<path d="M7.75 3.625H12.25L13.9023 1.12891C14.0078 0.953125 14.043 0.742188 13.9375 0.566406C13.832 0.390625 13.6562 0.25 13.4453 0.25H6.51953C6.30859 0.25 6.09766 0.390625 5.99219 0.566406C5.92188 0.742188 5.95703 0.953125 6.0625 1.12891L7.75 3.625ZM12.25 4.75H7.75C0.613281 8.82812 1 14.207 1 14.875C1 16.7383 2.72266 18.25 4.83203 18.25H15.1328C17.2422 18.25 18.9648 16.7383 18.9648 14.875C18.9648 14.207 19.3164 8.79297 12.25 4.75ZM12.4961 13.1875C12.3203 14.0312 11.7227 14.5938 10.8438 14.8047V15.1562C10.8438 15.6484 10.457 16 10 16C9.50781 16 9.15625 15.6484 9.15625 15.1562V14.7695C8.80469 14.6992 8.48828 14.5938 8.17188 14.4883L8.03125 14.418C7.57422 14.2773 7.32812 13.7852 7.50391 13.3281C7.64453 12.9062 8.13672 12.6602 8.59375 12.8359L8.73438 12.9062C9.05078 13.0117 9.40234 13.1172 9.68359 13.1875C10.2812 13.2578 10.7734 13.1523 10.8086 12.9062C10.8438 12.7305 10.8789 12.6602 9.75391 12.3438L9.50781 12.2734C8.875 12.0625 7.1875 11.5703 7.50391 9.84766C7.64453 9.00391 8.24219 8.44141 9.15625 8.23047V7.84375C9.15625 7.38672 9.50781 7 10 7C10.457 7 10.8438 7.38672 10.8438 7.84375V8.26562C11.0547 8.30078 11.2656 8.37109 11.5117 8.44141C11.9688 8.61719 12.2148 9.10938 12.0391 9.53125C11.8984 9.98828 11.4062 10.1992 10.9844 10.0586C10.668 9.95312 10.457 9.88281 10.2812 9.84766C9.68359 9.77734 9.19141 9.88281 9.15625 10.1289C9.12109 10.2695 9.12109 10.375 10 10.6562L10.2109 10.6914C11.125 10.9727 12.7773 11.4297 12.4961 13.1875Z" fill="#23262F"/>
</svg>
