<svg width="19" height="19" viewBox="0 0 19 19" fill="none" xmlns="http://www.w3.org/2000/svg">
    <path d="M9.875 0.25C4.88281 0.25 0.875 4.29297 0.875 9.25C0.875 14.2422 4.88281 18.25 9.875 18.25C14.832 18.25 18.875 14.2422 18.875 9.25C18.875 4.29297 14.832 0.25 9.875 0.25ZM13.918 7.70312L9.41797 12.2031C9.24219 12.4141 8.99609 12.4844 8.75 12.4844C8.46875 12.4844 8.22266 12.4141 8.04688 12.2031L5.79688 9.95312C5.41016 9.56641 5.41016 8.96875 5.79688 8.58203C6.18359 8.19531 6.78125 8.19531 7.16797 8.58203L8.75 10.1289L12.5469 6.33203C12.9336 5.94531 13.5312 5.94531 13.918 6.33203C14.3047 6.71875 14.3047 7.31641 13.918 7.70312Z" fill="#04CD95"/>
    </svg>