<svg width="20" height="19" viewBox="0 0 20 19" fill="none" xmlns="http://www.w3.org/2000/svg">
<path d="M1.84375 5.59375H13.375L13.3398 8.40625C13.3398 8.75781 13.5508 9.07422 13.8672 9.17969C14.1836 9.32031 14.5352 9.28516 14.7812 9.03906L18.7188 5.38281C19.0703 5.06641 19.0703 4.46875 18.7188 4.15234L14.7812 0.496094C14.5352 0.25 14.1836 0.214844 13.8672 0.320312C13.5508 0.460938 13.3398 0.777344 13.3398 1.09375L13.375 3.90625H1.84375C1.35156 3.90625 1 4.29297 1 4.75C1 5.17188 1.35156 5.59375 1.84375 5.59375ZM18.1562 12.9062H6.58984L6.625 10.0938C6.625 9.74219 6.41406 9.42578 6.09766 9.32031C5.78125 9.17969 5.42969 9.25 5.18359 9.49609L1.24609 13.1523C0.894531 13.4688 0.894531 14.0664 1.24609 14.3828L5.18359 18.0391C5.42969 18.2852 5.78125 18.3203 6.09766 18.1797C6.41406 18.0742 6.625 17.7578 6.625 17.4062L6.58984 14.5938H18.1562C18.6133 14.5938 19 14.2422 19 13.75C19 13.293 18.6133 12.9062 18.1562 12.9062Z" fill="#FCFCFD"/>
</svg>
