<svg width="22" height="21" viewBox="0 0 22 21" fill="none" xmlns="http://www.w3.org/2000/svg">
<path d="M2.25 7.375H16.7031L14.4766 9.64062C13.9688 10.1094 13.9688 10.9297 14.4766 11.3984C14.7109 11.6328 15.0234 11.75 15.375 11.75C15.6875 11.75 16 11.6328 16.2344 11.3984L20.6094 7.02344C21.1172 6.55469 21.1172 5.73438 20.6094 5.26562L16.2344 0.890625C15.7656 0.382812 14.9453 0.382812 14.4766 0.890625C13.9688 1.35938 13.9688 2.17969 14.4766 2.64844L16.7031 4.875H2.25C1.54688 4.875 1 5.46094 1 6.125C1 6.82812 1.54688 7.375 2.25 7.375ZM19.75 13.625H5.25781L7.48438 11.3984C7.99219 10.9297 7.99219 10.1094 7.48438 9.64062C7.01562 9.13281 6.19531 9.13281 5.72656 9.64062L1.35156 14.0156C0.84375 14.4844 0.84375 15.3047 1.35156 15.7734L5.72656 20.1484C5.96094 20.3828 6.27344 20.5 6.625 20.5C6.9375 20.5 7.25 20.3828 7.48438 20.1484C7.99219 19.6797 7.99219 18.8594 7.48438 18.3906L5.25781 16.125H19.75C20.4141 16.125 21 15.5781 21 14.875C21 14.2109 20.4141 13.625 19.75 13.625Z" fill="#23262F"/>
</svg>
