<svg width="25" height="24" viewBox="0 0 25 24" fill="none" xmlns="http://www.w3.org/2000/svg">
<path d="M24.4531 12C24.4531 10.3125 23.5625 8.8125 22.25 7.96875C22.5781 6.42188 22.1562 4.73438 20.9375 3.51562C19.7656 2.34375 18.0781 1.875 16.5312 2.20312C15.6406 0.890625 14.1875 0 12.4531 0C10.7656 0 9.26562 0.890625 8.375 2.20312C6.875 1.875 5.1875 2.34375 3.96875 3.51562C2.79688 4.73438 2.32812 6.42188 2.65625 7.96875C1.34375 8.8125 0.453125 10.3125 0.453125 12C0.453125 13.7344 1.34375 15.2344 2.65625 16.0781C2.32812 17.625 2.79688 19.3125 3.96875 20.4844C5.1875 21.7031 6.82812 22.1719 8.375 21.8438C9.26562 23.1562 10.7656 24 12.4531 24C14.1875 24 15.6406 23.1562 16.5312 21.8438C18.0781 22.1719 19.7656 21.7031 20.9375 20.4844C22.1562 19.3125 22.5781 17.625 22.25 16.0781C23.6094 15.2344 24.4531 13.7344 24.4531 12ZM17 10.1719L11.75 15.4219C11.5625 15.6562 11.2812 15.75 11 15.75C10.6719 15.75 10.3906 15.6562 10.2031 15.4219L7.95312 13.1719C7.48438 12.75 7.48438 12.0469 7.95312 11.625C8.375 11.1562 9.07812 11.1562 9.5 11.625L11 13.0781L15.4531 8.625C15.875 8.15625 16.5781 8.15625 17 8.625C17.4688 9.04688 17.4688 9.75 17 10.1719Z" fill="#2253FF"/>
</svg>